STARTFONT 2.1
FONT -FontForge-Rajdhani-Book-R-Normal--8-80-72-72-P-49-ISO10646-1
SIZE 8 72 72
FONTBOUNDINGBOX 19 10 -3 -3
COMMENT "Generated by fontforge, http://fontforge.sourceforge.net"
COMMENT "Copyright (c) 2014 Indian Type Foundry (info@indiantypefoundry.com)"
STARTPROPERTIES 40
FOUNDRY "FontForge"
FAMILY_NAME "Rajdhani"
WEIGHT_NAME "Book"
SLANT "R"
SETWIDTH_NAME "Normal"
ADD_STYLE_NAME ""
PIXEL_SIZE 8
POINT_SIZE 80
RESOLUTION_X 72
RESOLUTION_Y 72
SPACING "P"
AVERAGE_WIDTH 49
CHARSET_REGISTRY "ISO10646"
CHARSET_ENCODING "1"
FONTNAME_REGISTRY ""
CHARSET_COLLECTIONS "ISO8859-2 ISO8859-9 ISO8859-4 ISO10646-1"
FONT_NAME "Rajdhani-Regular"
FACE_NAME "Rajdhani Regular"
COPYRIGHT "Copyright (c) 2014 Indian Type Foundry (info@indiantypefoundry.com)"
FONT_VERSION "1.201;PS 1.0;hotconv 1.0.78;makeotf.lib2.5.61930; ttfautohint (v1.1) -l 7 -r 28 -G 50 -x 13 -D latn -f deva -w G"
FONT_ASCENT 6
FONT_DESCENT 2
UNDERLINE_POSITION -1
UNDERLINE_THICKNESS 1
X_HEIGHT 3
CAP_HEIGHT 4
DEFAULT_CHAR 3
RAW_ASCENT 800
RAW_DESCENT 200
NORM_SPACE 2
RELATIVE_WEIGHT 40
RELATIVE_SETWIDTH 50
SUPERSCRIPT_X 0
SUPERSCRIPT_Y 2
SUPERSCRIPT_SIZE 4
SUBSCRIPT_X 0
SUBSCRIPT_Y 0
SUBSCRIPT_SIZE 4
AVG_LOWERCASE_WIDTH 35
AVG_UPPERCASE_WIDTH 40
ENDPROPERTIES
CHARS 1043
STARTCHAR NULL.dup1
ENCODING 0
SWIDTH 0 0
DWIDTH 0 0
BBX 1 1 0 0
BITMAP
00
ENDCHAR
STARTCHAR CR
ENCODING 13
SWIDTH 0 0
DWIDTH 0 0
BBX 1 1 0 0
BITMAP
00
ENDCHAR
STARTCHAR space
ENCODING 32
SWIDTH 267 0
DWIDTH 2 0
BBX 1 1 0 0
BITMAP
00
ENDCHAR
STARTCHAR exclam
ENCODING 33
SWIDTH 237 0
DWIDTH 2 0
BBX 1 5 0 0
BITMAP
80
80
80
00
80
ENDCHAR
STARTCHAR quotedbl
ENCODING 34
SWIDTH 330 0
DWIDTH 3 0
BBX 2 2 0 3
BITMAP
C0
C0
ENDCHAR
STARTCHAR numbersign
ENCODING 35
SWIDTH 677 0
DWIDTH 5 0
BBX 5 5 0 0
BITMAP
28
78
50
F0
50
ENDCHAR
STARTCHAR dollar
ENCODING 36
SWIDTH 504 0
DWIDTH 4 0
BBX 2 7 1 -1
BITMAP
40
C0
80
C0
40
C0
40
ENDCHAR
STARTCHAR percent
ENCODING 37
SWIDTH 717 0
DWIDTH 6 0
BBX 5 5 0 0
BITMAP
F0
A0
68
38
58
ENDCHAR
STARTCHAR ampersand
ENCODING 38
SWIDTH 597 0
DWIDTH 5 0
BBX 3 5 1 0
BITMAP
E0
A0
E0
C0
E0
ENDCHAR
STARTCHAR quotesingle
ENCODING 39
SWIDTH 186 0
DWIDTH 1 0
BBX 1 2 0 3
BITMAP
80
80
ENDCHAR
STARTCHAR parenleft
ENCODING 40
SWIDTH 283 0
DWIDTH 2 0
BBX 2 6 0 -1
BITMAP
C0
80
80
80
80
40
ENDCHAR
STARTCHAR parenright
ENCODING 41
SWIDTH 283 0
DWIDTH 2 0
BBX 2 6 0 -1
BITMAP
C0
40
40
40
40
80
ENDCHAR
STARTCHAR asterisk
ENCODING 42
SWIDTH 406 0
DWIDTH 3 0
BBX 2 2 1 3
BITMAP
C0
80
ENDCHAR
STARTCHAR plus
ENCODING 43
SWIDTH 523 0
DWIDTH 4 0
BBX 3 3 1 1
BITMAP
40
E0
40
ENDCHAR
STARTCHAR comma
ENCODING 44
SWIDTH 191 0
DWIDTH 2 0
BBX 1 2 0 -1
BITMAP
80
80
ENDCHAR
STARTCHAR hyphen
ENCODING 45
SWIDTH 312 0
DWIDTH 3 0
BBX 2 1 0 2
BITMAP
C0
ENDCHAR
STARTCHAR period
ENCODING 46
SWIDTH 191 0
DWIDTH 2 0
BBX 1 1 0 0
BITMAP
80
ENDCHAR
STARTCHAR slash
ENCODING 47
SWIDTH 396 0
DWIDTH 3 0
BBX 3 5 0 0
BITMAP
20
40
40
40
80
ENDCHAR
STARTCHAR zero
ENCODING 48
SWIDTH 514 0
DWIDTH 4 0
BBX 3 5 1 0
BITMAP
E0
A0
A0
A0
E0
ENDCHAR
STARTCHAR one
ENCODING 49
SWIDTH 317 0
DWIDTH 3 0
BBX 2 5 0 0
BITMAP
C0
40
40
40
40
ENDCHAR
STARTCHAR two
ENCODING 50
SWIDTH 478 0
DWIDTH 4 0
BBX 3 5 0 0
BITMAP
E0
A0
20
40
E0
ENDCHAR
STARTCHAR three
ENCODING 51
SWIDTH 496 0
DWIDTH 4 0
BBX 3 5 0 0
BITMAP
E0
20
20
A0
E0
ENDCHAR
STARTCHAR four
ENCODING 52
SWIDTH 520 0
DWIDTH 4 0
BBX 4 5 0 0
BITMAP
20
50
50
F0
10
ENDCHAR
STARTCHAR five
ENCODING 53
SWIDTH 482 0
DWIDTH 4 0
BBX 2 5 1 0
BITMAP
C0
C0
40
C0
C0
ENDCHAR
STARTCHAR six
ENCODING 54
SWIDTH 497 0
DWIDTH 4 0
BBX 3 5 0 0
BITMAP
E0
80
E0
A0
E0
ENDCHAR
STARTCHAR seven
ENCODING 55
SWIDTH 380 0
DWIDTH 3 0
BBX 3 5 0 0
BITMAP
E0
20
40
40
40
ENDCHAR
STARTCHAR eight
ENCODING 56
SWIDTH 519 0
DWIDTH 4 0
BBX 3 5 1 0
BITMAP
E0
A0
C0
A0
E0
ENDCHAR
STARTCHAR nine
ENCODING 57
SWIDTH 497 0
DWIDTH 4 0
BBX 3 5 0 0
BITMAP
E0
A0
60
20
60
ENDCHAR
STARTCHAR colon
ENCODING 58
SWIDTH 191 0
DWIDTH 2 0
BBX 1 4 0 0
BITMAP
80
00
00
80
ENDCHAR
STARTCHAR semicolon
ENCODING 59
SWIDTH 191 0
DWIDTH 2 0
BBX 1 5 0 -1
BITMAP
80
00
00
80
80
ENDCHAR
STARTCHAR less
ENCODING 60
SWIDTH 513 0
DWIDTH 4 0
BBX 3 3 1 1
BITMAP
60
80
60
ENDCHAR
STARTCHAR equal
ENCODING 61
SWIDTH 531 0
DWIDTH 4 0
BBX 3 2 1 1
BITMAP
E0
E0
ENDCHAR
STARTCHAR greater
ENCODING 62
SWIDTH 531 0
DWIDTH 4 0
BBX 3 3 1 1
BITMAP
80
60
80
ENDCHAR
STARTCHAR question
ENCODING 63
SWIDTH 473 0
DWIDTH 4 0
BBX 2 5 1 0
BITMAP
C0
C0
40
00
80
ENDCHAR
STARTCHAR at
ENCODING 64
SWIDTH 753 0
DWIDTH 6 0
BBX 4 6 1 -1
BITMAP
70
F0
B0
B0
D0
60
ENDCHAR
STARTCHAR A
ENCODING 65
SWIDTH 533 0
DWIDTH 4 0
BBX 4 5 0 0
BITMAP
20
60
50
70
90
ENDCHAR
STARTCHAR B
ENCODING 66
SWIDTH 546 0
DWIDTH 4 0
BBX 3 5 1 0
BITMAP
E0
A0
C0
A0
E0
ENDCHAR
STARTCHAR C
ENCODING 67
SWIDTH 542 0
DWIDTH 4 0
BBX 3 5 1 0
BITMAP
E0
A0
80
A0
E0
ENDCHAR
STARTCHAR D
ENCODING 68
SWIDTH 557 0
DWIDTH 4 0
BBX 3 5 1 0
BITMAP
E0
A0
A0
A0
E0
ENDCHAR
STARTCHAR E
ENCODING 69
SWIDTH 481 0
DWIDTH 4 0
BBX 2 5 1 0
BITMAP
C0
80
C0
80
C0
ENDCHAR
STARTCHAR F
ENCODING 70
SWIDTH 459 0
DWIDTH 4 0
BBX 2 5 1 0
BITMAP
C0
80
C0
80
80
ENDCHAR
STARTCHAR G
ENCODING 71
SWIDTH 539 0
DWIDTH 4 0
BBX 3 5 1 0
BITMAP
E0
80
E0
A0
E0
ENDCHAR
STARTCHAR H
ENCODING 72
SWIDTH 570 0
DWIDTH 5 0
BBX 3 5 1 0
BITMAP
A0
A0
E0
A0
A0
ENDCHAR
STARTCHAR I
ENCODING 73
SWIDTH 230 0
DWIDTH 2 0
BBX 1 5 0 0
BITMAP
80
80
80
80
80
ENDCHAR
STARTCHAR J
ENCODING 74
SWIDTH 499 0
DWIDTH 4 0
BBX 3 5 0 0
BITMAP
20
20
20
A0
E0
ENDCHAR
STARTCHAR K
ENCODING 75
SWIDTH 530 0
DWIDTH 4 0
BBX 3 5 1 0
BITMAP
A0
C0
80
C0
A0
ENDCHAR
STARTCHAR L
ENCODING 76
SWIDTH 451 0
DWIDTH 4 0
BBX 2 5 1 0
BITMAP
80
80
80
80
C0
ENDCHAR
STARTCHAR M
ENCODING 77
SWIDTH 696 0
DWIDTH 6 0
BBX 4 5 1 0
BITMAP
90
90
B0
D0
90
ENDCHAR
STARTCHAR N
ENCODING 78
SWIDTH 579 0
DWIDTH 5 0
BBX 3 5 1 0
BITMAP
A0
A0
E0
E0
A0
ENDCHAR
STARTCHAR O
ENCODING 79
SWIDTH 553 0
DWIDTH 4 0
BBX 3 5 1 0
BITMAP
E0
A0
A0
A0
E0
ENDCHAR
STARTCHAR P
ENCODING 80
SWIDTH 524 0
DWIDTH 4 0
BBX 3 5 1 0
BITMAP
E0
A0
C0
80
80
ENDCHAR
STARTCHAR Q
ENCODING 81
SWIDTH 556 0
DWIDTH 4 0
BBX 3 6 1 -1
BITMAP
E0
A0
A0
A0
A0
40
ENDCHAR
STARTCHAR R
ENCODING 82
SWIDTH 534 0
DWIDTH 4 0
BBX 3 5 1 0
BITMAP
E0
A0
C0
C0
A0
ENDCHAR
STARTCHAR S
ENCODING 83
SWIDTH 562 0
DWIDTH 5 0
BBX 3 5 1 0
BITMAP
E0
80
40
A0
E0
ENDCHAR
STARTCHAR T
ENCODING 84
SWIDTH 420 0
DWIDTH 3 0
BBX 3 5 0 0
BITMAP
E0
40
40
40
40
ENDCHAR
STARTCHAR U
ENCODING 85
SWIDTH 552 0
DWIDTH 4 0
BBX 3 5 1 0
BITMAP
A0
A0
A0
A0
E0
ENDCHAR
STARTCHAR V
ENCODING 86
SWIDTH 500 0
DWIDTH 4 0
BBX 4 5 0 0
BITMAP
90
90
60
60
40
ENDCHAR
STARTCHAR W
ENCODING 87
SWIDTH 794 0
DWIDTH 6 0
BBX 6 5 0 0
BITMAP
94
94
74
48
48
ENDCHAR
STARTCHAR X
ENCODING 88
SWIDTH 504 0
DWIDTH 4 0
BBX 4 5 0 0
BITMAP
90
60
20
60
90
ENDCHAR
STARTCHAR Y
ENCODING 89
SWIDTH 493 0
DWIDTH 4 0
BBX 4 5 0 0
BITMAP
90
60
40
40
40
ENDCHAR
STARTCHAR Z
ENCODING 90
SWIDTH 482 0
DWIDTH 4 0
BBX 4 5 0 0
BITMAP
F0
20
40
40
F0
ENDCHAR
STARTCHAR bracketleft
ENCODING 91
SWIDTH 287 0
DWIDTH 2 0
BBX 1 6 1 -1
BITMAP
80
80
80
80
80
80
ENDCHAR
STARTCHAR backslash
ENCODING 92
SWIDTH 396 0
DWIDTH 3 0
BBX 3 5 0 0
BITMAP
80
40
40
40
20
ENDCHAR
STARTCHAR bracketright
ENCODING 93
SWIDTH 287 0
DWIDTH 2 0
BBX 2 6 0 -1
BITMAP
C0
40
40
40
40
C0
ENDCHAR
STARTCHAR asciicircum
ENCODING 94
SWIDTH 465 0
DWIDTH 4 0
BBX 3 2 0 3
BITMAP
40
A0
ENDCHAR
STARTCHAR underscore
ENCODING 95
SWIDTH 372 0
DWIDTH 3 0
BBX 3 1 0 -1
BITMAP
E0
ENDCHAR
STARTCHAR grave
ENCODING 96
SWIDTH 269 0
DWIDTH 2 0
BBX 1 1 1 5
BITMAP
80
ENDCHAR
STARTCHAR a
ENCODING 97
SWIDTH 502 0
DWIDTH 4 0
BBX 2 4 1 0
BITMAP
C0
C0
C0
C0
ENDCHAR
STARTCHAR b
ENCODING 98
SWIDTH 504 0
DWIDTH 4 0
BBX 3 6 1 0
BITMAP
80
80
E0
A0
A0
E0
ENDCHAR
STARTCHAR c
ENCODING 99
SWIDTH 394 0
DWIDTH 3 0
BBX 2 4 1 0
BITMAP
C0
80
80
C0
ENDCHAR
STARTCHAR d
ENCODING 100
SWIDTH 504 0
DWIDTH 4 0
BBX 2 6 1 0
BITMAP
40
40
C0
C0
C0
C0
ENDCHAR
STARTCHAR e
ENCODING 101
SWIDTH 492 0
DWIDTH 4 0
BBX 2 4 1 0
BITMAP
C0
C0
C0
C0
ENDCHAR
STARTCHAR f
ENCODING 102
SWIDTH 303 0
DWIDTH 2 0
BBX 2 6 0 0
BITMAP
40
40
C0
40
40
40
ENDCHAR
STARTCHAR g
ENCODING 103
SWIDTH 506 0
DWIDTH 4 0
BBX 2 5 1 -1
BITMAP
C0
C0
C0
C0
C0
ENDCHAR
STARTCHAR h
ENCODING 104
SWIDTH 507 0
DWIDTH 4 0
BBX 3 6 1 0
BITMAP
80
80
E0
A0
A0
A0
ENDCHAR
STARTCHAR i
ENCODING 105
SWIDTH 210 0
DWIDTH 2 0
BBX 1 6 0 0
BITMAP
80
00
80
80
80
80
ENDCHAR
STARTCHAR j
ENCODING 106
SWIDTH 210 0
DWIDTH 2 0
BBX 1 7 0 -1
BITMAP
80
00
80
80
80
80
80
ENDCHAR
STARTCHAR k
ENCODING 107
SWIDTH 431 0
DWIDTH 3 0
BBX 2 6 1 0
BITMAP
80
80
C0
80
80
C0
ENDCHAR
STARTCHAR l
ENCODING 108
SWIDTH 210 0
DWIDTH 2 0
BBX 1 6 0 0
BITMAP
80
80
80
80
80
80
ENDCHAR
STARTCHAR m
ENCODING 109
SWIDTH 769 0
DWIDTH 6 0
BBX 5 4 1 0
BITMAP
F8
A8
A8
A8
ENDCHAR
STARTCHAR n
ENCODING 110
SWIDTH 507 0
DWIDTH 4 0
BBX 3 4 1 0
BITMAP
E0
A0
A0
A0
ENDCHAR
STARTCHAR o
ENCODING 111
SWIDTH 496 0
DWIDTH 4 0
BBX 2 4 1 0
BITMAP
C0
C0
C0
C0
ENDCHAR
STARTCHAR p
ENCODING 112
SWIDTH 504 0
DWIDTH 4 0
BBX 3 5 1 -1
BITMAP
E0
A0
A0
E0
80
ENDCHAR
STARTCHAR q
ENCODING 113
SWIDTH 502 0
DWIDTH 4 0
BBX 2 5 1 -1
BITMAP
C0
C0
C0
C0
40
ENDCHAR
STARTCHAR r
ENCODING 114
SWIDTH 313 0
DWIDTH 3 0
BBX 1 4 1 0
BITMAP
80
80
80
80
ENDCHAR
STARTCHAR s
ENCODING 115
SWIDTH 431 0
DWIDTH 3 0
BBX 3 4 0 0
BITMAP
E0
C0
20
E0
ENDCHAR
STARTCHAR t
ENCODING 116
SWIDTH 347 0
DWIDTH 3 0
BBX 2 5 0 0
BITMAP
40
C0
40
40
40
ENDCHAR
STARTCHAR u
ENCODING 117
SWIDTH 507 0
DWIDTH 4 0
BBX 2 4 1 0
BITMAP
C0
C0
C0
C0
ENDCHAR
STARTCHAR v
ENCODING 118
SWIDTH 416 0
DWIDTH 3 0
BBX 3 4 0 0
BITMAP
A0
A0
40
40
ENDCHAR
STARTCHAR w
ENCODING 119
SWIDTH 683 0
DWIDTH 5 0
BBX 5 4 0 0
BITMAP
A8
A8
58
50
ENDCHAR
STARTCHAR x
ENCODING 120
SWIDTH 413 0
DWIDTH 3 0
BBX 3 4 0 0
BITMAP
A0
40
40
A0
ENDCHAR
STARTCHAR y
ENCODING 121
SWIDTH 459 0
DWIDTH 4 0
BBX 3 5 0 -1
BITMAP
A0
A0
60
40
C0
ENDCHAR
STARTCHAR z
ENCODING 122
SWIDTH 405 0
DWIDTH 3 0
BBX 3 4 0 0
BITMAP
E0
40
40
E0
ENDCHAR
STARTCHAR braceleft
ENCODING 123
SWIDTH 298 0
DWIDTH 2 0
BBX 2 6 0 -1
BITMAP
40
40
80
40
40
40
ENDCHAR
STARTCHAR bar
ENCODING 124
SWIDTH 207 0
DWIDTH 2 0
BBX 1 5 0 0
BITMAP
80
80
80
80
80
ENDCHAR
STARTCHAR braceright
ENCODING 125
SWIDTH 298 0
DWIDTH 2 0
BBX 2 6 0 -1
BITMAP
C0
40
40
40
40
80
ENDCHAR
STARTCHAR asciitilde
ENCODING 126
SWIDTH 523 0
DWIDTH 4 0
BBX 3 1 1 2
BITMAP
E0
ENDCHAR
STARTCHAR uni00A0
ENCODING 160
SWIDTH 267 0
DWIDTH 2 0
BBX 1 1 0 0
BITMAP
00
ENDCHAR
STARTCHAR exclamdown
ENCODING 161
SWIDTH 237 0
DWIDTH 2 0
BBX 1 5 0 0
BITMAP
80
00
80
80
80
ENDCHAR
STARTCHAR cent
ENCODING 162
SWIDTH 414 0
DWIDTH 3 0
BBX 2 6 1 -1
BITMAP
40
80
80
80
80
40
ENDCHAR
STARTCHAR sterling
ENCODING 163
SWIDTH 528 0
DWIDTH 4 0
BBX 4 5 0 0
BITMAP
70
40
E0
40
F0
ENDCHAR
STARTCHAR yen
ENCODING 165
SWIDTH 499 0
DWIDTH 4 0
BBX 4 5 0 0
BITMAP
90
60
F0
F0
40
ENDCHAR
STARTCHAR brokenbar
ENCODING 166
SWIDTH 201 0
DWIDTH 2 0
BBX 1 5 0 0
BITMAP
80
80
00
80
80
ENDCHAR
STARTCHAR section
ENCODING 167
SWIDTH 454 0
DWIDTH 4 0
BBX 3 5 0 0
BITMAP
E0
C0
A0
60
60
ENDCHAR
STARTCHAR dieresis
ENCODING 168
SWIDTH 345 0
DWIDTH 3 0
BBX 1 1 1 5
BITMAP
80
ENDCHAR
STARTCHAR copyright
ENCODING 169
SWIDTH 723 0
DWIDTH 6 0
BBX 4 5 1 0
BITMAP
F0
F0
B0
F0
F0
ENDCHAR
STARTCHAR guillemotleft
ENCODING 171
SWIDTH 431 0
DWIDTH 3 0
BBX 2 2 1 1
BITMAP
C0
C0
ENDCHAR
STARTCHAR registered
ENCODING 174
SWIDTH 439 0
DWIDTH 4 0
BBX 2 3 1 3
BITMAP
C0
C0
C0
ENDCHAR
STARTCHAR macron
ENCODING 175
SWIDTH 358 0
DWIDTH 3 0
BBX 1 1 1 4
BITMAP
80
ENDCHAR
STARTCHAR degree
ENCODING 176
SWIDTH 298 0
DWIDTH 2 0
BBX 1 2 1 4
BITMAP
80
80
ENDCHAR
STARTCHAR plusminus
ENCODING 177
SWIDTH 523 0
DWIDTH 4 0
BBX 3 3 1 1
BITMAP
40
E0
E0
ENDCHAR
STARTCHAR acute
ENCODING 180
SWIDTH 269 0
DWIDTH 2 0
BBX 1 1 1 5
BITMAP
80
ENDCHAR
STARTCHAR paragraph
ENCODING 182
SWIDTH 513 0
DWIDTH 4 0
BBX 3 5 0 0
BITMAP
E0
E0
60
60
60
ENDCHAR
STARTCHAR periodcentered
ENCODING 183
SWIDTH 207 0
DWIDTH 2 0
BBX 1 1 0 2
BITMAP
80
ENDCHAR
STARTCHAR cedilla
ENCODING 184
SWIDTH 257 0
DWIDTH 2 0
BBX 2 2 0 -2
BITMAP
C0
80
ENDCHAR
STARTCHAR guillemotright
ENCODING 187
SWIDTH 431 0
DWIDTH 3 0
BBX 2 2 1 1
BITMAP
C0
C0
ENDCHAR
STARTCHAR questiondown
ENCODING 191
SWIDTH 473 0
DWIDTH 4 0
BBX 2 5 1 0
BITMAP
80
00
80
C0
C0
ENDCHAR
STARTCHAR Agrave
ENCODING 192
SWIDTH 532 0
DWIDTH 4 0
BBX 4 7 0 0
BITMAP
40
20
20
60
50
70
90
ENDCHAR
STARTCHAR Aacute
ENCODING 193
SWIDTH 532 0
DWIDTH 4 0
BBX 4 7 0 0
BITMAP
20
20
20
60
50
70
90
ENDCHAR
STARTCHAR Acircumflex
ENCODING 194
SWIDTH 532 0
DWIDTH 4 0
BBX 4 7 0 0
BITMAP
20
60
20
60
50
70
90
ENDCHAR
STARTCHAR Atilde
ENCODING 195
SWIDTH 532 0
DWIDTH 4 0
BBX 4 7 0 0
BITMAP
60
60
20
60
50
70
90
ENDCHAR
STARTCHAR Adieresis
ENCODING 196
SWIDTH 532 0
DWIDTH 4 0
BBX 4 7 0 0
BITMAP
60
00
20
60
50
70
90
ENDCHAR
STARTCHAR Aring
ENCODING 197
SWIDTH 532 0
DWIDTH 4 0
BBX 4 7 0 0
BITMAP
60
00
20
60
50
70
90
ENDCHAR
STARTCHAR AE
ENCODING 198
SWIDTH 773 0
DWIDTH 6 0
BBX 6 5 0 0
BITMAP
3C
20
58
60
9C
ENDCHAR
STARTCHAR Ccedilla
ENCODING 199
SWIDTH 542 0
DWIDTH 4 0
BBX 3 7 1 -2
BITMAP
E0
A0
80
A0
A0
40
40
ENDCHAR
STARTCHAR Egrave
ENCODING 200
SWIDTH 481 0
DWIDTH 4 0
BBX 2 7 1 0
BITMAP
80
40
80
80
C0
80
C0
ENDCHAR
STARTCHAR Eacute
ENCODING 201
SWIDTH 481 0
DWIDTH 4 0
BBX 2 7 1 0
BITMAP
40
80
C0
80
C0
80
C0
ENDCHAR
STARTCHAR Ecircumflex
ENCODING 202
SWIDTH 481 0
DWIDTH 4 0
BBX 2 7 1 0
BITMAP
80
C0
80
80
C0
80
C0
ENDCHAR
STARTCHAR Edieresis
ENCODING 203
SWIDTH 481 0
DWIDTH 4 0
BBX 2 7 1 0
BITMAP
C0
00
C0
80
C0
80
C0
ENDCHAR
STARTCHAR Igrave
ENCODING 204
SWIDTH 230 0
DWIDTH 2 0
BBX 1 7 0 0
BITMAP
80
80
80
80
80
80
80
ENDCHAR
STARTCHAR Iacute
ENCODING 205
SWIDTH 231 0
DWIDTH 2 0
BBX 1 7 1 0
BITMAP
80
80
80
80
80
80
80
ENDCHAR
STARTCHAR Icircumflex
ENCODING 206
SWIDTH 229 0
DWIDTH 2 0
BBX 2 7 0 0
BITMAP
80
C0
80
80
80
80
80
ENDCHAR
STARTCHAR Idieresis
ENCODING 207
SWIDTH 230 0
DWIDTH 2 0
BBX 2 7 0 0
BITMAP
C0
00
80
80
80
80
80
ENDCHAR
STARTCHAR Eth
ENCODING 208
SWIDTH 514 0
DWIDTH 4 0
BBX 4 5 0 0
BITMAP
F0
90
D0
90
F0
ENDCHAR
STARTCHAR Ntilde
ENCODING 209
SWIDTH 579 0
DWIDTH 5 0
BBX 3 7 1 0
BITMAP
C0
A0
A0
A0
E0
E0
A0
ENDCHAR
STARTCHAR Ograve
ENCODING 210
SWIDTH 553 0
DWIDTH 4 0
BBX 3 7 1 0
BITMAP
80
40
A0
A0
A0
A0
E0
ENDCHAR
STARTCHAR Oacute
ENCODING 211
SWIDTH 553 0
DWIDTH 4 0
BBX 3 7 1 0
BITMAP
40
40
A0
A0
A0
A0
E0
ENDCHAR
STARTCHAR Ocircumflex
ENCODING 212
SWIDTH 553 0
DWIDTH 4 0
BBX 3 7 1 0
BITMAP
40
C0
A0
A0
A0
A0
E0
ENDCHAR
STARTCHAR Otilde
ENCODING 213
SWIDTH 553 0
DWIDTH 4 0
BBX 3 7 1 0
BITMAP
C0
C0
A0
A0
A0
A0
E0
ENDCHAR
STARTCHAR Odieresis
ENCODING 214
SWIDTH 553 0
DWIDTH 4 0
BBX 3 7 1 0
BITMAP
C0
00
E0
A0
A0
A0
E0
ENDCHAR
STARTCHAR multiply
ENCODING 215
SWIDTH 493 0
DWIDTH 4 0
BBX 2 3 1 1
BITMAP
C0
80
C0
ENDCHAR
STARTCHAR Oslash
ENCODING 216
SWIDTH 559 0
DWIDTH 4 0
BBX 4 5 0 0
BITMAP
F0
90
B0
50
F0
ENDCHAR
STARTCHAR Ugrave
ENCODING 217
SWIDTH 552 0
DWIDTH 4 0
BBX 3 7 1 0
BITMAP
80
40
A0
A0
A0
A0
E0
ENDCHAR
STARTCHAR Uacute
ENCODING 218
SWIDTH 552 0
DWIDTH 4 0
BBX 3 7 1 0
BITMAP
40
40
A0
A0
A0
A0
E0
ENDCHAR
STARTCHAR Ucircumflex
ENCODING 219
SWIDTH 552 0
DWIDTH 4 0
BBX 3 7 1 0
BITMAP
40
C0
A0
A0
A0
A0
E0
ENDCHAR
STARTCHAR Udieresis
ENCODING 220
SWIDTH 552 0
DWIDTH 4 0
BBX 3 7 1 0
BITMAP
C0
00
A0
A0
A0
A0
E0
ENDCHAR
STARTCHAR Yacute
ENCODING 221
SWIDTH 493 0
DWIDTH 4 0
BBX 4 7 0 0
BITMAP
20
40
90
60
40
40
40
ENDCHAR
STARTCHAR Thorn
ENCODING 222
SWIDTH 501 0
DWIDTH 4 0
BBX 2 5 1 0
BITMAP
80
C0
C0
C0
80
ENDCHAR
STARTCHAR germandbls
ENCODING 223
SWIDTH 540 0
DWIDTH 4 0
BBX 3 5 1 0
BITMAP
E0
A0
C0
A0
E0
ENDCHAR
STARTCHAR agrave
ENCODING 224
SWIDTH 502 0
DWIDTH 4 0
BBX 2 6 1 0
BITMAP
80
00
C0
C0
C0
C0
ENDCHAR
STARTCHAR aacute
ENCODING 225
SWIDTH 502 0
DWIDTH 4 0
BBX 2 6 1 0
BITMAP
40
00
C0
C0
C0
C0
ENDCHAR
STARTCHAR acircumflex
ENCODING 226
SWIDTH 502 0
DWIDTH 4 0
BBX 2 6 1 0
BITMAP
40
80
C0
C0
C0
C0
ENDCHAR
STARTCHAR atilde
ENCODING 227
SWIDTH 504 0
DWIDTH 4 0
BBX 2 6 1 0
BITMAP
C0
C0
C0
C0
C0
C0
ENDCHAR
STARTCHAR adieresis
ENCODING 228
SWIDTH 502 0
DWIDTH 4 0
BBX 2 6 1 0
BITMAP
C0
00
C0
C0
C0
C0
ENDCHAR
STARTCHAR aring
ENCODING 229
SWIDTH 502 0
DWIDTH 4 0
BBX 2 6 1 0
BITMAP
40
C0
C0
C0
C0
C0
ENDCHAR
STARTCHAR ae
ENCODING 230
SWIDTH 795 0
DWIDTH 6 0
BBX 5 4 1 0
BITMAP
F8
C8
B8
F8
ENDCHAR
STARTCHAR ccedilla
ENCODING 231
SWIDTH 394 0
DWIDTH 3 0
BBX 2 6 1 -2
BITMAP
C0
80
80
C0
80
C0
ENDCHAR
STARTCHAR egrave
ENCODING 232
SWIDTH 492 0
DWIDTH 4 0
BBX 2 6 1 0
BITMAP
80
00
C0
C0
C0
C0
ENDCHAR
STARTCHAR eacute
ENCODING 233
SWIDTH 492 0
DWIDTH 4 0
BBX 2 6 1 0
BITMAP
40
00
C0
C0
C0
C0
ENDCHAR
STARTCHAR ecircumflex
ENCODING 234
SWIDTH 492 0
DWIDTH 4 0
BBX 2 6 1 0
BITMAP
80
40
C0
C0
C0
C0
ENDCHAR
STARTCHAR edieresis
ENCODING 235
SWIDTH 492 0
DWIDTH 4 0
BBX 2 6 1 0
BITMAP
C0
00
C0
C0
C0
C0
ENDCHAR
STARTCHAR igrave
ENCODING 236
SWIDTH 210 0
DWIDTH 2 0
BBX 1 6 0 0
BITMAP
80
00
80
80
80
80
ENDCHAR
STARTCHAR iacute
ENCODING 237
SWIDTH 208 0
DWIDTH 2 0
BBX 1 6 1 0
BITMAP
80
00
80
80
80
80
ENDCHAR
STARTCHAR icircumflex
ENCODING 238
SWIDTH 210 0
DWIDTH 2 0
BBX 2 6 0 0
BITMAP
80
40
80
80
80
80
ENDCHAR
STARTCHAR idieresis
ENCODING 239
SWIDTH 210 0
DWIDTH 2 0
BBX 2 6 0 0
BITMAP
C0
00
80
80
80
80
ENDCHAR
STARTCHAR eth
ENCODING 240
SWIDTH 488 0
DWIDTH 4 0
BBX 2 6 1 0
BITMAP
C0
C0
C0
C0
C0
C0
ENDCHAR
STARTCHAR ntilde
ENCODING 241
SWIDTH 507 0
DWIDTH 4 0
BBX 3 6 1 0
BITMAP
C0
C0
A0
A0
A0
A0
ENDCHAR
STARTCHAR ograve
ENCODING 242
SWIDTH 496 0
DWIDTH 4 0
BBX 2 6 1 0
BITMAP
80
00
C0
C0
C0
C0
ENDCHAR
STARTCHAR oacute
ENCODING 243
SWIDTH 496 0
DWIDTH 4 0
BBX 2 6 1 0
BITMAP
40
00
C0
C0
C0
C0
ENDCHAR
STARTCHAR ocircumflex
ENCODING 244
SWIDTH 496 0
DWIDTH 4 0
BBX 2 6 1 0
BITMAP
80
40
C0
C0
C0
C0
ENDCHAR
STARTCHAR otilde
ENCODING 245
SWIDTH 496 0
DWIDTH 4 0
BBX 2 6 1 0
BITMAP
C0
C0
C0
C0
C0
C0
ENDCHAR
STARTCHAR odieresis
ENCODING 246
SWIDTH 496 0
DWIDTH 4 0
BBX 2 6 1 0
BITMAP
C0
00
C0
C0
C0
C0
ENDCHAR
STARTCHAR divide
ENCODING 247
SWIDTH 510 0
DWIDTH 4 0
BBX 2 3 1 1
BITMAP
40
C0
40
ENDCHAR
STARTCHAR oslash
ENCODING 248
SWIDTH 521 0
DWIDTH 4 0
BBX 4 4 0 0
BITMAP
70
B0
50
F0
ENDCHAR
STARTCHAR ugrave
ENCODING 249
SWIDTH 507 0
DWIDTH 4 0
BBX 2 6 1 0
BITMAP
80
00
C0
C0
C0
C0
ENDCHAR
STARTCHAR uacute
ENCODING 250
SWIDTH 507 0
DWIDTH 4 0
BBX 2 6 1 0
BITMAP
40
00
C0
C0
C0
C0
ENDCHAR
STARTCHAR ucircumflex
ENCODING 251
SWIDTH 507 0
DWIDTH 4 0
BBX 2 6 1 0
BITMAP
C0
00
C0
C0
C0
C0
ENDCHAR
STARTCHAR udieresis
ENCODING 252
SWIDTH 507 0
DWIDTH 4 0
BBX 2 6 1 0
BITMAP
C0
00
C0
C0
C0
C0
ENDCHAR
STARTCHAR yacute
ENCODING 253
SWIDTH 459 0
DWIDTH 4 0
BBX 3 7 0 -1
BITMAP
20
00
A0
A0
60
40
C0
ENDCHAR
STARTCHAR thorn
ENCODING 254
SWIDTH 508 0
DWIDTH 4 0
BBX 3 7 1 -1
BITMAP
80
80
E0
A0
A0
E0
80
ENDCHAR
STARTCHAR ydieresis
ENCODING 255
SWIDTH 459 0
DWIDTH 4 0
BBX 3 7 0 -1
BITMAP
60
00
A0
A0
60
40
C0
ENDCHAR
STARTCHAR Amacron
ENCODING 256
SWIDTH 532 0
DWIDTH 4 0
BBX 4 7 0 0
BITMAP
60
00
20
60
50
70
90
ENDCHAR
STARTCHAR amacron
ENCODING 257
SWIDTH 502 0
DWIDTH 4 0
BBX 2 5 1 0
BITMAP
C0
C0
C0
C0
C0
ENDCHAR
STARTCHAR Abreve
ENCODING 258
SWIDTH 532 0
DWIDTH 4 0
BBX 4 6 0 0
BITMAP
60
20
60
50
70
90
ENDCHAR
STARTCHAR abreve
ENCODING 259
SWIDTH 502 0
DWIDTH 4 0
BBX 2 6 1 0
BITMAP
C0
40
C0
C0
C0
C0
ENDCHAR
STARTCHAR Aogonek
ENCODING 260
SWIDTH 532 0
DWIDTH 4 0
BBX 4 6 0 -1
BITMAP
20
60
50
70
90
10
ENDCHAR
STARTCHAR aogonek
ENCODING 261
SWIDTH 502 0
DWIDTH 4 0
BBX 2 5 1 -1
BITMAP
C0
C0
C0
C0
40
ENDCHAR
STARTCHAR Cacute
ENCODING 262
SWIDTH 542 0
DWIDTH 4 0
BBX 3 7 1 0
BITMAP
40
40
A0
A0
80
A0
E0
ENDCHAR
STARTCHAR cacute
ENCODING 263
SWIDTH 394 0
DWIDTH 3 0
BBX 2 6 1 0
BITMAP
40
00
C0
80
80
C0
ENDCHAR
STARTCHAR Cdotaccent
ENCODING 266
SWIDTH 542 0
DWIDTH 4 0
BBX 3 7 1 0
BITMAP
40
00
E0
A0
80
A0
E0
ENDCHAR
STARTCHAR cdotaccent
ENCODING 267
SWIDTH 394 0
DWIDTH 3 0
BBX 2 6 1 0
BITMAP
80
00
C0
80
80
C0
ENDCHAR
STARTCHAR Ccaron
ENCODING 268
SWIDTH 542 0
DWIDTH 4 0
BBX 3 7 1 0
BITMAP
C0
40
A0
A0
80
A0
E0
ENDCHAR
STARTCHAR ccaron
ENCODING 269
SWIDTH 394 0
DWIDTH 3 0
BBX 2 6 1 0
BITMAP
C0
00
C0
80
80
C0
ENDCHAR
STARTCHAR Dcaron
ENCODING 270
SWIDTH 557 0
DWIDTH 4 0
BBX 3 7 1 0
BITMAP
C0
40
A0
A0
A0
A0
E0
ENDCHAR
STARTCHAR dcaron
ENCODING 271
SWIDTH 534 0
DWIDTH 4 0
BBX 3 6 1 0
BITMAP
20
60
A0
A0
A0
E0
ENDCHAR
STARTCHAR Dcroat
ENCODING 272
SWIDTH 514 0
DWIDTH 4 0
BBX 4 5 0 0
BITMAP
F0
90
D0
90
F0
ENDCHAR
STARTCHAR dcroat
ENCODING 273
SWIDTH 539 0
DWIDTH 4 0
BBX 3 6 1 0
BITMAP
20
60
C0
A0
A0
E0
ENDCHAR
STARTCHAR Emacron
ENCODING 274
SWIDTH 481 0
DWIDTH 4 0
BBX 2 7 1 0
BITMAP
C0
00
C0
80
C0
80
C0
ENDCHAR
STARTCHAR emacron
ENCODING 275
SWIDTH 492 0
DWIDTH 4 0
BBX 2 5 1 0
BITMAP
C0
C0
C0
C0
C0
ENDCHAR
STARTCHAR Ebreve
ENCODING 276
SWIDTH 481 0
DWIDTH 4 0
BBX 2 6 1 0
BITMAP
C0
C0
80
C0
80
C0
ENDCHAR
STARTCHAR ebreve
ENCODING 277
SWIDTH 492 0
DWIDTH 4 0
BBX 2 6 1 0
BITMAP
C0
80
C0
C0
C0
C0
ENDCHAR
STARTCHAR Edotaccent
ENCODING 278
SWIDTH 496 0
DWIDTH 4 0
BBX 2 7 1 0
BITMAP
80
00
C0
80
C0
80
C0
ENDCHAR
STARTCHAR edotaccent
ENCODING 279
SWIDTH 492 0
DWIDTH 4 0
BBX 2 6 1 0
BITMAP
80
00
C0
C0
C0
C0
ENDCHAR
STARTCHAR Eogonek
ENCODING 280
SWIDTH 481 0
DWIDTH 4 0
BBX 2 6 1 -1
BITMAP
C0
80
C0
80
80
40
ENDCHAR
STARTCHAR eogonek
ENCODING 281
SWIDTH 492 0
DWIDTH 4 0
BBX 2 5 1 -1
BITMAP
C0
C0
C0
80
40
ENDCHAR
STARTCHAR Ecaron
ENCODING 282
SWIDTH 481 0
DWIDTH 4 0
BBX 2 7 1 0
BITMAP
C0
40
80
80
C0
80
C0
ENDCHAR
STARTCHAR ecaron
ENCODING 283
SWIDTH 492 0
DWIDTH 4 0
BBX 2 6 1 0
BITMAP
C0
00
C0
C0
C0
C0
ENDCHAR
STARTCHAR Gcircumflex
ENCODING 284
SWIDTH 539 0
DWIDTH 4 0
BBX 3 7 1 0
BITMAP
40
C0
A0
80
E0
A0
E0
ENDCHAR
STARTCHAR gcircumflex
ENCODING 285
SWIDTH 506 0
DWIDTH 4 0
BBX 2 7 1 -1
BITMAP
40
80
C0
C0
C0
C0
C0
ENDCHAR
STARTCHAR Gbreve
ENCODING 286
SWIDTH 539 0
DWIDTH 4 0
BBX 3 6 1 0
BITMAP
C0
A0
80
E0
A0
E0
ENDCHAR
STARTCHAR gbreve
ENCODING 287
SWIDTH 506 0
DWIDTH 4 0
BBX 2 7 1 -1
BITMAP
C0
40
C0
C0
C0
C0
C0
ENDCHAR
STARTCHAR Gdotaccent
ENCODING 288
SWIDTH 539 0
DWIDTH 4 0
BBX 3 7 1 0
BITMAP
40
00
E0
80
E0
A0
E0
ENDCHAR
STARTCHAR gdotaccent
ENCODING 289
SWIDTH 506 0
DWIDTH 4 0
BBX 2 7 1 -1
BITMAP
40
00
C0
C0
C0
C0
C0
ENDCHAR
STARTCHAR uni0122
ENCODING 290
SWIDTH 539 0
DWIDTH 4 0
BBX 3 7 1 -2
BITMAP
E0
80
E0
A0
A0
40
40
ENDCHAR
STARTCHAR uni0123
ENCODING 291
SWIDTH 506 0
DWIDTH 4 0
BBX 2 7 1 -1
BITMAP
40
40
C0
C0
C0
C0
C0
ENDCHAR
STARTCHAR hcircumflex
ENCODING 293
SWIDTH 507 0
DWIDTH 4 0
BBX 3 6 1 0
BITMAP
C0
80
E0
A0
A0
A0
ENDCHAR
STARTCHAR Hbar
ENCODING 294
SWIDTH 523 0
DWIDTH 4 0
BBX 4 5 0 0
BITMAP
90
F0
70
90
90
ENDCHAR
STARTCHAR hbar
ENCODING 295
SWIDTH 544 0
DWIDTH 4 0
BBX 4 6 0 0
BITMAP
40
E0
60
50
50
50
ENDCHAR
STARTCHAR Itilde
ENCODING 296
SWIDTH 230 0
DWIDTH 2 0
BBX 2 7 0 0
BITMAP
C0
C0
80
80
80
80
80
ENDCHAR
STARTCHAR itilde
ENCODING 297
SWIDTH 210 0
DWIDTH 2 0
BBX 2 6 0 0
BITMAP
C0
C0
80
80
80
80
ENDCHAR
STARTCHAR Imacron
ENCODING 298
SWIDTH 230 0
DWIDTH 2 0
BBX 2 7 0 0
BITMAP
C0
00
80
80
80
80
80
ENDCHAR
STARTCHAR imacron
ENCODING 299
SWIDTH 208 0
DWIDTH 2 0
BBX 2 5 0 0
BITMAP
C0
80
80
80
80
ENDCHAR
STARTCHAR Ibreve
ENCODING 300
SWIDTH 231 0
DWIDTH 2 0
BBX 2 6 0 0
BITMAP
C0
80
80
80
80
80
ENDCHAR
STARTCHAR ibreve
ENCODING 301
SWIDTH 211 0
DWIDTH 2 0
BBX 2 6 0 0
BITMAP
C0
80
80
80
80
80
ENDCHAR
STARTCHAR Iogonek
ENCODING 302
SWIDTH 230 0
DWIDTH 2 0
BBX 1 6 0 -1
BITMAP
80
80
80
80
80
80
ENDCHAR
STARTCHAR iogonek
ENCODING 303
SWIDTH 210 0
DWIDTH 2 0
BBX 1 7 0 -1
BITMAP
80
00
80
80
80
80
80
ENDCHAR
STARTCHAR Idotaccent
ENCODING 304
SWIDTH 230 0
DWIDTH 2 0
BBX 1 6 0 0
BITMAP
80
80
80
80
80
80
ENDCHAR
STARTCHAR dotlessi
ENCODING 305
SWIDTH 212 0
DWIDTH 2 0
BBX 1 4 0 0
BITMAP
80
80
80
80
ENDCHAR
STARTCHAR IJ
ENCODING 306
SWIDTH 721 0
DWIDTH 6 0
BBX 4 5 1 0
BITMAP
90
90
90
D0
F0
ENDCHAR
STARTCHAR ij
ENCODING 307
SWIDTH 419 0
DWIDTH 3 0
BBX 2 7 1 -1
BITMAP
C0
00
C0
C0
C0
C0
C0
ENDCHAR
STARTCHAR Jcircumflex
ENCODING 308
SWIDTH 494 0
DWIDTH 4 0
BBX 4 7 0 0
BITMAP
10
30
10
10
10
90
E0
ENDCHAR
STARTCHAR jcircumflex
ENCODING 309
SWIDTH 209 0
DWIDTH 2 0
BBX 2 7 0 -1
BITMAP
80
40
80
80
80
80
80
ENDCHAR
STARTCHAR uni0136
ENCODING 310
SWIDTH 530 0
DWIDTH 4 0
BBX 3 7 1 -2
BITMAP
A0
C0
80
C0
A0
40
40
ENDCHAR
STARTCHAR uni0137
ENCODING 311
SWIDTH 431 0
DWIDTH 3 0
BBX 2 8 1 -2
BITMAP
80
80
C0
80
80
C0
80
80
ENDCHAR
STARTCHAR Lacute
ENCODING 313
SWIDTH 451 0
DWIDTH 4 0
BBX 2 7 1 0
BITMAP
80
80
80
80
80
80
C0
ENDCHAR
STARTCHAR lacute
ENCODING 314
SWIDTH 207 0
DWIDTH 2 0
BBX 1 7 1 0
BITMAP
80
80
80
80
80
80
80
ENDCHAR
STARTCHAR uni013B
ENCODING 315
SWIDTH 451 0
DWIDTH 4 0
BBX 2 7 1 -2
BITMAP
80
80
80
80
80
40
80
ENDCHAR
STARTCHAR uni013C
ENCODING 316
SWIDTH 211 0
DWIDTH 2 0
BBX 1 8 0 -2
BITMAP
80
80
80
80
80
80
80
80
ENDCHAR
STARTCHAR Lcaron
ENCODING 317
SWIDTH 451 0
DWIDTH 4 0
BBX 2 5 1 0
BITMAP
C0
C0
80
80
C0
ENDCHAR
STARTCHAR lcaron
ENCODING 318
SWIDTH 274 0
DWIDTH 2 0
BBX 1 6 1 0
BITMAP
80
80
80
80
80
80
ENDCHAR
STARTCHAR Ldot
ENCODING 319
SWIDTH 500 0
DWIDTH 4 0
BBX 2 5 1 0
BITMAP
80
80
C0
80
C0
ENDCHAR
STARTCHAR ldot
ENCODING 320
SWIDTH 314 0
DWIDTH 3 0
BBX 1 6 1 0
BITMAP
80
80
80
80
80
80
ENDCHAR
STARTCHAR Lslash
ENCODING 321
SWIDTH 504 0
DWIDTH 4 0
BBX 3 5 0 0
BITMAP
80
40
80
80
E0
ENDCHAR
STARTCHAR lslash
ENCODING 322
SWIDTH 296 0
DWIDTH 2 0
BBX 2 6 0 0
BITMAP
40
40
C0
40
40
40
ENDCHAR
STARTCHAR Nacute
ENCODING 323
SWIDTH 579 0
DWIDTH 5 0
BBX 3 7 1 0
BITMAP
20
40
A0
A0
E0
E0
A0
ENDCHAR
STARTCHAR nacute
ENCODING 324
SWIDTH 507 0
DWIDTH 4 0
BBX 3 6 1 0
BITMAP
40
00
E0
A0
A0
A0
ENDCHAR
STARTCHAR uni0145
ENCODING 325
SWIDTH 579 0
DWIDTH 5 0
BBX 3 7 1 -2
BITMAP
A0
A0
E0
E0
A0
40
40
ENDCHAR
STARTCHAR uni0146
ENCODING 326
SWIDTH 505 0
DWIDTH 4 0
BBX 3 6 1 -2
BITMAP
E0
A0
A0
A0
40
80
ENDCHAR
STARTCHAR Ncaron
ENCODING 327
SWIDTH 579 0
DWIDTH 5 0
BBX 3 7 1 0
BITMAP
C0
40
A0
A0
E0
E0
A0
ENDCHAR
STARTCHAR ncaron
ENCODING 328
SWIDTH 507 0
DWIDTH 4 0
BBX 3 6 1 0
BITMAP
C0
00
E0
A0
A0
A0
ENDCHAR
STARTCHAR Eng
ENCODING 330
SWIDTH 519 0
DWIDTH 4 0
BBX 3 6 1 -1
BITMAP
A0
A0
E0
E0
A0
20
ENDCHAR
STARTCHAR eng
ENCODING 331
SWIDTH 507 0
DWIDTH 4 0
BBX 3 5 1 -1
BITMAP
E0
A0
A0
A0
60
ENDCHAR
STARTCHAR Omacron
ENCODING 332
SWIDTH 553 0
DWIDTH 4 0
BBX 3 7 1 0
BITMAP
C0
00
E0
A0
A0
A0
E0
ENDCHAR
STARTCHAR omacron
ENCODING 333
SWIDTH 496 0
DWIDTH 4 0
BBX 2 5 1 0
BITMAP
C0
C0
C0
C0
C0
ENDCHAR
STARTCHAR Obreve
ENCODING 334
SWIDTH 553 0
DWIDTH 4 0
BBX 3 6 1 0
BITMAP
C0
A0
A0
A0
A0
E0
ENDCHAR
STARTCHAR obreve
ENCODING 335
SWIDTH 496 0
DWIDTH 4 0
BBX 2 6 1 0
BITMAP
C0
80
C0
C0
C0
C0
ENDCHAR
STARTCHAR Ohungarumlaut
ENCODING 336
SWIDTH 553 0
DWIDTH 4 0
BBX 3 7 1 0
BITMAP
E0
00
E0
A0
A0
A0
E0
ENDCHAR
STARTCHAR ohungarumlaut
ENCODING 337
SWIDTH 496 0
DWIDTH 4 0
BBX 2 6 1 0
BITMAP
C0
00
C0
C0
C0
C0
ENDCHAR
STARTCHAR OE
ENCODING 338
SWIDTH 775 0
DWIDTH 6 0
BBX 5 5 1 0
BITMAP
F8
A0
B0
A0
F8
ENDCHAR
STARTCHAR oe
ENCODING 339
SWIDTH 812 0
DWIDTH 7 0
BBX 5 4 1 0
BITMAP
F8
A8
B8
F8
ENDCHAR
STARTCHAR Racute
ENCODING 340
SWIDTH 534 0
DWIDTH 4 0
BBX 3 7 1 0
BITMAP
40
80
E0
A0
C0
C0
A0
ENDCHAR
STARTCHAR racute
ENCODING 341
SWIDTH 313 0
DWIDTH 3 0
BBX 1 6 1 0
BITMAP
80
00
80
80
80
80
ENDCHAR
STARTCHAR uni0156
ENCODING 342
SWIDTH 534 0
DWIDTH 4 0
BBX 3 7 1 -2
BITMAP
E0
A0
C0
C0
A0
40
40
ENDCHAR
STARTCHAR uni0157
ENCODING 343
SWIDTH 313 0
DWIDTH 3 0
BBX 1 6 1 -2
BITMAP
80
80
80
80
80
80
ENDCHAR
STARTCHAR Rcaron
ENCODING 344
SWIDTH 534 0
DWIDTH 4 0
BBX 3 7 1 0
BITMAP
C0
40
A0
A0
C0
C0
A0
ENDCHAR
STARTCHAR rcaron
ENCODING 345
SWIDTH 313 0
DWIDTH 3 0
BBX 1 6 1 0
BITMAP
80
00
80
80
80
80
ENDCHAR
STARTCHAR Sacute
ENCODING 346
SWIDTH 562 0
DWIDTH 5 0
BBX 3 7 1 0
BITMAP
40
40
A0
80
40
A0
E0
ENDCHAR
STARTCHAR sacute
ENCODING 347
SWIDTH 427 0
DWIDTH 3 0
BBX 3 6 0 0
BITMAP
40
00
E0
C0
20
E0
ENDCHAR
STARTCHAR Scircumflex
ENCODING 348
SWIDTH 562 0
DWIDTH 5 0
BBX 3 7 1 0
BITMAP
40
C0
A0
80
40
A0
E0
ENDCHAR
STARTCHAR scircumflex
ENCODING 349
SWIDTH 427 0
DWIDTH 3 0
BBX 3 6 0 0
BITMAP
40
00
E0
C0
20
E0
ENDCHAR
STARTCHAR uni015E
ENCODING 350
SWIDTH 562 0
DWIDTH 5 0
BBX 3 7 1 -2
BITMAP
E0
80
40
A0
A0
40
40
ENDCHAR
STARTCHAR uni015F
ENCODING 351
SWIDTH 427 0
DWIDTH 3 0
BBX 3 6 0 -2
BITMAP
E0
C0
20
A0
40
40
ENDCHAR
STARTCHAR Scaron
ENCODING 352
SWIDTH 562 0
DWIDTH 5 0
BBX 3 7 1 0
BITMAP
C0
40
A0
80
40
A0
E0
ENDCHAR
STARTCHAR scaron
ENCODING 353
SWIDTH 427 0
DWIDTH 3 0
BBX 3 6 0 0
BITMAP
40
00
E0
C0
20
E0
ENDCHAR
STARTCHAR uni0162
ENCODING 354
SWIDTH 420 0
DWIDTH 3 0
BBX 3 7 0 -2
BITMAP
E0
40
40
40
40
40
40
ENDCHAR
STARTCHAR uni0163
ENCODING 355
SWIDTH 347 0
DWIDTH 3 0
BBX 2 7 0 -2
BITMAP
40
C0
40
40
40
40
40
ENDCHAR
STARTCHAR Tcaron
ENCODING 356
SWIDTH 420 0
DWIDTH 3 0
BBX 3 7 0 0
BITMAP
40
40
E0
40
40
40
40
ENDCHAR
STARTCHAR tcaron
ENCODING 357
SWIDTH 396 0
DWIDTH 3 0
BBX 3 5 0 0
BITMAP
60
E0
40
40
40
ENDCHAR
STARTCHAR Tbar
ENCODING 358
SWIDTH 501 0
DWIDTH 4 0
BBX 3 5 0 0
BITMAP
E0
40
60
40
40
ENDCHAR
STARTCHAR tbar
ENCODING 359
SWIDTH 350 0
DWIDTH 3 0
BBX 2 5 0 0
BITMAP
40
C0
C0
40
40
ENDCHAR
STARTCHAR Utilde
ENCODING 360
SWIDTH 552 0
DWIDTH 4 0
BBX 3 7 1 0
BITMAP
C0
C0
A0
A0
A0
A0
E0
ENDCHAR
STARTCHAR utilde
ENCODING 361
SWIDTH 507 0
DWIDTH 4 0
BBX 2 6 1 0
BITMAP
C0
C0
C0
C0
C0
C0
ENDCHAR
STARTCHAR Umacron
ENCODING 362
SWIDTH 552 0
DWIDTH 4 0
BBX 3 7 1 0
BITMAP
C0
00
A0
A0
A0
A0
E0
ENDCHAR
STARTCHAR umacron
ENCODING 363
SWIDTH 507 0
DWIDTH 4 0
BBX 2 5 1 0
BITMAP
C0
C0
C0
C0
C0
ENDCHAR
STARTCHAR Ubreve
ENCODING 364
SWIDTH 552 0
DWIDTH 4 0
BBX 3 6 1 0
BITMAP
C0
A0
A0
A0
A0
E0
ENDCHAR
STARTCHAR ubreve
ENCODING 365
SWIDTH 507 0
DWIDTH 4 0
BBX 2 6 1 0
BITMAP
C0
40
C0
C0
C0
C0
ENDCHAR
STARTCHAR Uring
ENCODING 366
SWIDTH 552 0
DWIDTH 4 0
BBX 3 7 1 0
BITMAP
40
00
A0
A0
A0
A0
E0
ENDCHAR
STARTCHAR uring
ENCODING 367
SWIDTH 507 0
DWIDTH 4 0
BBX 2 6 1 0
BITMAP
C0
80
C0
C0
C0
C0
ENDCHAR
STARTCHAR Uhungarumlaut
ENCODING 368
SWIDTH 552 0
DWIDTH 4 0
BBX 3 7 1 0
BITMAP
C0
00
A0
A0
A0
A0
E0
ENDCHAR
STARTCHAR uhungarumlaut
ENCODING 369
SWIDTH 507 0
DWIDTH 4 0
BBX 2 6 1 0
BITMAP
C0
00
C0
C0
C0
C0
ENDCHAR
STARTCHAR Uogonek
ENCODING 370
SWIDTH 552 0
DWIDTH 4 0
BBX 3 6 1 -1
BITMAP
A0
A0
A0
A0
A0
40
ENDCHAR
STARTCHAR uogonek
ENCODING 371
SWIDTH 503 0
DWIDTH 4 0
BBX 2 5 1 -1
BITMAP
C0
C0
C0
C0
40
ENDCHAR
STARTCHAR Wcircumflex
ENCODING 372
SWIDTH 795 0
DWIDTH 6 0
BBX 6 7 0 0
BITMAP
10
30
94
94
74
48
48
ENDCHAR
STARTCHAR wcircumflex
ENCODING 373
SWIDTH 682 0
DWIDTH 5 0
BBX 5 6 0 0
BITMAP
20
00
A8
A8
58
50
ENDCHAR
STARTCHAR Ycircumflex
ENCODING 374
SWIDTH 493 0
DWIDTH 4 0
BBX 4 7 0 0
BITMAP
40
60
90
60
40
40
40
ENDCHAR
STARTCHAR ycircumflex
ENCODING 375
SWIDTH 459 0
DWIDTH 4 0
BBX 3 7 0 -1
BITMAP
40
20
A0
A0
60
40
C0
ENDCHAR
STARTCHAR Ydieresis
ENCODING 376
SWIDTH 493 0
DWIDTH 4 0
BBX 4 7 0 0
BITMAP
60
00
90
60
40
40
40
ENDCHAR
STARTCHAR Zacute
ENCODING 377
SWIDTH 482 0
DWIDTH 4 0
BBX 4 7 0 0
BITMAP
20
20
D0
20
40
40
F0
ENDCHAR
STARTCHAR zacute
ENCODING 378
SWIDTH 405 0
DWIDTH 3 0
BBX 3 6 0 0
BITMAP
20
00
E0
40
40
E0
ENDCHAR
STARTCHAR Zdotaccent
ENCODING 379
SWIDTH 482 0
DWIDTH 4 0
BBX 4 7 0 0
BITMAP
20
00
F0
20
40
40
F0
ENDCHAR
STARTCHAR zdotaccent
ENCODING 380
SWIDTH 405 0
DWIDTH 3 0
BBX 3 6 0 0
BITMAP
40
00
E0
40
40
E0
ENDCHAR
STARTCHAR Zcaron
ENCODING 381
SWIDTH 482 0
DWIDTH 4 0
BBX 4 7 0 0
BITMAP
60
20
D0
20
40
40
F0
ENDCHAR
STARTCHAR zcaron
ENCODING 382
SWIDTH 405 0
DWIDTH 3 0
BBX 3 6 0 0
BITMAP
60
00
E0
40
40
E0
ENDCHAR
STARTCHAR florin
ENCODING 402
SWIDTH 494 0
DWIDTH 4 0
BBX 4 7 0 -1
BITMAP
30
20
60
40
40
40
C0
ENDCHAR
STARTCHAR AEacute
ENCODING 508
SWIDTH 773 0
DWIDTH 6 0
BBX 6 7 0 0
BITMAP
08
10
2C
20
58
60
9C
ENDCHAR
STARTCHAR aeacute
ENCODING 509
SWIDTH 795 0
DWIDTH 6 0
BBX 5 6 1 0
BITMAP
20
00
F8
C8
B8
F8
ENDCHAR
STARTCHAR Oslashacute
ENCODING 510
SWIDTH 558 0
DWIDTH 4 0
BBX 4 7 0 0
BITMAP
20
20
D0
90
B0
50
F0
ENDCHAR
STARTCHAR oslashacute
ENCODING 511
SWIDTH 521 0
DWIDTH 4 0
BBX 4 6 0 0
BITMAP
20
00
70
B0
50
F0
ENDCHAR
STARTCHAR uni0218
ENCODING 536
SWIDTH 562 0
DWIDTH 5 0
BBX 3 7 1 -2
BITMAP
E0
80
40
A0
A0
40
40
ENDCHAR
STARTCHAR uni0219
ENCODING 537
SWIDTH 427 0
DWIDTH 3 0
BBX 3 6 0 -2
BITMAP
E0
C0
20
A0
40
40
ENDCHAR
STARTCHAR circumflex
ENCODING 710
SWIDTH 326 0
DWIDTH 3 0
BBX 1 1 1 5
BITMAP
80
ENDCHAR
STARTCHAR caron
ENCODING 711
SWIDTH 326 0
DWIDTH 3 0
BBX 1 1 1 5
BITMAP
80
ENDCHAR
STARTCHAR uni02C9
ENCODING 713
SWIDTH 358 0
DWIDTH 3 0
BBX 1 1 1 4
BITMAP
80
ENDCHAR
STARTCHAR breve
ENCODING 728
SWIDTH 332 0
DWIDTH 3 0
BBX 1 1 1 5
BITMAP
80
ENDCHAR
STARTCHAR dotaccent
ENCODING 729
SWIDTH 183 0
DWIDTH 1 0
BBX 1 1 0 5
BITMAP
80
ENDCHAR
STARTCHAR ring
ENCODING 730
SWIDTH 297 0
DWIDTH 2 0
BBX 2 2 0 4
BITMAP
40
C0
ENDCHAR
STARTCHAR ogonek
ENCODING 731
SWIDTH 243 0
DWIDTH 2 0
BBX 1 1 0 -1
BITMAP
80
ENDCHAR
STARTCHAR tilde
ENCODING 732
SWIDTH 369 0
DWIDTH 3 0
BBX 1 1 1 5
BITMAP
80
ENDCHAR
STARTCHAR hungarumlaut
ENCODING 733
SWIDTH 377 0
DWIDTH 3 0
BBX 2 1 0 5
BITMAP
C0
ENDCHAR
STARTCHAR Mu
ENCODING 924
SWIDTH 527 0
DWIDTH 4 0
BBX 3 5 1 -1
BITMAP
A0
A0
A0
E0
80
ENDCHAR
STARTCHAR Pi
ENCODING 928
SWIDTH 605 0
DWIDTH 5 0
BBX 5 5 0 0
BITMAP
F8
50
50
50
50
ENDCHAR
STARTCHAR Sigma
ENCODING 931
SWIDTH 481 0
DWIDTH 4 0
BBX 3 5 0 0
BITMAP
E0
40
20
40
E0
ENDCHAR
STARTCHAR uni0901
ENCODING 2305
SWIDTH 0 0
DWIDTH 0 0
BBX 2 1 -2 5
BITMAP
C0
ENDCHAR
STARTCHAR uni0902
ENCODING 2306
SWIDTH 0 0
DWIDTH 0 0
BBX 1 1 -1 6
BITMAP
80
ENDCHAR
STARTCHAR uni0903
ENCODING 2307
SWIDTH 247 0
DWIDTH 2 0
BBX 1 3 0 0
BITMAP
80
00
80
ENDCHAR
STARTCHAR uni0905
ENCODING 2309
SWIDTH 598 0
DWIDTH 5 0
BBX 5 5 0 0
BITMAP
78
30
70
30
F0
ENDCHAR
STARTCHAR uni0906
ENCODING 2310
SWIDTH 828 0
DWIDTH 7 0
BBX 7 5 0 0
BITMAP
7E
34
74
34
F4
ENDCHAR
STARTCHAR uni0907
ENCODING 2311
SWIDTH 478 0
DWIDTH 4 0
BBX 4 6 0 -1
BITMAP
F0
60
80
60
F0
80
ENDCHAR
STARTCHAR uni0908
ENCODING 2312
SWIDTH 478 0
DWIDTH 4 0
BBX 4 8 0 -1
BITMAP
30
20
F0
60
80
60
F0
80
ENDCHAR
STARTCHAR uni0909
ENCODING 2313
SWIDTH 471 0
DWIDTH 4 0
BBX 4 5 0 0
BITMAP
F0
20
60
90
E0
ENDCHAR
STARTCHAR uni090A
ENCODING 2314
SWIDTH 661 0
DWIDTH 5 0
BBX 5 5 0 0
BITMAP
F8
20
78
98
E8
ENDCHAR
STARTCHAR uni090B
ENCODING 2315
SWIDTH 753 0
DWIDTH 6 0
BBX 6 5 0 0
BITMAP
FC
6C
B4
B8
5C
ENDCHAR
STARTCHAR uni090C
ENCODING 2316
SWIDTH 676 0
DWIDTH 5 0
BBX 6 7 0 -2
BITMAP
FC
58
A8
A8
C8
10
0C
ENDCHAR
STARTCHAR uni090D
ENCODING 2317
SWIDTH 521 0
DWIDTH 4 0
BBX 4 7 0 0
BITMAP
50
60
90
90
A0
80
60
ENDCHAR
STARTCHAR uni090E
ENCODING 2318
SWIDTH 522 0
DWIDTH 4 0
BBX 4 7 0 0
BITMAP
40
30
F0
90
A0
80
60
ENDCHAR
STARTCHAR uni090F
ENCODING 2319
SWIDTH 526 0
DWIDTH 4 0
BBX 4 5 0 0
BITMAP
F0
90
A0
80
60
ENDCHAR
STARTCHAR uni0910
ENCODING 2320
SWIDTH 526 0
DWIDTH 4 0
BBX 4 7 0 0
BITMAP
20
10
F0
90
A0
80
60
ENDCHAR
STARTCHAR uni0911
ENCODING 2321
SWIDTH 829 0
DWIDTH 7 0
BBX 7 6 0 0
BITMAP
0C
76
34
74
34
F4
ENDCHAR
STARTCHAR uni0912
ENCODING 2322
SWIDTH 828 0
DWIDTH 7 0
BBX 7 7 0 0
BITMAP
08
04
7E
34
74
34
F4
ENDCHAR
STARTCHAR uni0913
ENCODING 2323
SWIDTH 829 0
DWIDTH 7 0
BBX 7 7 0 0
BITMAP
08
04
7E
34
74
34
F4
ENDCHAR
STARTCHAR uni0914
ENCODING 2324
SWIDTH 829 0
DWIDTH 7 0
BBX 7 7 0 0
BITMAP
0C
04
7E
34
74
34
F4
ENDCHAR
STARTCHAR uni0915
ENCODING 2325
SWIDTH 725 0
DWIDTH 6 0
BBX 6 5 0 0
BITMAP
FC
58
A4
A4
68
ENDCHAR
STARTCHAR uni0916
ENCODING 2326
SWIDTH 696 0
DWIDTH 6 0
BBX 6 5 0 0
BITMAP
FC
58
E8
58
48
ENDCHAR
STARTCHAR uni0917
ENCODING 2327
SWIDTH 494 0
DWIDTH 4 0
BBX 4 5 0 0
BITMAP
F0
50
50
90
10
ENDCHAR
STARTCHAR uni0918
ENCODING 2328
SWIDTH 559 0
DWIDTH 4 0
BBX 5 5 0 0
BITMAP
F8
90
50
90
70
ENDCHAR
STARTCHAR uni0919
ENCODING 2329
SWIDTH 505 0
DWIDTH 4 0
BBX 4 5 0 0
BITMAP
F0
60
90
60
F0
ENDCHAR
STARTCHAR uni091A
ENCODING 2330
SWIDTH 563 0
DWIDTH 5 0
BBX 5 5 0 0
BITMAP
F8
F0
50
70
10
ENDCHAR
STARTCHAR uni091B
ENCODING 2331
SWIDTH 581 0
DWIDTH 5 0
BBX 5 5 0 0
BITMAP
F8
90
50
90
F0
ENDCHAR
STARTCHAR uni091C
ENCODING 2332
SWIDTH 547 0
DWIDTH 4 0
BBX 4 5 0 0
BITMAP
F0
70
30
30
D0
ENDCHAR
STARTCHAR uni091D
ENCODING 2333
SWIDTH 664 0
DWIDTH 5 0
BBX 5 5 0 0
BITMAP
F8
68
78
A8
E8
ENDCHAR
STARTCHAR uni091E
ENCODING 2334
SWIDTH 592 0
DWIDTH 5 0
BBX 5 5 0 0
BITMAP
F8
D0
30
30
D0
ENDCHAR
STARTCHAR uni091F
ENCODING 2335
SWIDTH 485 0
DWIDTH 4 0
BBX 4 5 0 0
BITMAP
F0
60
80
90
F0
ENDCHAR
STARTCHAR uni0920
ENCODING 2336
SWIDTH 512 0
DWIDTH 4 0
BBX 4 5 0 0
BITMAP
F0
60
90
90
F0
ENDCHAR
STARTCHAR uni0921
ENCODING 2337
SWIDTH 475 0
DWIDTH 4 0
BBX 4 5 0 0
BITMAP
F0
60
80
60
F0
ENDCHAR
STARTCHAR uni0922
ENCODING 2338
SWIDTH 485 0
DWIDTH 4 0
BBX 4 5 0 0
BITMAP
F0
60
80
A0
F0
ENDCHAR
STARTCHAR uni0923
ENCODING 2339
SWIDTH 681 0
DWIDTH 5 0
BBX 6 5 0 0
BITMAP
FC
A8
A8
68
08
ENDCHAR
STARTCHAR uni0924
ENCODING 2340
SWIDTH 496 0
DWIDTH 4 0
BBX 4 5 0 0
BITMAP
F0
60
90
90
D0
ENDCHAR
STARTCHAR uni0925
ENCODING 2341
SWIDTH 593 0
DWIDTH 5 0
BBX 5 5 0 0
BITMAP
78
B0
D0
70
10
ENDCHAR
STARTCHAR uni0926
ENCODING 2342
SWIDTH 489 0
DWIDTH 4 0
BBX 4 5 0 0
BITMAP
F0
60
80
90
60
ENDCHAR
STARTCHAR uni0927
ENCODING 2343
SWIDTH 560 0
DWIDTH 4 0
BBX 5 5 0 0
BITMAP
D8
90
50
90
70
ENDCHAR
STARTCHAR uni0928
ENCODING 2344
SWIDTH 473 0
DWIDTH 4 0
BBX 4 5 0 0
BITMAP
F0
20
60
A0
20
ENDCHAR
STARTCHAR uni0928093C
ENCODING 2345
SWIDTH 473 0
DWIDTH 4 0
BBX 4 5 0 0
BITMAP
F0
20
60
A0
60
ENDCHAR
STARTCHAR uni092A
ENCODING 2346
SWIDTH 503 0
DWIDTH 4 0
BBX 4 5 0 0
BITMAP
F0
90
90
60
10
ENDCHAR
STARTCHAR uni092B
ENCODING 2347
SWIDTH 739 0
DWIDTH 6 0
BBX 6 5 0 0
BITMAP
FC
98
94
64
18
ENDCHAR
STARTCHAR uni092C
ENCODING 2348
SWIDTH 491 0
DWIDTH 4 0
BBX 4 5 0 0
BITMAP
F0
60
60
A0
60
ENDCHAR
STARTCHAR uni092D
ENCODING 2349
SWIDTH 491 0
DWIDTH 4 0
BBX 4 5 0 0
BITMAP
B0
A0
60
A0
20
ENDCHAR
STARTCHAR uni092E
ENCODING 2350
SWIDTH 490 0
DWIDTH 4 0
BBX 4 5 0 0
BITMAP
F0
A0
60
A0
20
ENDCHAR
STARTCHAR uni092F
ENCODING 2351
SWIDTH 564 0
DWIDTH 5 0
BBX 5 5 0 0
BITMAP
F8
50
50
70
10
ENDCHAR
STARTCHAR uni0930
ENCODING 2352
SWIDTH 337 0
DWIDTH 3 0
BBX 3 5 0 0
BITMAP
E0
40
C0
40
40
ENDCHAR
STARTCHAR uni0930093C
ENCODING 2353
SWIDTH 347 0
DWIDTH 3 0
BBX 3 6 0 -1
BITMAP
E0
40
C0
40
40
80
ENDCHAR
STARTCHAR uni0932
ENCODING 2354
SWIDTH 676 0
DWIDTH 5 0
BBX 6 5 0 0
BITMAP
FC
58
A8
A8
C8
ENDCHAR
STARTCHAR uni0933
ENCODING 2355
SWIDTH 672 0
DWIDTH 5 0
BBX 6 5 0 0
BITMAP
FC
50
A8
A8
F8
ENDCHAR
STARTCHAR uni0933093C
ENCODING 2356
SWIDTH 672 0
DWIDTH 5 0
BBX 6 6 0 -1
BITMAP
FC
50
A8
A8
B8
40
ENDCHAR
STARTCHAR uni0935
ENCODING 2357
SWIDTH 484 0
DWIDTH 4 0
BBX 4 5 0 0
BITMAP
F0
60
A0
A0
60
ENDCHAR
STARTCHAR uni0936
ENCODING 2358
SWIDTH 614 0
DWIDTH 5 0
BBX 5 5 0 0
BITMAP
F8
B0
D0
50
50
ENDCHAR
STARTCHAR uni0937
ENCODING 2359
SWIDTH 505 0
DWIDTH 4 0
BBX 4 5 0 0
BITMAP
F0
D0
A0
60
10
ENDCHAR
STARTCHAR uni0938
ENCODING 2360
SWIDTH 575 0
DWIDTH 5 0
BBX 5 5 0 0
BITMAP
F8
50
F0
90
50
ENDCHAR
STARTCHAR uni0939
ENCODING 2361
SWIDTH 481 0
DWIDTH 4 0
BBX 4 6 0 -1
BITMAP
F0
60
60
90
80
60
ENDCHAR
STARTCHAR uni093C
ENCODING 2364
SWIDTH 0 0
DWIDTH 0 0
BBX 1 1 -2 -1
BITMAP
80
ENDCHAR
STARTCHAR uni093D
ENCODING 2365
SWIDTH 529 0
DWIDTH 4 0
BBX 3 5 1 0
BITMAP
C0
80
40
20
E0
ENDCHAR
STARTCHAR uni093E
ENCODING 2366
SWIDTH 231 0
DWIDTH 2 0
BBX 2 5 0 0
BITMAP
C0
80
80
80
80
ENDCHAR
STARTCHAR uni093F
ENCODING 2367
SWIDTH 231 0
DWIDTH 2 0
BBX 5 7 0 0
BITMAP
78
88
C0
80
80
80
80
ENDCHAR
STARTCHAR uni0940
ENCODING 2368
SWIDTH 231 0
DWIDTH 2 0
BBX 3 7 -1 0
BITMAP
C0
C0
60
40
40
40
40
ENDCHAR
STARTCHAR uni0941
ENCODING 2369
SWIDTH 0 0
DWIDTH 0 0
BBX 3 2 -3 -2
BITMAP
A0
E0
ENDCHAR
STARTCHAR uni0942
ENCODING 2370
SWIDTH 0 0
DWIDTH 0 0
BBX 3 2 -2 -2
BITMAP
C0
A0
ENDCHAR
STARTCHAR uni0943
ENCODING 2371
SWIDTH 0 0
DWIDTH 0 0
BBX 2 2 -2 -2
BITMAP
80
C0
ENDCHAR
STARTCHAR uni0945
ENCODING 2373
SWIDTH 0 0
DWIDTH 0 0
BBX 2 1 -2 5
BITMAP
C0
ENDCHAR
STARTCHAR uni0946
ENCODING 2374
SWIDTH 0 0
DWIDTH 0 0
BBX 2 2 -3 5
BITMAP
80
40
ENDCHAR
STARTCHAR uni0947
ENCODING 2375
SWIDTH 0 0
DWIDTH 0 0
BBX 1 2 -2 5
BITMAP
80
80
ENDCHAR
STARTCHAR uni0948
ENCODING 2376
SWIDTH 0 0
DWIDTH 0 0
BBX 2 2 -3 5
BITMAP
C0
40
ENDCHAR
STARTCHAR uni0949
ENCODING 2377
SWIDTH 231 0
DWIDTH 2 0
BBX 2 6 0 0
BITMAP
C0
80
80
80
80
80
ENDCHAR
STARTCHAR uni094A
ENCODING 2378
SWIDTH 231 0
DWIDTH 2 0
BBX 3 7 -1 0
BITMAP
80
40
60
40
40
40
40
ENDCHAR
STARTCHAR uni094B
ENCODING 2379
SWIDTH 231 0
DWIDTH 2 0
BBX 3 7 -1 0
BITMAP
80
40
60
40
40
40
40
ENDCHAR
STARTCHAR uni094C
ENCODING 2380
SWIDTH 231 0
DWIDTH 2 0
BBX 3 7 -1 0
BITMAP
C0
40
60
40
40
40
40
ENDCHAR
STARTCHAR uni094D
ENCODING 2381
SWIDTH 0 0
DWIDTH 0 0
BBX 1 2 -1 -2
BITMAP
80
80
ENDCHAR
STARTCHAR uni0950
ENCODING 2384
SWIDTH 847 0
DWIDTH 7 0
BBX 6 6 0 0
BITMAP
08
64
2C
44
BC
EC
ENDCHAR
STARTCHAR uni0951
ENCODING 2385
SWIDTH 0 0
DWIDTH 0 0
BBX 1 1 -1 6
BITMAP
80
ENDCHAR
STARTCHAR uni0952
ENCODING 2386
SWIDTH 0 0
DWIDTH 0 0
BBX 2 1 -3 -1
BITMAP
C0
ENDCHAR
STARTCHAR uni0953
ENCODING 2387
SWIDTH 0 0
DWIDTH 0 0
BBX 1 1 -2 6
BITMAP
80
ENDCHAR
STARTCHAR uni0954
ENCODING 2388
SWIDTH 0 0
DWIDTH 0 0
BBX 1 1 -1 6
BITMAP
80
ENDCHAR
STARTCHAR uni0915093C
ENCODING 2392
SWIDTH 725 0
DWIDTH 6 0
BBX 6 6 0 -1
BITMAP
FC
58
A4
A4
68
40
ENDCHAR
STARTCHAR uni0916093C
ENCODING 2393
SWIDTH 696 0
DWIDTH 6 0
BBX 6 6 0 -1
BITMAP
FC
58
E8
58
48
80
ENDCHAR
STARTCHAR uni0917093C
ENCODING 2394
SWIDTH 494 0
DWIDTH 4 0
BBX 4 6 0 -1
BITMAP
F0
50
50
90
10
80
ENDCHAR
STARTCHAR uni091C093C
ENCODING 2395
SWIDTH 547 0
DWIDTH 4 0
BBX 4 6 0 -1
BITMAP
F0
70
30
30
D0
80
ENDCHAR
STARTCHAR uni0921093C
ENCODING 2396
SWIDTH 475 0
DWIDTH 4 0
BBX 4 6 0 -1
BITMAP
F0
60
80
60
B0
40
ENDCHAR
STARTCHAR uni0922093C
ENCODING 2397
SWIDTH 485 0
DWIDTH 4 0
BBX 4 6 0 -1
BITMAP
F0
60
80
A0
D0
20
ENDCHAR
STARTCHAR uni092B093C
ENCODING 2398
SWIDTH 739 0
DWIDTH 6 0
BBX 6 6 0 -1
BITMAP
FC
98
94
64
18
40
ENDCHAR
STARTCHAR uni092F093C
ENCODING 2399
SWIDTH 564 0
DWIDTH 5 0
BBX 5 6 0 -1
BITMAP
F8
50
50
70
10
40
ENDCHAR
STARTCHAR uni0960
ENCODING 2400
SWIDTH 753 0
DWIDTH 6 0
BBX 6 6 0 -1
BITMAP
FC
68
98
28
58
0C
ENDCHAR
STARTCHAR uni0961
ENCODING 2401
SWIDTH 676 0
DWIDTH 5 0
BBX 6 7 0 -2
BITMAP
FC
58
A8
88
D0
08
18
ENDCHAR
STARTCHAR uni0964
ENCODING 2404
SWIDTH 286 0
DWIDTH 2 0
BBX 1 5 1 0
BITMAP
80
80
80
80
80
ENDCHAR
STARTCHAR uni0965
ENCODING 2405
SWIDTH 518 0
DWIDTH 4 0
BBX 2 5 1 0
BITMAP
C0
C0
C0
C0
C0
ENDCHAR
STARTCHAR uni0966
ENCODING 2406
SWIDTH 519 0
DWIDTH 4 0
BBX 3 5 1 0
BITMAP
E0
A0
A0
A0
E0
ENDCHAR
STARTCHAR uni0967
ENCODING 2407
SWIDTH 288 0
DWIDTH 2 0
BBX 2 5 0 0
BITMAP
C0
40
40
40
40
ENDCHAR
STARTCHAR uni0968
ENCODING 2408
SWIDTH 453 0
DWIDTH 4 0
BBX 3 5 0 0
BITMAP
E0
A0
20
C0
E0
ENDCHAR
STARTCHAR uni0969
ENCODING 2409
SWIDTH 489 0
DWIDTH 4 0
BBX 3 5 0 0
BITMAP
E0
20
20
A0
E0
ENDCHAR
STARTCHAR uni096A
ENCODING 2410
SWIDTH 453 0
DWIDTH 4 0
BBX 4 5 0 0
BITMAP
20
60
A0
F0
20
ENDCHAR
STARTCHAR uni096B
ENCODING 2411
SWIDTH 480 0
DWIDTH 4 0
BBX 2 5 1 0
BITMAP
C0
C0
40
C0
C0
ENDCHAR
STARTCHAR uni096C
ENCODING 2412
SWIDTH 495 0
DWIDTH 4 0
BBX 3 5 1 0
BITMAP
C0
80
C0
A0
E0
ENDCHAR
STARTCHAR uni096D
ENCODING 2413
SWIDTH 380 0
DWIDTH 3 0
BBX 3 5 0 0
BITMAP
E0
20
40
40
40
ENDCHAR
STARTCHAR uni096E
ENCODING 2414
SWIDTH 523 0
DWIDTH 4 0
BBX 3 5 1 0
BITMAP
E0
A0
C0
A0
E0
ENDCHAR
STARTCHAR uni096F
ENCODING 2415
SWIDTH 493 0
DWIDTH 4 0
BBX 3 5 0 0
BITMAP
E0
A0
60
20
60
ENDCHAR
STARTCHAR uni0970
ENCODING 2416
SWIDTH 391 0
DWIDTH 3 0
BBX 3 3 0 1
BITMAP
40
A0
40
ENDCHAR
STARTCHAR uni0972
ENCODING 2418
SWIDTH 598 0
DWIDTH 5 0
BBX 5 6 0 0
BITMAP
18
70
30
70
30
F0
ENDCHAR
STARTCHAR Wgrave
ENCODING 7808
SWIDTH 795 0
DWIDTH 6 0
BBX 6 7 0 0
BITMAP
20
10
94
94
74
48
48
ENDCHAR
STARTCHAR wgrave
ENCODING 7809
SWIDTH 682 0
DWIDTH 5 0
BBX 5 6 0 0
BITMAP
20
00
A8
A8
58
50
ENDCHAR
STARTCHAR Wacute
ENCODING 7810
SWIDTH 795 0
DWIDTH 6 0
BBX 6 7 0 0
BITMAP
10
10
94
94
74
48
48
ENDCHAR
STARTCHAR wacute
ENCODING 7811
SWIDTH 682 0
DWIDTH 5 0
BBX 5 6 0 0
BITMAP
10
00
A8
A8
58
50
ENDCHAR
STARTCHAR Wdieresis
ENCODING 7812
SWIDTH 795 0
DWIDTH 6 0
BBX 6 7 0 0
BITMAP
30
00
94
94
74
48
48
ENDCHAR
STARTCHAR wdieresis
ENCODING 7813
SWIDTH 682 0
DWIDTH 5 0
BBX 5 6 0 0
BITMAP
30
00
A8
A8
58
50
ENDCHAR
STARTCHAR uni1E9E
ENCODING 7838
SWIDTH 542 0
DWIDTH 4 0
BBX 3 5 1 0
BITMAP
E0
C0
E0
A0
E0
ENDCHAR
STARTCHAR Ygrave
ENCODING 7922
SWIDTH 493 0
DWIDTH 4 0
BBX 4 7 0 0
BITMAP
40
20
90
60
40
40
40
ENDCHAR
STARTCHAR ygrave
ENCODING 7923
SWIDTH 459 0
DWIDTH 4 0
BBX 3 7 0 -1
BITMAP
40
00
A0
A0
60
40
C0
ENDCHAR
STARTCHAR uni200B
ENCODING 8203
SWIDTH 0 0
DWIDTH 0 0
BBX 1 1 0 0
BITMAP
00
ENDCHAR
STARTCHAR uni200C
ENCODING 8204
SWIDTH 0 0
DWIDTH 0 0
BBX 1 8 0 -2
BITMAP
80
80
80
80
80
80
80
80
ENDCHAR
STARTCHAR uni200D
ENCODING 8205
SWIDTH 0 0
DWIDTH 0 0
BBX 2 8 -1 -2
BITMAP
C0
C0
80
80
80
80
80
80
ENDCHAR
STARTCHAR endash
ENCODING 8211
SWIDTH 408 0
DWIDTH 3 0
BBX 3 1 0 2
BITMAP
E0
ENDCHAR
STARTCHAR emdash
ENCODING 8212
SWIDTH 537 0
DWIDTH 4 0
BBX 4 1 0 2
BITMAP
F0
ENDCHAR
STARTCHAR quoteleft
ENCODING 8216
SWIDTH 179 0
DWIDTH 1 0
BBX 1 2 0 3
BITMAP
80
80
ENDCHAR
STARTCHAR quoteright
ENCODING 8217
SWIDTH 179 0
DWIDTH 1 0
BBX 1 2 0 3
BITMAP
80
80
ENDCHAR
STARTCHAR quotesinglbase
ENCODING 8218
SWIDTH 187 0
DWIDTH 2 0
BBX 1 2 0 -1
BITMAP
80
80
ENDCHAR
STARTCHAR quotedblleft
ENCODING 8220
SWIDTH 329 0
DWIDTH 3 0
BBX 2 2 0 3
BITMAP
C0
C0
ENDCHAR
STARTCHAR quotedblright
ENCODING 8221
SWIDTH 329 0
DWIDTH 3 0
BBX 2 2 0 3
BITMAP
C0
C0
ENDCHAR
STARTCHAR quotedblbase
ENCODING 8222
SWIDTH 337 0
DWIDTH 3 0
BBX 1 2 1 -1
BITMAP
80
80
ENDCHAR
STARTCHAR dagger
ENCODING 8224
SWIDTH 427 0
DWIDTH 3 0
BBX 3 5 0 0
BITMAP
40
E0
40
40
40
ENDCHAR
STARTCHAR daggerdbl
ENCODING 8225
SWIDTH 427 0
DWIDTH 3 0
BBX 3 5 0 0
BITMAP
40
E0
40
E0
40
ENDCHAR
STARTCHAR bullet
ENCODING 8226
SWIDTH 273 0
DWIDTH 2 0
BBX 1 1 1 2
BITMAP
80
ENDCHAR
STARTCHAR ellipsis
ENCODING 8230
SWIDTH 591 0
DWIDTH 5 0
BBX 3 1 1 0
BITMAP
E0
ENDCHAR
STARTCHAR perthousand
ENCODING 8240
SWIDTH 1027 0
DWIDTH 8 0
BBX 8 5 0 0
BITMAP
F0
A0
6B
35
5F
ENDCHAR
STARTCHAR guilsinglleft
ENCODING 8249
SWIDTH 290 0
DWIDTH 2 0
BBX 1 2 1 1
BITMAP
80
80
ENDCHAR
STARTCHAR guilsinglright
ENCODING 8250
SWIDTH 290 0
DWIDTH 2 0
BBX 1 2 1 1
BITMAP
80
80
ENDCHAR
STARTCHAR fraction
ENCODING 8260
SWIDTH 117 0
DWIDTH 1 0
BBX 4 5 -2 0
BITMAP
10
10
20
40
80
ENDCHAR
STARTCHAR Euro
ENCODING 8364
SWIDTH 523 0
DWIDTH 4 0
BBX 4 5 0 0
BITMAP
70
E0
E0
50
70
ENDCHAR
STARTCHAR uni20B9
ENCODING 8377
SWIDTH 414 0
DWIDTH 3 0
BBX 3 5 0 0
BITMAP
E0
E0
C0
40
40
ENDCHAR
STARTCHAR trademark
ENCODING 8482
SWIDTH 591 0
DWIDTH 5 0
BBX 3 2 1 3
BITMAP
E0
E0
ENDCHAR
STARTCHAR uni2126
ENCODING 8486
SWIDTH 629 0
DWIDTH 5 0
BBX 5 5 0 0
BITMAP
70
88
88
88
D8
ENDCHAR
STARTCHAR partialdiff
ENCODING 8706
SWIDTH 481 0
DWIDTH 4 0
BBX 3 5 0 0
BITMAP
60
60
A0
A0
E0
ENDCHAR
STARTCHAR uni2206
ENCODING 8710
SWIDTH 594 0
DWIDTH 5 0
BBX 5 5 0 0
BITMAP
20
60
50
90
F8
ENDCHAR
STARTCHAR minus
ENCODING 8722
SWIDTH 523 0
DWIDTH 4 0
BBX 3 1 1 2
BITMAP
E0
ENDCHAR
STARTCHAR approxequal
ENCODING 8776
SWIDTH 523 0
DWIDTH 4 0
BBX 3 3 1 1
BITMAP
A0
C0
E0
ENDCHAR
STARTCHAR notequal
ENCODING 8800
SWIDTH 523 0
DWIDTH 4 0
BBX 3 4 1 0
BITMAP
40
E0
E0
80
ENDCHAR
STARTCHAR lessequal
ENCODING 8804
SWIDTH 523 0
DWIDTH 4 0
BBX 3 3 1 1
BITMAP
E0
40
E0
ENDCHAR
STARTCHAR greaterequal
ENCODING 8805
SWIDTH 523 0
DWIDTH 4 0
BBX 3 3 1 1
BITMAP
E0
80
E0
ENDCHAR
STARTCHAR uni25CC
ENCODING 9676
SWIDTH 701 0
DWIDTH 6 0
BBX 4 5 1 0
BITMAP
60
90
90
90
70
ENDCHAR
STARTCHAR commaaccent
ENCODING 63171
SWIDTH 0 0
DWIDTH 0 0
BBX 1 2 1 -2
BITMAP
80
80
ENDCHAR
STARTCHAR .notdef
ENCODING -1
SWIDTH 600 0
DWIDTH 5 0
BBX 3 5 1 0
BITMAP
E0
A0
A0
A0
E0
ENDCHAR
STARTCHAR .null
ENCODING -1
SWIDTH 0 0
DWIDTH 0 0
BBX 1 1 0 0
BITMAP
00
ENDCHAR
STARTCHAR nonmarkingreturn
ENCODING -1
SWIDTH 333 0
DWIDTH 3 0
BBX 1 1 0 0
BITMAP
00
ENDCHAR
STARTCHAR uni0915094D
ENCODING -1
SWIDTH 519 0
DWIDTH 4 0
BBX 5 5 0 0
BITMAP
F8
58
A0
A0
60
ENDCHAR
STARTCHAR uni0916094D
ENCODING -1
SWIDTH 468 0
DWIDTH 4 0
BBX 5 5 0 0
BITMAP
F8
50
E0
58
40
ENDCHAR
STARTCHAR uni0917094D
ENCODING -1
SWIDTH 264 0
DWIDTH 2 0
BBX 2 4 0 1
BITMAP
C0
40
40
80
ENDCHAR
STARTCHAR uni0918094D
ENCODING -1
SWIDTH 321 0
DWIDTH 3 0
BBX 4 5 0 0
BITMAP
F0
80
40
80
70
ENDCHAR
STARTCHAR uni0919094D
ENCODING -1
SWIDTH 505 0
DWIDTH 4 0
BBX 4 6 0 -1
BITMAP
F0
60
90
60
90
60
ENDCHAR
STARTCHAR uni091A094D
ENCODING -1
SWIDTH 330 0
DWIDTH 3 0
BBX 4 4 0 1
BITMAP
F0
E0
40
70
ENDCHAR
STARTCHAR uni091B094D
ENCODING -1
SWIDTH 581 0
DWIDTH 5 0
BBX 5 5 0 0
BITMAP
F8
90
50
90
F0
ENDCHAR
STARTCHAR uni091C094D
ENCODING -1
SWIDTH 309 0
DWIDTH 2 0
BBX 3 5 0 0
BITMAP
E0
60
20
20
C0
ENDCHAR
STARTCHAR uni091D094D
ENCODING -1
SWIDTH 432 0
DWIDTH 3 0
BBX 4 6 0 -1
BITMAP
F0
60
80
70
E0
80
ENDCHAR
STARTCHAR uni091E094D
ENCODING -1
SWIDTH 359 0
DWIDTH 3 0
BBX 4 5 0 0
BITMAP
F0
C0
30
20
C0
ENDCHAR
STARTCHAR uni091F094D
ENCODING -1
SWIDTH 485 0
DWIDTH 4 0
BBX 4 7 0 -2
BITMAP
F0
60
80
90
F0
00
20
ENDCHAR
STARTCHAR uni0920094D
ENCODING -1
SWIDTH 512 0
DWIDTH 4 0
BBX 4 7 0 -2
BITMAP
F0
60
90
90
F0
00
20
ENDCHAR
STARTCHAR uni0921094D
ENCODING -1
SWIDTH 475 0
DWIDTH 4 0
BBX 4 6 0 -1
BITMAP
F0
60
80
60
D0
20
ENDCHAR
STARTCHAR uni0922094D
ENCODING -1
SWIDTH 485 0
DWIDTH 4 0
BBX 4 7 0 -2
BITMAP
F0
60
80
A0
F0
00
20
ENDCHAR
STARTCHAR uni0923094D
ENCODING -1
SWIDTH 454 0
DWIDTH 4 0
BBX 4 4 0 1
BITMAP
F0
A0
A0
60
ENDCHAR
STARTCHAR uni0924094D
ENCODING -1
SWIDTH 263 0
DWIDTH 2 0
BBX 3 5 0 0
BITMAP
E0
60
80
80
C0
ENDCHAR
STARTCHAR uni0925094D
ENCODING -1
SWIDTH 359 0
DWIDTH 3 0
BBX 4 4 0 1
BITMAP
60
A0
C0
70
ENDCHAR
STARTCHAR uni0926094D
ENCODING -1
SWIDTH 489 0
DWIDTH 4 0
BBX 4 6 0 -1
BITMAP
F0
60
80
90
60
20
ENDCHAR
STARTCHAR uni0927094D
ENCODING -1
SWIDTH 321 0
DWIDTH 3 0
BBX 4 5 0 0
BITMAP
F0
80
40
80
70
ENDCHAR
STARTCHAR uni0928094D
ENCODING -1
SWIDTH 233 0
DWIDTH 2 0
BBX 3 4 0 1
BITMAP
E0
00
60
80
ENDCHAR
STARTCHAR uni092A094D
ENCODING -1
SWIDTH 269 0
DWIDTH 2 0
BBX 3 4 0 1
BITMAP
E0
80
80
60
ENDCHAR
STARTCHAR uni092B094D
ENCODING -1
SWIDTH 530 0
DWIDTH 4 0
BBX 5 5 0 0
BITMAP
F8
98
90
60
10
ENDCHAR
STARTCHAR uni092C094D
ENCODING -1
SWIDTH 265 0
DWIDTH 2 0
BBX 3 5 0 0
BITMAP
E0
40
40
A0
60
ENDCHAR
STARTCHAR uni092D094D
ENCODING -1
SWIDTH 261 0
DWIDTH 2 0
BBX 3 3 0 2
BITMAP
A0
80
60
ENDCHAR
STARTCHAR uni092E094D
ENCODING -1
SWIDTH 261 0
DWIDTH 2 0
BBX 3 3 0 2
BITMAP
E0
80
60
ENDCHAR
STARTCHAR uni092F094D
ENCODING -1
SWIDTH 323 0
DWIDTH 3 0
BBX 4 4 0 1
BITMAP
E0
40
80
70
ENDCHAR
STARTCHAR uni0930094D
ENCODING -1
SWIDTH 337 0
DWIDTH 3 0
BBX 3 6 0 -1
BITMAP
E0
40
C0
40
40
40
ENDCHAR
STARTCHAR uni0932094D
ENCODING -1
SWIDTH 431 0
DWIDTH 3 0
BBX 5 5 0 0
BITMAP
F8
50
A0
A0
C0
ENDCHAR
STARTCHAR uni0933094D
ENCODING -1
SWIDTH 677 0
DWIDTH 5 0
BBX 6 5 0 0
BITMAP
FC
50
A8
A8
F8
ENDCHAR
STARTCHAR uni0935094D
ENCODING -1
SWIDTH 255 0
DWIDTH 2 0
BBX 3 5 0 0
BITMAP
E0
40
80
A0
60
ENDCHAR
STARTCHAR uni0936094D
ENCODING -1
SWIDTH 378 0
DWIDTH 3 0
BBX 3 5 0 0
BITMAP
E0
A0
C0
40
40
ENDCHAR
STARTCHAR uni0937094D
ENCODING -1
SWIDTH 282 0
DWIDTH 2 0
BBX 3 4 0 1
BITMAP
E0
C0
A0
60
ENDCHAR
STARTCHAR uni0938094D
ENCODING -1
SWIDTH 338 0
DWIDTH 3 0
BBX 4 5 0 0
BITMAP
F0
40
F0
80
40
ENDCHAR
STARTCHAR uni0939094D
ENCODING -1
SWIDTH 457 0
DWIDTH 4 0
BBX 5 6 0 -1
BITMAP
F0
60
78
80
80
60
ENDCHAR
STARTCHAR uni0915093C094D
ENCODING -1
SWIDTH 519 0
DWIDTH 4 0
BBX 5 6 0 -1
BITMAP
F8
58
A0
A0
60
40
ENDCHAR
STARTCHAR uni0916093C094D
ENCODING -1
SWIDTH 463 0
DWIDTH 4 0
BBX 5 6 0 -1
BITMAP
F8
50
E0
58
40
80
ENDCHAR
STARTCHAR uni0917093C094D
ENCODING -1
SWIDTH 264 0
DWIDTH 2 0
BBX 2 3 0 2
BITMAP
C0
40
80
ENDCHAR
STARTCHAR uni091C093C094D
ENCODING -1
SWIDTH 314 0
DWIDTH 3 0
BBX 3 6 0 -1
BITMAP
E0
60
20
20
C0
80
ENDCHAR
STARTCHAR uni0928093C094D
ENCODING -1
SWIDTH 241 0
DWIDTH 2 0
BBX 3 5 0 0
BITMAP
E0
00
60
80
40
ENDCHAR
STARTCHAR uni092B093C094D
ENCODING -1
SWIDTH 530 0
DWIDTH 4 0
BBX 5 6 0 -1
BITMAP
F8
98
90
60
10
40
ENDCHAR
STARTCHAR uni092F093C094D
ENCODING -1
SWIDTH 325 0
DWIDTH 3 0
BBX 4 6 0 -1
BITMAP
E0
40
80
70
00
40
ENDCHAR
STARTCHAR uni09080902
ENCODING -1
SWIDTH 478 0
DWIDTH 4 0
BBX 4 8 0 -1
BITMAP
30
20
F0
60
80
60
F0
80
ENDCHAR
STARTCHAR uni09300941
ENCODING -1
SWIDTH 533 0
DWIDTH 4 0
BBX 4 5 0 0
BITMAP
F0
20
D0
70
40
ENDCHAR
STARTCHAR uni09300942
ENCODING -1
SWIDTH 645 0
DWIDTH 5 0
BBX 5 5 0 0
BITMAP
F8
50
E8
50
40
ENDCHAR
STARTCHAR uni09390941
ENCODING -1
SWIDTH 495 0
DWIDTH 4 0
BBX 4 7 0 -2
BITMAP
F0
60
60
90
80
60
F0
ENDCHAR
STARTCHAR uni09390942
ENCODING -1
SWIDTH 492 0
DWIDTH 4 0
BBX 4 7 0 -2
BITMAP
F0
60
80
60
D0
A0
50
ENDCHAR
STARTCHAR uni09260943
ENCODING -1
SWIDTH 390 0
DWIDTH 3 0
BBX 3 5 0 0
BITMAP
E0
40
80
40
E0
ENDCHAR
STARTCHAR uni09390943
ENCODING -1
SWIDTH 519 0
DWIDTH 4 0
BBX 4 6 0 -1
BITMAP
F0
60
80
70
B0
60
ENDCHAR
STARTCHAR uni094D0930
ENCODING -1
SWIDTH 0 0
DWIDTH 0 0
BBX 2 2 -3 -1
BITMAP
80
C0
ENDCHAR
STARTCHAR uni0930094D.1
ENCODING -1
SWIDTH 192 0
DWIDTH 2 0
BBX 3 3 -1 2
BITMAP
60
80
60
ENDCHAR
STARTCHAR uni0930094D.2
ENCODING -1
SWIDTH 0 0
DWIDTH 0 0
BBX 1 2 -1 5
BITMAP
80
80
ENDCHAR
STARTCHAR uni0930094D0902
ENCODING -1
SWIDTH 0 0
DWIDTH 0 0
BBX 1 2 -1 5
BITMAP
80
80
ENDCHAR
STARTCHAR uni093E0930094D
ENCODING -1
SWIDTH 231 0
DWIDTH 2 0
BBX 2 7 0 0
BITMAP
40
80
C0
80
80
80
80
ENDCHAR
STARTCHAR uni093E0930094D0902
ENCODING -1
SWIDTH 231 0
DWIDTH 2 0
BBX 2 7 0 0
BITMAP
40
C0
80
80
80
80
80
ENDCHAR
STARTCHAR uni0930094D.aMatraI
ENCODING -1
SWIDTH 0 0
DWIDTH 0 0
BBX 1 2 0 5
BITMAP
80
80
ENDCHAR
STARTCHAR uni0902.aMatraI
ENCODING -1
SWIDTH 0 0
DWIDTH 0 0
BBX 1 1 0 6
BITMAP
80
ENDCHAR
STARTCHAR uni0930094D0902.aMatraI
ENCODING -1
SWIDTH 0 0
DWIDTH 0 0
BBX 1 2 0 5
BITMAP
80
80
ENDCHAR
STARTCHAR uni09400930094D
ENCODING -1
SWIDTH 231 0
DWIDTH 2 0
BBX 3 7 -1 0
BITMAP
E0
C0
60
40
40
40
40
ENDCHAR
STARTCHAR uni09400902
ENCODING -1
SWIDTH 231 0
DWIDTH 2 0
BBX 3 7 -1 0
BITMAP
E0
C0
60
40
40
40
40
ENDCHAR
STARTCHAR uni09400930094D0902
ENCODING -1
SWIDTH 231 0
DWIDTH 2 0
BBX 3 7 -1 0
BITMAP
E0
C0
60
40
40
40
40
ENDCHAR
STARTCHAR uni0940.aLong
ENCODING -1
SWIDTH 231 0
DWIDTH 2 0
BBX 5 7 -3 0
BITMAP
F0
90
18
10
10
10
10
ENDCHAR
STARTCHAR uni09400930094D.aLong
ENCODING -1
SWIDTH 231 0
DWIDTH 2 0
BBX 5 7 -3 0
BITMAP
F8
90
18
10
10
10
10
ENDCHAR
STARTCHAR uni09400902.aLong
ENCODING -1
SWIDTH 231 0
DWIDTH 2 0
BBX 5 7 -3 0
BITMAP
F8
90
18
10
10
10
10
ENDCHAR
STARTCHAR uni09400930094D0902.aLong
ENCODING -1
SWIDTH 231 0
DWIDTH 2 0
BBX 5 7 -3 0
BITMAP
F8
90
18
10
10
10
10
ENDCHAR
STARTCHAR uni09470930094D
ENCODING -1
SWIDTH 0 0
DWIDTH 0 0
BBX 2 2 -2 5
BITMAP
C0
80
ENDCHAR
STARTCHAR uni09470902
ENCODING -1
SWIDTH 0 0
DWIDTH 0 0
BBX 2 2 -2 5
BITMAP
C0
80
ENDCHAR
STARTCHAR uni09470901
ENCODING -1
SWIDTH 0 0
DWIDTH 0 0
BBX 4 2 -2 5
BITMAP
B0
60
ENDCHAR
STARTCHAR uni09470930094D0902
ENCODING -1
SWIDTH 0 0
DWIDTH 0 0
BBX 2 2 -2 5
BITMAP
C0
C0
ENDCHAR
STARTCHAR uni09480930094D
ENCODING -1
SWIDTH 0 0
DWIDTH 0 0
BBX 3 2 -3 5
BITMAP
A0
40
ENDCHAR
STARTCHAR uni09480902
ENCODING -1
SWIDTH 0 0
DWIDTH 0 0
BBX 3 2 -3 5
BITMAP
A0
40
ENDCHAR
STARTCHAR uni09480901
ENCODING -1
SWIDTH 0 0
DWIDTH 0 0
BBX 5 2 -3 5
BITMAP
A0
58
ENDCHAR
STARTCHAR uni09480930094D0902
ENCODING -1
SWIDTH 0 0
DWIDTH 0 0
BBX 3 2 -3 5
BITMAP
A0
60
ENDCHAR
STARTCHAR uni094B0930094D
ENCODING -1
SWIDTH 231 0
DWIDTH 2 0
BBX 3 7 -1 0
BITMAP
A0
40
60
40
40
40
40
ENDCHAR
STARTCHAR uni094B0902
ENCODING -1
SWIDTH 231 0
DWIDTH 2 0
BBX 3 7 -1 0
BITMAP
A0
40
60
40
40
40
40
ENDCHAR
STARTCHAR uni094B0930094D0902
ENCODING -1
SWIDTH 231 0
DWIDTH 2 0
BBX 3 7 -1 0
BITMAP
A0
60
40
40
40
40
40
ENDCHAR
STARTCHAR uni094C0930094D
ENCODING -1
SWIDTH 231 0
DWIDTH 2 0
BBX 3 7 -1 0
BITMAP
E0
40
60
40
40
40
40
ENDCHAR
STARTCHAR uni094C0902
ENCODING -1
SWIDTH 231 0
DWIDTH 2 0
BBX 3 7 -1 0
BITMAP
E0
40
60
40
40
40
40
ENDCHAR
STARTCHAR uni094C0930094D0902
ENCODING -1
SWIDTH 231 0
DWIDTH 2 0
BBX 3 7 -1 0
BITMAP
E0
60
40
40
40
40
40
ENDCHAR
STARTCHAR uni0915094D0937
ENCODING -1
SWIDTH 656 0
DWIDTH 5 0
BBX 4 5 1 0
BITMAP
D0
E0
90
D0
D0
ENDCHAR
STARTCHAR uni0915094D0937094D
ENCODING -1
SWIDTH 429 0
DWIDTH 3 0
BBX 3 5 1 0
BITMAP
C0
E0
80
C0
C0
ENDCHAR
STARTCHAR uni0915094D0937094D092E
ENCODING -1
SWIDTH 933 0
DWIDTH 7 0
BBX 7 5 1 0
BITMAP
DE
F4
9C
D4
C4
ENDCHAR
STARTCHAR uni0915094D0937094D092E094D
ENCODING -1
SWIDTH 717 0
DWIDTH 6 0
BBX 6 5 1 0
BITMAP
DC
F0
9C
D0
C0
ENDCHAR
STARTCHAR uni0915094D0937094D092E094D092F
ENCODING -1
SWIDTH 1283 0
DWIDTH 10 0
BBX 9 5 1 0
BITMAP
DF80
F680
9C80
C380
C080
ENDCHAR
STARTCHAR uni0915094D0937094D092F
ENCODING -1
SWIDTH 989 0
DWIDTH 8 0
BBX 7 5 1 0
BITMAP
DE
CC
F4
DC
C4
ENDCHAR
STARTCHAR uni0915094D0937094D0935
ENCODING -1
SWIDTH 936 0
DWIDTH 7 0
BBX 7 5 1 0
BITMAP
DE
FC
94
CC
C4
ENDCHAR
STARTCHAR uni091C094D091E
ENCODING -1
SWIDTH 629 0
DWIDTH 5 0
BBX 5 5 0 0
BITMAP
F8
70
68
90
E8
ENDCHAR
STARTCHAR uni091C094D091E094D
ENCODING -1
SWIDTH 398 0
DWIDTH 3 0
BBX 4 6 0 -1
BITMAP
F0
70
80
60
E0
80
ENDCHAR
STARTCHAR uni091C094D091E094D092F
ENCODING -1
SWIDTH 975 0
DWIDTH 8 0
BBX 8 5 0 0
BITMAP
FF
76
7A
9E
E2
ENDCHAR
STARTCHAR uni0915094D0928
ENCODING -1
SWIDTH 1003 0
DWIDTH 8 0
BBX 8 5 0 0
BITMAP
FF
59
A6
A9
61
ENDCHAR
STARTCHAR uni0916094D0928
ENCODING -1
SWIDTH 958 0
DWIDTH 8 0
BBX 8 5 0 0
BITMAP
FF
52
EE
5A
42
ENDCHAR
STARTCHAR uni0917094D0928
ENCODING -1
SWIDTH 736 0
DWIDTH 6 0
BBX 6 5 0 0
BITMAP
FC
48
58
A8
08
ENDCHAR
STARTCHAR uni0918094D0928
ENCODING -1
SWIDTH 814 0
DWIDTH 7 0
BBX 7 5 0 0
BITMAP
FE
44
9C
74
04
ENDCHAR
STARTCHAR uni091A094D0928
ENCODING -1
SWIDTH 829 0
DWIDTH 7 0
BBX 7 5 0 0
BITMAP
FE
E4
5C
74
04
ENDCHAR
STARTCHAR uni091B094D0928
ENCODING -1
SWIDTH 977 0
DWIDTH 8 0
BBX 8 5 0 0
BITMAP
FF
92
56
8A
F2
ENDCHAR
STARTCHAR uni091C094D0928
ENCODING -1
SWIDTH 831 0
DWIDTH 7 0
BBX 7 5 0 0
BITMAP
FE
04
7C
34
C4
ENDCHAR
STARTCHAR uni091D094D0928
ENCODING -1
SWIDTH 935 0
DWIDTH 7 0
BBX 8 5 0 0
BITMAP
FF
62
7E
A2
E2
ENDCHAR
STARTCHAR uni091F094D0928
ENCODING -1
SWIDTH 494 0
DWIDTH 4 0
BBX 4 7 0 -2
BITMAP
F0
60
80
90
60
60
A0
ENDCHAR
STARTCHAR uni0920094D0928
ENCODING -1
SWIDTH 516 0
DWIDTH 4 0
BBX 4 7 0 -2
BITMAP
F0
60
90
90
60
60
A0
ENDCHAR
STARTCHAR uni0921094D0928
ENCODING -1
SWIDTH 481 0
DWIDTH 4 0
BBX 4 7 0 -2
BITMAP
F0
60
60
90
60
60
A0
ENDCHAR
STARTCHAR uni0924094D0928
ENCODING -1
SWIDTH 756 0
DWIDTH 6 0
BBX 6 5 0 0
BITMAP
FC
64
98
A4
C4
ENDCHAR
STARTCHAR uni0925094D0928
ENCODING -1
SWIDTH 855 0
DWIDTH 7 0
BBX 7 5 0 0
BITMAP
7E
A4
CC
74
04
ENDCHAR
STARTCHAR uni0926094D0928
ENCODING -1
SWIDTH 955 0
DWIDTH 8 0
BBX 8 6 0 -1
BITMAP
FF
62
8E
9A
62
10
ENDCHAR
STARTCHAR uni0927094D0928
ENCODING -1
SWIDTH 814 0
DWIDTH 7 0
BBX 7 5 0 0
BITMAP
DE
44
9C
74
04
ENDCHAR
STARTCHAR uni0928094D0928
ENCODING -1
SWIDTH 738 0
DWIDTH 6 0
BBX 6 5 0 0
BITMAP
FC
08
78
A8
08
ENDCHAR
STARTCHAR uni092A094D0928
ENCODING -1
SWIDTH 782 0
DWIDTH 6 0
BBX 6 5 0 0
BITMAP
FC
84
9C
74
04
ENDCHAR
STARTCHAR uni092B094D0928
ENCODING -1
SWIDTH 1013 0
DWIDTH 8 0
BBX 8 5 0 0
BITMAP
FF
99
96
69
11
ENDCHAR
STARTCHAR uni092C094D0928
ENCODING -1
SWIDTH 810 0
DWIDTH 6 0
BBX 7 5 0 0
BITMAP
FE
44
5C
B4
64
ENDCHAR
STARTCHAR uni092D094D0928
ENCODING -1
SWIDTH 757 0
DWIDTH 6 0
BBX 6 5 0 0
BITMAP
BC
84
78
A4
04
ENDCHAR
STARTCHAR uni092E094D0928
ENCODING -1
SWIDTH 757 0
DWIDTH 6 0
BBX 6 5 0 0
BITMAP
FC
84
78
A4
04
ENDCHAR
STARTCHAR uni092F094D0928
ENCODING -1
SWIDTH 829 0
DWIDTH 7 0
BBX 7 5 0 0
BITMAP
FE
44
9C
74
04
ENDCHAR
STARTCHAR uni0935094D0928
ENCODING -1
SWIDTH 798 0
DWIDTH 6 0
BBX 7 5 0 0
BITMAP
FE
44
9C
94
64
ENDCHAR
STARTCHAR uni0936094D0928
ENCODING -1
SWIDTH 845 0
DWIDTH 7 0
BBX 7 5 0 0
BITMAP
FE
A4
DC
44
44
ENDCHAR
STARTCHAR uni0938094D0928
ENCODING -1
SWIDTH 831 0
DWIDTH 7 0
BBX 7 5 0 0
BITMAP
FE
44
FC
84
44
ENDCHAR
STARTCHAR uni0939094D0928
ENCODING -1
SWIDTH 500 0
DWIDTH 4 0
BBX 4 6 0 -1
BITMAP
F0
60
80
70
B0
60
ENDCHAR
STARTCHAR uni0915094D0930
ENCODING -1
SWIDTH 725 0
DWIDTH 6 0
BBX 6 5 0 0
BITMAP
FC
58
A4
A4
68
ENDCHAR
STARTCHAR uni0916094D0930
ENCODING -1
SWIDTH 698 0
DWIDTH 6 0
BBX 6 5 0 0
BITMAP
FC
58
E8
58
58
ENDCHAR
STARTCHAR uni0917094D0930
ENCODING -1
SWIDTH 494 0
DWIDTH 4 0
BBX 4 5 0 0
BITMAP
F0
50
50
A0
50
ENDCHAR
STARTCHAR uni0918094D0930
ENCODING -1
SWIDTH 559 0
DWIDTH 4 0
BBX 5 6 0 -1
BITMAP
F8
90
50
90
70
40
ENDCHAR
STARTCHAR uni0919094D0930
ENCODING -1
SWIDTH 505 0
DWIDTH 4 0
BBX 4 6 0 -1
BITMAP
F0
60
90
60
90
60
ENDCHAR
STARTCHAR uni091A094D0930
ENCODING -1
SWIDTH 563 0
DWIDTH 5 0
BBX 5 5 0 0
BITMAP
F8
F0
50
70
50
ENDCHAR
STARTCHAR uni091B094D0930
ENCODING -1
SWIDTH 581 0
DWIDTH 5 0
BBX 5 6 0 -1
BITMAP
F8
90
50
90
90
70
ENDCHAR
STARTCHAR uni091C094D0930
ENCODING -1
SWIDTH 547 0
DWIDTH 4 0
BBX 4 6 0 -1
BITMAP
F0
70
30
30
F0
40
ENDCHAR
STARTCHAR uni091D094D0930
ENCODING -1
SWIDTH 684 0
DWIDTH 5 0
BBX 6 5 0 0
BITMAP
FC
68
78
A8
F8
ENDCHAR
STARTCHAR uni091E094D0930
ENCODING -1
SWIDTH 598 0
DWIDTH 5 0
BBX 5 5 0 0
BITMAP
F8
D0
30
D0
30
ENDCHAR
STARTCHAR uni091F094D0930
ENCODING -1
SWIDTH 485 0
DWIDTH 4 0
BBX 4 6 0 -1
BITMAP
F0
60
80
90
90
60
ENDCHAR
STARTCHAR uni0920094D0930
ENCODING -1
SWIDTH 512 0
DWIDTH 4 0
BBX 4 6 0 -1
BITMAP
F0
60
90
90
90
60
ENDCHAR
STARTCHAR uni0921094D0930
ENCODING -1
SWIDTH 475 0
DWIDTH 4 0
BBX 4 6 0 -1
BITMAP
F0
60
80
60
90
60
ENDCHAR
STARTCHAR uni0922094D0930
ENCODING -1
SWIDTH 485 0
DWIDTH 4 0
BBX 4 6 0 -1
BITMAP
F0
60
80
A0
90
60
ENDCHAR
STARTCHAR uni0923094D0930
ENCODING -1
SWIDTH 681 0
DWIDTH 5 0
BBX 6 5 0 0
BITMAP
FC
A8
A8
78
28
ENDCHAR
STARTCHAR uni0924094D0930
ENCODING -1
SWIDTH 493 0
DWIDTH 4 0
BBX 4 5 0 0
BITMAP
F0
60
90
20
50
ENDCHAR
STARTCHAR uni0925094D0930
ENCODING -1
SWIDTH 593 0
DWIDTH 5 0
BBX 5 5 0 0
BITMAP
78
B0
D0
70
70
ENDCHAR
STARTCHAR uni0926094D0930
ENCODING -1
SWIDTH 489 0
DWIDTH 4 0
BBX 4 6 0 -1
BITMAP
F0
60
80
90
60
40
ENDCHAR
STARTCHAR uni0927094D0930
ENCODING -1
SWIDTH 560 0
DWIDTH 4 0
BBX 5 6 0 -1
BITMAP
D8
90
50
90
70
40
ENDCHAR
STARTCHAR uni0928094D0930
ENCODING -1
SWIDTH 473 0
DWIDTH 4 0
BBX 4 5 0 0
BITMAP
F0
20
60
A0
60
ENDCHAR
STARTCHAR uni092A094D0930
ENCODING -1
SWIDTH 503 0
DWIDTH 4 0
BBX 4 5 0 0
BITMAP
F0
90
90
60
50
ENDCHAR
STARTCHAR uni092B094D0930
ENCODING -1
SWIDTH 741 0
DWIDTH 6 0
BBX 6 5 0 0
BITMAP
FC
98
94
68
50
ENDCHAR
STARTCHAR uni092C094D0930
ENCODING -1
SWIDTH 491 0
DWIDTH 4 0
BBX 4 6 0 -1
BITMAP
F0
60
60
A0
60
40
ENDCHAR
STARTCHAR uni092D094D0930
ENCODING -1
SWIDTH 491 0
DWIDTH 4 0
BBX 4 5 0 0
BITMAP
B0
A0
60
A0
60
ENDCHAR
STARTCHAR uni092E094D0930
ENCODING -1
SWIDTH 490 0
DWIDTH 4 0
BBX 4 5 0 0
BITMAP
F0
A0
60
A0
60
ENDCHAR
STARTCHAR uni092F094D0930
ENCODING -1
SWIDTH 564 0
DWIDTH 5 0
BBX 5 5 0 0
BITMAP
F8
50
50
70
50
ENDCHAR
STARTCHAR uni0935094D0930
ENCODING -1
SWIDTH 484 0
DWIDTH 4 0
BBX 4 6 0 -1
BITMAP
F0
60
A0
A0
60
40
ENDCHAR
STARTCHAR uni0936094D0930
ENCODING -1
SWIDTH 558 0
DWIDTH 4 0
BBX 5 5 0 0
BITMAP
F8
B0
50
B0
50
ENDCHAR
STARTCHAR uni0938094D0930
ENCODING -1
SWIDTH 604 0
DWIDTH 5 0
BBX 5 5 0 0
BITMAP
F8
50
F0
B0
50
ENDCHAR
STARTCHAR uni0939094D0930
ENCODING -1
SWIDTH 505 0
DWIDTH 4 0
BBX 4 6 0 -1
BITMAP
F0
60
80
70
B0
60
ENDCHAR
STARTCHAR uni0915093C094D0930
ENCODING -1
SWIDTH 725 0
DWIDTH 6 0
BBX 6 6 0 -1
BITMAP
FC
58
A4
A4
68
40
ENDCHAR
STARTCHAR uni0916093C094D0930
ENCODING -1
SWIDTH 698 0
DWIDTH 6 0
BBX 6 6 0 -1
BITMAP
FC
58
E8
58
58
10
ENDCHAR
STARTCHAR uni0917093C094D0930
ENCODING -1
SWIDTH 494 0
DWIDTH 4 0
BBX 4 6 0 -1
BITMAP
F0
50
50
A0
50
40
ENDCHAR
STARTCHAR uni091C093C094D0930
ENCODING -1
SWIDTH 547 0
DWIDTH 4 0
BBX 4 6 0 -1
BITMAP
F0
70
30
30
F0
80
ENDCHAR
STARTCHAR uni0921093C094D0930
ENCODING -1
SWIDTH 475 0
DWIDTH 4 0
BBX 4 6 0 -1
BITMAP
F0
60
80
60
90
E0
ENDCHAR
STARTCHAR uni0922093C094D0930
ENCODING -1
SWIDTH 485 0
DWIDTH 4 0
BBX 4 6 0 -1
BITMAP
F0
60
80
A0
90
E0
ENDCHAR
STARTCHAR uni0928093C094D0930
ENCODING -1
SWIDTH 473 0
DWIDTH 4 0
BBX 4 6 0 -1
BITMAP
F0
20
60
A0
60
40
ENDCHAR
STARTCHAR uni092B093C094D0930
ENCODING -1
SWIDTH 741 0
DWIDTH 6 0
BBX 6 6 0 -1
BITMAP
FC
98
94
68
50
40
ENDCHAR
STARTCHAR uni092F093C094D0930
ENCODING -1
SWIDTH 564 0
DWIDTH 5 0
BBX 5 6 0 -1
BITMAP
F8
50
50
70
50
20
ENDCHAR
STARTCHAR uni0915094D0930094D
ENCODING -1
SWIDTH 518 0
DWIDTH 4 0
BBX 5 5 0 0
BITMAP
F8
58
A0
A0
60
ENDCHAR
STARTCHAR uni0916094D0930094D
ENCODING -1
SWIDTH 469 0
DWIDTH 4 0
BBX 5 5 0 0
BITMAP
F8
50
E0
58
50
ENDCHAR
STARTCHAR uni0917094D0930094D
ENCODING -1
SWIDTH 264 0
DWIDTH 2 0
BBX 3 5 0 0
BITMAP
C0
40
40
A0
40
ENDCHAR
STARTCHAR uni0918094D0930094D
ENCODING -1
SWIDTH 319 0
DWIDTH 3 0
BBX 4 6 0 -1
BITMAP
E0
80
40
80
70
40
ENDCHAR
STARTCHAR uni091A094D0930094D
ENCODING -1
SWIDTH 331 0
DWIDTH 3 0
BBX 4 5 0 0
BITMAP
E0
E0
40
70
40
ENDCHAR
STARTCHAR uni091C094D0930094D
ENCODING -1
SWIDTH 312 0
DWIDTH 3 0
BBX 4 6 0 -1
BITMAP
E0
60
20
30
E0
40
ENDCHAR
STARTCHAR uni091D094D0930094D
ENCODING -1
SWIDTH 441 0
DWIDTH 4 0
BBX 5 6 0 -1
BITMAP
F0
60
80
78
E8
90
ENDCHAR
STARTCHAR uni091E094D0930094D
ENCODING -1
SWIDTH 374 0
DWIDTH 3 0
BBX 4 5 0 0
BITMAP
F0
C0
30
D0
20
ENDCHAR
STARTCHAR uni091F094D0930094D
ENCODING -1
SWIDTH 485 0
DWIDTH 4 0
BBX 4 7 0 -2
BITMAP
F0
60
80
90
90
60
20
ENDCHAR
STARTCHAR uni0920094D0930094D
ENCODING -1
SWIDTH 512 0
DWIDTH 4 0
BBX 4 7 0 -2
BITMAP
F0
60
90
90
90
60
20
ENDCHAR
STARTCHAR uni0921094D0930094D
ENCODING -1
SWIDTH 475 0
DWIDTH 4 0
BBX 4 7 0 -2
BITMAP
F0
60
80
60
90
60
20
ENDCHAR
STARTCHAR uni0922094D0930094D
ENCODING -1
SWIDTH 485 0
DWIDTH 4 0
BBX 4 7 0 -2
BITMAP
F0
60
80
A0
90
60
20
ENDCHAR
STARTCHAR uni0923094D0930094D
ENCODING -1
SWIDTH 457 0
DWIDTH 4 0
BBX 5 5 0 0
BITMAP
F0
A0
A8
70
20
ENDCHAR
STARTCHAR uni0924094D0930094D
ENCODING -1
SWIDTH 268 0
DWIDTH 2 0
BBX 3 5 0 0
BITMAP
E0
60
A0
20
40
ENDCHAR
STARTCHAR uni0925094D0930094D
ENCODING -1
SWIDTH 358 0
DWIDTH 3 0
BBX 4 5 0 0
BITMAP
60
A0
C0
70
40
ENDCHAR
STARTCHAR uni0926094D0930094D
ENCODING -1
SWIDTH 489 0
DWIDTH 4 0
BBX 4 6 0 -1
BITMAP
F0
60
80
90
60
20
ENDCHAR
STARTCHAR uni0927094D0930094D
ENCODING -1
SWIDTH 322 0
DWIDTH 3 0
BBX 4 6 0 -1
BITMAP
C0
80
40
80
70
40
ENDCHAR
STARTCHAR uni0928094D0930094D
ENCODING -1
SWIDTH 247 0
DWIDTH 2 0
BBX 3 5 0 0
BITMAP
E0
00
60
A0
40
ENDCHAR
STARTCHAR uni092A094D0930094D
ENCODING -1
SWIDTH 270 0
DWIDTH 2 0
BBX 3 5 0 0
BITMAP
E0
80
80
60
40
ENDCHAR
STARTCHAR uni092B094D0930094D
ENCODING -1
SWIDTH 523 0
DWIDTH 4 0
BBX 5 5 0 0
BITMAP
F8
98
A0
60
60
ENDCHAR
STARTCHAR uni092C094D0930094D
ENCODING -1
SWIDTH 267 0
DWIDTH 2 0
BBX 3 6 0 -1
BITMAP
E0
40
40
A0
60
40
ENDCHAR
STARTCHAR uni092D094D0930094D
ENCODING -1
SWIDTH 257 0
DWIDTH 2 0
BBX 3 5 0 0
BITMAP
A0
80
60
A0
40
ENDCHAR
STARTCHAR uni092E094D0930094D
ENCODING -1
SWIDTH 261 0
DWIDTH 2 0
BBX 3 5 0 0
BITMAP
E0
80
60
A0
40
ENDCHAR
STARTCHAR uni092F094D0930094D
ENCODING -1
SWIDTH 323 0
DWIDTH 3 0
BBX 4 5 0 0
BITMAP
E0
40
90
60
40
ENDCHAR
STARTCHAR uni0935094D0930094D
ENCODING -1
SWIDTH 255 0
DWIDTH 2 0
BBX 3 6 0 -1
BITMAP
E0
40
80
80
60
40
ENDCHAR
STARTCHAR uni0938094D0930094D
ENCODING -1
SWIDTH 347 0
DWIDTH 3 0
BBX 4 5 0 0
BITMAP
E0
40
F0
A0
40
ENDCHAR
STARTCHAR uni0915093C094D0930094D
ENCODING -1
SWIDTH 518 0
DWIDTH 4 0
BBX 5 6 0 -1
BITMAP
F8
58
A0
A0
60
40
ENDCHAR
STARTCHAR uni0916093C094D0930094D
ENCODING -1
SWIDTH 466 0
DWIDTH 4 0
BBX 5 6 0 -1
BITMAP
F8
50
E0
58
50
10
ENDCHAR
STARTCHAR uni0917093C094D0930094D
ENCODING -1
SWIDTH 264 0
DWIDTH 2 0
BBX 3 6 0 -1
BITMAP
C0
40
40
A0
40
40
ENDCHAR
STARTCHAR uni091C093C094D0930094D
ENCODING -1
SWIDTH 320 0
DWIDTH 3 0
BBX 4 6 0 -1
BITMAP
E0
60
20
30
E0
80
ENDCHAR
STARTCHAR uni0928093C094D0930094D
ENCODING -1
SWIDTH 247 0
DWIDTH 2 0
BBX 3 6 0 -1
BITMAP
E0
00
60
A0
40
40
ENDCHAR
STARTCHAR uni092B093C094D0930094D
ENCODING -1
SWIDTH 523 0
DWIDTH 4 0
BBX 5 6 0 -1
BITMAP
F8
98
A0
60
60
40
ENDCHAR
STARTCHAR uni092F093C094D0930094D
ENCODING -1
SWIDTH 323 0
DWIDTH 3 0
BBX 4 6 0 -1
BITMAP
E0
40
90
60
40
20
ENDCHAR
STARTCHAR uni0915094D0915
ENCODING -1
SWIDTH 1255 0
DWIDTH 10 0
BBX 10 5 0 0
BITMAP
FFC0
5D80
A940
A940
6680
ENDCHAR
STARTCHAR uni0915094D0916
ENCODING -1
SWIDTH 1256 0
DWIDTH 10 0
BBX 10 5 0 0
BITMAP
FFC0
5B40
A540
A580
6240
ENDCHAR
STARTCHAR uni0915094D091A
ENCODING -1
SWIDTH 1086 0
DWIDTH 9 0
BBX 9 5 0 0
BITMAP
FF80
5F00
A500
A700
6100
ENDCHAR
STARTCHAR uni0915094D091C
ENCODING -1
SWIDTH 1071 0
DWIDTH 9 0
BBX 9 5 0 0
BITMAP
FF80
5F00
A300
A300
6D00
ENDCHAR
STARTCHAR uni0915094D091F
ENCODING -1
SWIDTH 984 0
DWIDTH 8 0
BBX 8 5 0 0
BITMAP
FF
5E
A8
A9
6F
ENDCHAR
STARTCHAR uni0915094D0923
ENCODING -1
SWIDTH 1183 0
DWIDTH 9 0
BBX 10 5 0 0
BITMAP
FFC0
5A80
AA80
A680
6080
ENDCHAR
STARTCHAR uni0915094D0924
ENCODING -1
SWIDTH 761 0
DWIDTH 6 0
BBX 6 5 0 0
BITMAP
FC
E8
54
54
58
ENDCHAR
STARTCHAR uni0915094D0925
ENCODING -1
SWIDTH 1118 0
DWIDTH 9 0
BBX 9 5 0 0
BITMAP
F680
5E80
A880
A700
6080
ENDCHAR
STARTCHAR uni0915094D0926
ENCODING -1
SWIDTH 1009 0
DWIDTH 8 0
BBX 8 5 0 0
BITMAP
FF
5E
A8
A9
66
ENDCHAR
STARTCHAR uni0915094D092A
ENCODING -1
SWIDTH 1007 0
DWIDTH 8 0
BBX 8 5 0 0
BITMAP
FF
59
A9
A6
61
ENDCHAR
STARTCHAR uni0915094D092B
ENCODING -1
SWIDTH 1242 0
DWIDTH 10 0
BBX 10 5 0 0
BITMAP
FFC0
5980
A940
A640
6180
ENDCHAR
STARTCHAR uni0915094D092E
ENCODING -1
SWIDTH 994 0
DWIDTH 8 0
BBX 8 5 0 0
BITMAP
FF
59
A6
A9
61
ENDCHAR
STARTCHAR uni0915094D092F
ENCODING -1
SWIDTH 1076 0
DWIDTH 9 0
BBX 9 5 0 0
BITMAP
FF80
5D00
A900
A700
6100
ENDCHAR
STARTCHAR uni0915094D0932
ENCODING -1
SWIDTH 1178 0
DWIDTH 9 0
BBX 10 5 0 0
BITMAP
FFC0
5D80
AA80
AA80
6C80
ENDCHAR
STARTCHAR uni0915094D0935
ENCODING -1
SWIDTH 1013 0
DWIDTH 8 0
BBX 8 5 0 0
BITMAP
FF
5D
A9
A9
66
ENDCHAR
STARTCHAR uni0915094D0936
ENCODING -1
SWIDTH 1194 0
DWIDTH 10 0
BBX 10 5 0 0
BITMAP
FFC0
5980
A680
A480
6280
ENDCHAR
STARTCHAR uni0915094D0938
ENCODING -1
SWIDTH 1143 0
DWIDTH 9 0
BBX 9 5 0 0
BITMAP
FF80
5A80
A700
A480
6280
ENDCHAR
STARTCHAR uni0916094D0916
ENCODING -1
SWIDTH 1223 0
DWIDTH 10 0
BBX 10 5 0 0
BITMAP
FFC0
5380
EE80
5580
4480
ENDCHAR
STARTCHAR uni0916094D0924
ENCODING -1
SWIDTH 984 0
DWIDTH 8 0
BBX 8 5 0 0
BITMAP
FF
56
EA
5A
4E
ENDCHAR
STARTCHAR uni0916094D092E
ENCODING -1
SWIDTH 965 0
DWIDTH 8 0
BBX 8 5 0 0
BITMAP
FF
5A
EE
5A
42
ENDCHAR
STARTCHAR uni0916094D092F
ENCODING -1
SWIDTH 1047 0
DWIDTH 8 0
BBX 9 5 0 0
BITMAP
FF80
5500
E900
5700
4100
ENDCHAR
STARTCHAR uni0916094D0935
ENCODING -1
SWIDTH 975 0
DWIDTH 8 0
BBX 8 5 0 0
BITMAP
FF
56
EA
5A
46
ENDCHAR
STARTCHAR uni0916094D0936
ENCODING -1
SWIDTH 1123 0
DWIDTH 9 0
BBX 9 5 0 0
BITMAP
FE80
5A80
EC80
5880
4480
ENDCHAR
STARTCHAR uni0917094D0917
ENCODING -1
SWIDTH 744 0
DWIDTH 6 0
BBX 6 5 0 0
BITMAP
FC
54
54
A4
04
ENDCHAR
STARTCHAR uni0917094D0918
ENCODING -1
SWIDTH 823 0
DWIDTH 7 0
BBX 7 5 0 0
BITMAP
FE
64
54
A4
1C
ENDCHAR
STARTCHAR uni0917094D091C
ENCODING -1
SWIDTH 801 0
DWIDTH 6 0
BBX 7 5 0 0
BITMAP
FE
5C
4C
8C
34
ENDCHAR
STARTCHAR uni0917094D0923
ENCODING -1
SWIDTH 945 0
DWIDTH 8 0
BBX 8 5 0 0
BITMAP
FF
6A
6A
9A
02
ENDCHAR
STARTCHAR uni0917094D0926
ENCODING -1
SWIDTH 748 0
DWIDTH 6 0
BBX 6 5 0 0
BITMAP
FC
58
60
A4
18
ENDCHAR
STARTCHAR uni0917094D0927
ENCODING -1
SWIDTH 823 0
DWIDTH 7 0
BBX 7 5 0 0
BITMAP
F6
64
54
A4
1C
ENDCHAR
STARTCHAR uni0917094D092C
ENCODING -1
SWIDTH 755 0
DWIDTH 6 0
BBX 6 5 0 0
BITMAP
FC
54
54
A8
18
ENDCHAR
STARTCHAR uni0917094D092D
ENCODING -1
SWIDTH 755 0
DWIDTH 6 0
BBX 6 5 0 0
BITMAP
EC
64
58
A4
04
ENDCHAR
STARTCHAR uni0917094D092E
ENCODING -1
SWIDTH 754 0
DWIDTH 6 0
BBX 6 5 0 0
BITMAP
FC
64
58
A4
04
ENDCHAR
STARTCHAR uni0917094D092F
ENCODING -1
SWIDTH 828 0
DWIDTH 7 0
BBX 7 5 0 0
BITMAP
FE
4C
54
9C
04
ENDCHAR
STARTCHAR uni0917094D0932
ENCODING -1
SWIDTH 924 0
DWIDTH 7 0
BBX 8 5 0 0
BITMAP
FF
56
6A
AA
32
ENDCHAR
STARTCHAR uni0917094D0935
ENCODING -1
SWIDTH 747 0
DWIDTH 6 0
BBX 6 5 0 0
BITMAP
FC
54
64
A4
18
ENDCHAR
STARTCHAR uni0917094D0938
ENCODING -1
SWIDTH 839 0
DWIDTH 7 0
BBX 7 5 0 0
BITMAP
FE
54
7C
94
14
ENDCHAR
STARTCHAR uni0918094D092E
ENCODING -1
SWIDTH 818 0
DWIDTH 7 0
BBX 7 5 0 0
BITMAP
FE
94
5C
94
64
ENDCHAR
STARTCHAR uni0918094D092F
ENCODING -1
SWIDTH 867 0
DWIDTH 7 0
BBX 7 5 0 0
BITMAP
FE
8A
52
9C
62
ENDCHAR
STARTCHAR uni091A094D091A
ENCODING -1
SWIDTH 868 0
DWIDTH 7 0
BBX 7 5 0 0
BITMAP
FE
DA
52
6C
02
ENDCHAR
STARTCHAR uni091A094D091B
ENCODING -1
SWIDTH 922 0
DWIDTH 7 0
BBX 7 5 0 0
BITMAP
FE
12
EE
52
7E
ENDCHAR
STARTCHAR uni091A094D092E
ENCODING -1
SWIDTH 830 0
DWIDTH 7 0
BBX 7 5 0 0
BITMAP
FE
F4
5C
64
04
ENDCHAR
STARTCHAR uni091A094D092F
ENCODING -1
SWIDTH 904 0
DWIDTH 7 0
BBX 7 5 0 0
BITMAP
FE
EA
52
6E
02
ENDCHAR
STARTCHAR uni091B094D092F
ENCODING -1
SWIDTH 1068 0
DWIDTH 9 0
BBX 9 5 0 0
BITMAP
FF80
9D00
5500
9500
F700
ENDCHAR
STARTCHAR uni091B094D0935
ENCODING -1
SWIDTH 581 0
DWIDTH 5 0
BBX 5 6 0 -1
BITMAP
F8
90
50
70
50
60
ENDCHAR
STARTCHAR uni091C094D0915
ENCODING -1
SWIDTH 1054 0
DWIDTH 8 0
BBX 9 5 0 0
BITMAP
FF80
7F00
3500
3500
CE00
ENDCHAR
STARTCHAR uni091C094D091C
ENCODING -1
SWIDTH 903 0
DWIDTH 7 0
BBX 7 5 0 0
BITMAP
FE
6C
2A
2A
DA
ENDCHAR
STARTCHAR uni091C094D091D
ENCODING -1
SWIDTH 990 0
DWIDTH 8 0
BBX 8 5 0 0
BITMAP
FF
7A
2E
36
DE
ENDCHAR
STARTCHAR uni091C094D091F
ENCODING -1
SWIDTH 815 0
DWIDTH 7 0
BBX 7 5 0 0
BITMAP
FE
0C
70
50
DC
ENDCHAR
STARTCHAR uni091C094D0921
ENCODING -1
SWIDTH 797 0
DWIDTH 6 0
BBX 6 5 0 0
BITMAP
FC
7C
50
4C
DC
ENDCHAR
STARTCHAR uni091C094D0924
ENCODING -1
SWIDTH 830 0
DWIDTH 7 0
BBX 7 5 0 0
BITMAP
FE
7C
54
54
DC
ENDCHAR
STARTCHAR uni091C094D0926
ENCODING -1
SWIDTH 817 0
DWIDTH 7 0
BBX 7 5 0 0
BITMAP
FE
7C
30
34
CC
ENDCHAR
STARTCHAR uni091C094D092C
ENCODING -1
SWIDTH 820 0
DWIDTH 7 0
BBX 7 5 0 0
BITMAP
FE
7C
3C
34
CC
ENDCHAR
STARTCHAR uni091C094D092E
ENCODING -1
SWIDTH 813 0
DWIDTH 7 0
BBX 7 5 0 0
BITMAP
FE
74
3C
34
C4
ENDCHAR
STARTCHAR uni091C094D092F
ENCODING -1
SWIDTH 893 0
DWIDTH 7 0
BBX 7 5 0 0
BITMAP
FE
6A
52
4C
C2
ENDCHAR
STARTCHAR uni091C094D0935
ENCODING -1
SWIDTH 813 0
DWIDTH 7 0
BBX 7 5 0 0
BITMAP
FE
7C
34
34
CC
ENDCHAR
STARTCHAR uni091D094D092E
ENCODING -1
SWIDTH 936 0
DWIDTH 7 0
BBX 8 5 0 0
BITMAP
FF
6A
7E
AA
E2
ENDCHAR
STARTCHAR uni091D094D092F
ENCODING -1
SWIDTH 1000 0
DWIDTH 8 0
BBX 8 5 0 0
BITMAP
FF
65
79
AE
E1
ENDCHAR
STARTCHAR uni091E094D091B
ENCODING -1
SWIDTH 913 0
DWIDTH 7 0
BBX 7 5 0 0
BITMAP
FE
D2
3E
32
DE
ENDCHAR
STARTCHAR uni091E094D091C
ENCODING -1
SWIDTH 932 0
DWIDTH 7 0
BBX 8 5 0 0
BITMAP
FF
CE
26
26
DA
ENDCHAR
STARTCHAR uni091E094D0936
ENCODING -1
SWIDTH 975 0
DWIDTH 8 0
BBX 8 5 0 0
BITMAP
FF
D6
3A
2A
CA
ENDCHAR
STARTCHAR uni091F094D091F
ENCODING -1
SWIDTH 494 0
DWIDTH 4 0
BBX 4 8 0 -3
BITMAP
F0
60
90
60
60
80
90
60
ENDCHAR
STARTCHAR uni091F094D0920
ENCODING -1
SWIDTH 495 0
DWIDTH 4 0
BBX 4 8 0 -3
BITMAP
F0
60
90
60
60
90
90
60
ENDCHAR
STARTCHAR uni091F094D092F
ENCODING -1
SWIDTH 990 0
DWIDTH 8 0
BBX 8 5 0 0
BITMAP
FF
79
85
89
FE
ENDCHAR
STARTCHAR uni091F094D0935
ENCODING -1
SWIDTH 501 0
DWIDTH 4 0
BBX 4 6 0 -1
BITMAP
F0
60
90
60
90
60
ENDCHAR
STARTCHAR uni0920094D092F
ENCODING -1
SWIDTH 998 0
DWIDTH 8 0
BBX 8 5 0 0
BITMAP
FF
69
95
99
FE
ENDCHAR
STARTCHAR uni0921094D0921
ENCODING -1
SWIDTH 493 0
DWIDTH 4 0
BBX 4 8 0 -3
BITMAP
F0
60
60
90
60
60
90
60
ENDCHAR
STARTCHAR uni0921094D0922
ENCODING -1
SWIDTH 493 0
DWIDTH 4 0
BBX 4 7 0 -2
BITMAP
F0
60
60
90
60
A0
F0
ENDCHAR
STARTCHAR uni0921094D092F
ENCODING -1
SWIDTH 973 0
DWIDTH 8 0
BBX 8 5 0 0
BITMAP
FF
7A
86
6A
F6
ENDCHAR
STARTCHAR uni0921094D0935
ENCODING -1
SWIDTH 493 0
DWIDTH 4 0
BBX 4 6 0 -1
BITMAP
F0
60
60
90
60
60
ENDCHAR
STARTCHAR uni0922094D092F
ENCODING -1
SWIDTH 981 0
DWIDTH 8 0
BBX 8 5 0 0
BITMAP
FF
7A
A6
BA
FE
ENDCHAR
STARTCHAR uni0923094D091F
ENCODING -1
SWIDTH 908 0
DWIDTH 7 0
BBX 7 5 0 0
BITMAP
FE
AC
A8
6A
0E
ENDCHAR
STARTCHAR uni0923094D0920
ENCODING -1
SWIDTH 936 0
DWIDTH 7 0
BBX 8 5 0 0
BITMAP
FF
AC
AA
6A
0E
ENDCHAR
STARTCHAR uni0923094D0921
ENCODING -1
SWIDTH 892 0
DWIDTH 7 0
BBX 7 5 0 0
BITMAP
FE
AC
A8
66
0E
ENDCHAR
STARTCHAR uni0923094D0922
ENCODING -1
SWIDTH 908 0
DWIDTH 7 0
BBX 7 5 0 0
BITMAP
FE
AC
A8
6E
0E
ENDCHAR
STARTCHAR uni0923094D0923
ENCODING -1
SWIDTH 1127 0
DWIDTH 9 0
BBX 9 5 0 0
BITMAP
FF80
AA80
AA80
6480
0080
ENDCHAR
STARTCHAR uni0923094D092E
ENCODING -1
SWIDTH 932 0
DWIDTH 7 0
BBX 8 5 0 0
BITMAP
FF
AA
AE
6A
02
ENDCHAR
STARTCHAR uni0923094D092F
ENCODING -1
SWIDTH 998 0
DWIDTH 8 0
BBX 8 5 0 0
BITMAP
FF
A5
A9
4E
01
ENDCHAR
STARTCHAR uni0923094D0935
ENCODING -1
SWIDTH 923 0
DWIDTH 7 0
BBX 8 5 0 0
BITMAP
FF
AE
AA
6A
06
ENDCHAR
STARTCHAR uni0924094D0915
ENCODING -1
SWIDTH 992 0
DWIDTH 8 0
BBX 8 5 0 0
BITMAP
FF
76
A5
A5
DA
ENDCHAR
STARTCHAR uni0924094D0916
ENCODING -1
SWIDTH 1014 0
DWIDTH 8 0
BBX 8 5 0 0
BITMAP
FF
6D
95
96
C9
ENDCHAR
STARTCHAR uni0924094D0924
ENCODING -1
SWIDTH 542 0
DWIDTH 4 0
BBX 4 5 0 0
BITMAP
F0
F0
50
50
50
ENDCHAR
STARTCHAR uni0924094D0925
ENCODING -1
SWIDTH 869 0
DWIDTH 7 0
BBX 7 5 0 0
BITMAP
DA
0A
72
9C
C2
ENDCHAR
STARTCHAR uni0924094D092A
ENCODING -1
SWIDTH 757 0
DWIDTH 6 0
BBX 6 5 0 0
BITMAP
FC
64
A4
98
C4
ENDCHAR
STARTCHAR uni0924094D092B
ENCODING -1
SWIDTH 992 0
DWIDTH 8 0
BBX 8 5 0 0
BITMAP
FF
66
A5
99
C6
ENDCHAR
STARTCHAR uni0924094D092E
ENCODING -1
SWIDTH 764 0
DWIDTH 6 0
BBX 6 5 0 0
BITMAP
FC
64
98
94
C4
ENDCHAR
STARTCHAR uni0924094D092F
ENCODING -1
SWIDTH 830 0
DWIDTH 7 0
BBX 7 5 0 0
BITMAP
FE
0C
74
9C
C4
ENDCHAR
STARTCHAR uni0924094D0932
ENCODING -1
SWIDTH 957 0
DWIDTH 8 0
BBX 8 5 0 0
BITMAP
FF
7E
9A
9A
D2
ENDCHAR
STARTCHAR uni0924094D0935
ENCODING -1
SWIDTH 751 0
DWIDTH 6 0
BBX 6 5 0 0
BITMAP
FC
74
A4
A4
D8
ENDCHAR
STARTCHAR uni0924094D0938
ENCODING -1
SWIDTH 876 0
DWIDTH 7 0
BBX 7 5 0 0
BITMAP
FE
6A
9C
92
D2
ENDCHAR
STARTCHAR uni0925094D092F
ENCODING -1
SWIDTH 931 0
DWIDTH 7 0
BBX 8 5 0 0
BITMAP
7F
AA
DA
6E
02
ENDCHAR
STARTCHAR uni0925094D0935
ENCODING -1
SWIDTH 862 0
DWIDTH 7 0
BBX 7 5 0 0
BITMAP
7E
AC
D4
74
0C
ENDCHAR
STARTCHAR uni0926094D0917
ENCODING -1
SWIDTH 489 0
DWIDTH 4 0
BBX 4 6 0 -1
BITMAP
F0
60
80
60
50
80
ENDCHAR
STARTCHAR uni0926094D0918
ENCODING -1
SWIDTH 686 0
DWIDTH 5 0
BBX 6 6 0 -1
BITMAP
FC
18
E0
68
98
60
ENDCHAR
STARTCHAR uni0926094D0926
ENCODING -1
SWIDTH 506 0
DWIDTH 4 0
BBX 4 6 0 -1
BITMAP
F0
60
80
40
F0
10
ENDCHAR
STARTCHAR uni0926094D0927
ENCODING -1
SWIDTH 686 0
DWIDTH 5 0
BBX 6 6 0 -1
BITMAP
FC
18
E0
68
98
60
ENDCHAR
STARTCHAR uni0926094D092C
ENCODING -1
SWIDTH 481 0
DWIDTH 4 0
BBX 4 6 0 -1
BITMAP
F0
60
80
90
60
60
ENDCHAR
STARTCHAR uni0926094D092D
ENCODING -1
SWIDTH 499 0
DWIDTH 4 0
BBX 4 6 0 -1
BITMAP
F0
60
90
F0
50
60
ENDCHAR
STARTCHAR uni0926094D092E
ENCODING -1
SWIDTH 706 0
DWIDTH 6 0
BBX 6 5 0 0
BITMAP
FC
68
88
78
28
ENDCHAR
STARTCHAR uni0926094D092F
ENCODING -1
SWIDTH 583 0
DWIDTH 5 0
BBX 5 5 0 0
BITMAP
F8
50
50
90
F0
ENDCHAR
STARTCHAR uni0926094D0935
ENCODING -1
SWIDTH 483 0
DWIDTH 4 0
BBX 4 6 0 -1
BITMAP
F0
60
80
90
60
60
ENDCHAR
STARTCHAR uni0927094D092E
ENCODING -1
SWIDTH 817 0
DWIDTH 7 0
BBX 7 5 0 0
BITMAP
DE
94
DC
94
64
ENDCHAR
STARTCHAR uni0927094D092F
ENCODING -1
SWIDTH 886 0
DWIDTH 7 0
BBX 7 5 0 0
BITMAP
DE
8A
52
9C
62
ENDCHAR
STARTCHAR uni0927094D0935
ENCODING -1
SWIDTH 810 0
DWIDTH 6 0
BBX 7 5 0 0
BITMAP
DE
8C
54
94
6C
ENDCHAR
STARTCHAR uni0928094D0915
ENCODING -1
SWIDTH 973 0
DWIDTH 8 0
BBX 8 5 0 0
BITMAP
FF
16
69
A9
1A
ENDCHAR
STARTCHAR uni0928094D091A
ENCODING -1
SWIDTH 820 0
DWIDTH 7 0
BBX 7 5 0 0
BITMAP
FE
3C
64
9C
04
ENDCHAR
STARTCHAR uni0928094D091B
ENCODING -1
SWIDTH 781 0
DWIDTH 6 0
BBX 6 5 0 0
BITMAP
FC
24
7C
A4
3C
ENDCHAR
STARTCHAR uni0928094D091F
ENCODING -1
SWIDTH 715 0
DWIDTH 6 0
BBX 6 5 0 0
BITMAP
FC
18
60
A4
38
ENDCHAR
STARTCHAR uni0928094D0921
ENCODING -1
SWIDTH 705 0
DWIDTH 6 0
BBX 6 5 0 0
BITMAP
FC
18
60
98
38
ENDCHAR
STARTCHAR uni0928094D0924
ENCODING -1
SWIDTH 717 0
DWIDTH 6 0
BBX 6 5 0 0
BITMAP
FC
18
68
A8
38
ENDCHAR
STARTCHAR uni0928094D0925
ENCODING -1
SWIDTH 804 0
DWIDTH 6 0
BBX 7 5 0 0
BITMAP
F6
2C
F4
1C
04
ENDCHAR
STARTCHAR uni0928094D0926
ENCODING -1
SWIDTH 724 0
DWIDTH 6 0
BBX 6 5 0 0
BITMAP
FC
18
60
A8
18
ENDCHAR
STARTCHAR uni0928094D0927
ENCODING -1
SWIDTH 753 0
DWIDTH 6 0
BBX 6 5 0 0
BITMAP
EC
24
74
A4
18
ENDCHAR
STARTCHAR uni0928094D092A
ENCODING -1
SWIDTH 742 0
DWIDTH 6 0
BBX 6 5 0 0
BITMAP
FC
24
64
98
04
ENDCHAR
STARTCHAR uni0928094D092B
ENCODING -1
SWIDTH 970 0
DWIDTH 8 0
BBX 8 5 0 0
BITMAP
FF
26
69
99
0A
ENDCHAR
STARTCHAR uni0928094D092D
ENCODING -1
SWIDTH 739 0
DWIDTH 6 0
BBX 6 5 0 0
BITMAP
EC
28
78
A8
08
ENDCHAR
STARTCHAR uni0928094D092E
ENCODING -1
SWIDTH 735 0
DWIDTH 6 0
BBX 6 5 0 0
BITMAP
FC
28
78
A8
08
ENDCHAR
STARTCHAR uni0928094D092F
ENCODING -1
SWIDTH 801 0
DWIDTH 6 0
BBX 7 5 0 0
BITMAP
FE
14
F4
1C
04
ENDCHAR
STARTCHAR uni0928094D0935
ENCODING -1
SWIDTH 732 0
DWIDTH 6 0
BBX 6 5 0 0
BITMAP
FC
18
68
A8
18
ENDCHAR
STARTCHAR uni0928094D0938
ENCODING -1
SWIDTH 867 0
DWIDTH 7 0
BBX 7 5 0 0
BITMAP
FE
0A
FC
12
12
ENDCHAR
STARTCHAR uni0928094D0939
ENCODING -1
SWIDTH 714 0
DWIDTH 6 0
BBX 6 6 0 -1
BITMAP
FC
18
F8
28
20
18
ENDCHAR
STARTCHAR uni092A094D091F
ENCODING -1
SWIDTH 489 0
DWIDTH 4 0
BBX 4 5 0 0
BITMAP
F0
90
60
80
F0
ENDCHAR
STARTCHAR uni092A094D0920
ENCODING -1
SWIDTH 506 0
DWIDTH 4 0
BBX 4 5 0 0
BITMAP
F0
90
60
90
F0
ENDCHAR
STARTCHAR uni092A094D0924
ENCODING -1
SWIDTH 495 0
DWIDTH 4 0
BBX 4 5 0 0
BITMAP
F0
90
60
90
D0
ENDCHAR
STARTCHAR uni092A094D092A
ENCODING -1
SWIDTH 770 0
DWIDTH 6 0
BBX 6 5 0 0
BITMAP
FC
A4
A4
78
04
ENDCHAR
STARTCHAR uni092A094D092B
ENCODING -1
SWIDTH 1003 0
DWIDTH 8 0
BBX 8 5 0 0
BITMAP
FF
A6
A5
79
06
ENDCHAR
STARTCHAR uni092A094D092E
ENCODING -1
SWIDTH 774 0
DWIDTH 6 0
BBX 6 5 0 0
BITMAP
FC
94
98
64
04
ENDCHAR
STARTCHAR uni092A094D092F
ENCODING -1
SWIDTH 855 0
DWIDTH 7 0
BBX 7 5 0 0
BITMAP
FE
8C
94
7C
04
ENDCHAR
STARTCHAR uni092A094D0932
ENCODING -1
SWIDTH 960 0
DWIDTH 8 0
BBX 8 5 0 0
BITMAP
FF
9E
9A
62
12
ENDCHAR
STARTCHAR uni092A094D0935
ENCODING -1
SWIDTH 780 0
DWIDTH 6 0
BBX 6 5 0 0
BITMAP
FC
9C
94
64
1C
ENDCHAR
STARTCHAR uni092A094D0938
ENCODING -1
SWIDTH 880 0
DWIDTH 7 0
BBX 7 5 0 0
BITMAP
FE
8A
9C
72
12
ENDCHAR
STARTCHAR uni092B094D091C
ENCODING -1
SWIDTH 1100 0
DWIDTH 9 0
BBX 9 5 0 0
BITMAP
FF80
9F00
9300
6300
1500
ENDCHAR
STARTCHAR uni092B094D091F
ENCODING -1
SWIDTH 1006 0
DWIDTH 8 0
BBX 8 5 0 0
BITMAP
FF
9E
98
69
17
ENDCHAR
STARTCHAR uni092B094D0924
ENCODING -1
SWIDTH 1034 0
DWIDTH 8 0
BBX 8 5 0 0
BITMAP
FF
9F
95
65
15
ENDCHAR
STARTCHAR uni092B094D092A
ENCODING -1
SWIDTH 1021 0
DWIDTH 8 0
BBX 8 5 0 0
BITMAP
FF
99
99
66
11
ENDCHAR
STARTCHAR uni092B094D092B
ENCODING -1
SWIDTH 1256 0
DWIDTH 10 0
BBX 10 5 0 0
BITMAP
FFC0
9980
9940
6640
1180
ENDCHAR
STARTCHAR uni092B094D092F
ENCODING -1
SWIDTH 1120 0
DWIDTH 9 0
BBX 9 5 0 0
BITMAP
FF80
9D00
9900
7700
1100
ENDCHAR
STARTCHAR uni092B094D0932
ENCODING -1
SWIDTH 1202 0
DWIDTH 10 0
BBX 10 5 0 0
BITMAP
FFC0
9F80
9A80
6A80
1480
ENDCHAR
STARTCHAR uni092B094D0936
ENCODING -1
SWIDTH 1211 0
DWIDTH 10 0
BBX 10 5 0 0
BITMAP
FFC0
9980
9680
6480
1280
ENDCHAR
STARTCHAR uni092C094D091C
ENCODING -1
SWIDTH 883 0
DWIDTH 7 0
BBX 7 5 0 0
BITMAP
FE
5C
CA
AA
72
ENDCHAR
STARTCHAR uni092C094D091D
ENCODING -1
SWIDTH 962 0
DWIDTH 8 0
BBX 8 6 0 -1
BITMAP
FF
5A
BE
66
1E
10
ENDCHAR
STARTCHAR uni092C094D0924
ENCODING -1
SWIDTH 786 0
DWIDTH 6 0
BBX 6 5 0 0
BITMAP
FC
DC
D4
A4
74
ENDCHAR
STARTCHAR uni092C094D0926
ENCODING -1
SWIDTH 775 0
DWIDTH 6 0
BBX 6 5 0 0
BITMAP
FC
58
50
A4
7C
ENDCHAR
STARTCHAR uni092C094D0927
ENCODING -1
SWIDTH 844 0
DWIDTH 7 0
BBX 7 5 0 0
BITMAP
F6
54
54
A4
7C
ENDCHAR
STARTCHAR uni092C094D092C
ENCODING -1
SWIDTH 783 0
DWIDTH 6 0
BBX 6 5 0 0
BITMAP
FC
5C
54
AC
7C
ENDCHAR
STARTCHAR uni092C094D092D
ENCODING -1
SWIDTH 764 0
DWIDTH 6 0
BBX 6 5 0 0
BITMAP
EC
54
58
A4
64
ENDCHAR
STARTCHAR uni092C094D092F
ENCODING -1
SWIDTH 852 0
DWIDTH 7 0
BBX 7 5 0 0
BITMAP
FE
4C
54
BC
64
ENDCHAR
STARTCHAR uni092C094D0932
ENCODING -1
SWIDTH 961 0
DWIDTH 8 0
BBX 8 5 0 0
BITMAP
FF
5E
DA
AA
72
ENDCHAR
STARTCHAR uni092C094D0935
ENCODING -1
SWIDTH 776 0
DWIDTH 6 0
BBX 6 5 0 0
BITMAP
FC
58
54
A4
78
ENDCHAR
STARTCHAR uni092C094D0936
ENCODING -1
SWIDTH 926 0
DWIDTH 7 0
BBX 8 5 0 0
BITMAP
DB
5A
DA
B2
6A
ENDCHAR
STARTCHAR uni092C094D0938
ENCODING -1
SWIDTH 897 0
DWIDTH 7 0
BBX 7 5 0 0
BITMAP
FE
4A
5C
B2
6A
ENDCHAR
STARTCHAR uni092D094D092F
ENCODING -1
SWIDTH 827 0
DWIDTH 7 0
BBX 7 5 0 0
BITMAP
BE
8C
74
1C
04
ENDCHAR
STARTCHAR uni092D094D0932
ENCODING -1
SWIDTH 941 0
DWIDTH 8 0
BBX 8 5 0 0
BITMAP
BF
96
6A
AA
12
ENDCHAR
STARTCHAR uni092D094D0935
ENCODING -1
SWIDTH 755 0
DWIDTH 6 0
BBX 6 5 0 0
BITMAP
BC
94
64
A4
18
ENDCHAR
STARTCHAR uni092E094D0924
ENCODING -1
SWIDTH 765 0
DWIDTH 6 0
BBX 6 5 0 0
BITMAP
FC
98
64
A4
14
ENDCHAR
STARTCHAR uni092E094D0926
ENCODING -1
SWIDTH 766 0
DWIDTH 6 0
BBX 6 5 0 0
BITMAP
FC
98
60
A4
1C
ENDCHAR
STARTCHAR uni092E094D092A
ENCODING -1
SWIDTH 762 0
DWIDTH 6 0
BBX 6 5 0 0
BITMAP
FC
A4
64
98
04
ENDCHAR
STARTCHAR uni092E094D092C
ENCODING -1
SWIDTH 768 0
DWIDTH 6 0
BBX 6 5 0 0
BITMAP
FC
94
74
A8
18
ENDCHAR
STARTCHAR uni092E094D092D
ENCODING -1
SWIDTH 768 0
DWIDTH 6 0
BBX 6 5 0 0
BITMAP
EC
94
78
94
04
ENDCHAR
STARTCHAR uni092E094D092E
ENCODING -1
SWIDTH 759 0
DWIDTH 6 0
BBX 6 5 0 0
BITMAP
FC
A4
78
A4
04
ENDCHAR
STARTCHAR uni092E094D092F
ENCODING -1
SWIDTH 834 0
DWIDTH 7 0
BBX 7 5 0 0
BITMAP
FE
8C
74
1C
04
ENDCHAR
STARTCHAR uni092E094D0932
ENCODING -1
SWIDTH 945 0
DWIDTH 8 0
BBX 8 5 0 0
BITMAP
FF
96
6A
AA
12
ENDCHAR
STARTCHAR uni092E094D0935
ENCODING -1
SWIDTH 761 0
DWIDTH 6 0
BBX 6 5 0 0
BITMAP
FC
94
64
A4
18
ENDCHAR
STARTCHAR uni092E094D0936
ENCODING -1
SWIDTH 884 0
DWIDTH 7 0
BBX 7 5 0 0
BITMAP
DA
AA
72
92
12
ENDCHAR
STARTCHAR uni092E094D0938
ENCODING -1
SWIDTH 816 0
DWIDTH 7 0
BBX 7 5 0 0
BITMAP
FE
94
7C
A4
14
ENDCHAR
STARTCHAR uni092E094D0939
ENCODING -1
SWIDTH 758 0
DWIDTH 6 0
BBX 6 6 0 -1
BITMAP
FC
98
F8
14
10
18
ENDCHAR
STARTCHAR uni092F094D092F
ENCODING -1
SWIDTH 897 0
DWIDTH 7 0
BBX 7 5 0 0
BITMAP
FE
4A
52
6C
02
ENDCHAR
STARTCHAR uni0930094D092F
ENCODING -1
SWIDTH 713 0
DWIDTH 6 0
BBX 6 5 0 0
BITMAP
FC
18
E8
38
08
ENDCHAR
STARTCHAR uni0930094D0939
ENCODING -1
SWIDTH 619 0
DWIDTH 5 0
BBX 5 6 0 -1
BITMAP
F8
30
F0
48
40
30
ENDCHAR
STARTCHAR uni0932094D0915
ENCODING -1
SWIDTH 1182 0
DWIDTH 9 0
BBX 10 5 0 0
BITMAP
FFC0
5F00
AA80
AA80
C700
ENDCHAR
STARTCHAR uni0932094D0916
ENCODING -1
SWIDTH 1195 0
DWIDTH 10 0
BBX 10 5 0 0
BITMAP
FFC0
5580
AE80
8580
C480
ENDCHAR
STARTCHAR uni0932094D0917
ENCODING -1
SWIDTH 950 0
DWIDTH 8 0
BBX 8 5 0 0
BITMAP
FF
5A
AA
A2
C2
ENDCHAR
STARTCHAR uni0932094D091C
ENCODING -1
SWIDTH 1035 0
DWIDTH 8 0
BBX 8 5 0 0
BITMAP
FF
5F
A5
A5
CD
ENDCHAR
STARTCHAR uni0932094D091F
ENCODING -1
SWIDTH 929 0
DWIDTH 7 0
BBX 8 5 0 0
BITMAP
FF
56
A8
AA
CE
ENDCHAR
STARTCHAR uni0932094D0920
ENCODING -1
SWIDTH 953 0
DWIDTH 8 0
BBX 8 5 0 0
BITMAP
FF
54
AA
AA
CE
ENDCHAR
STARTCHAR uni0932094D0921
ENCODING -1
SWIDTH 916 0
DWIDTH 7 0
BBX 7 5 0 0
BITMAP
FE
5E
A8
A6
CE
ENDCHAR
STARTCHAR uni0932094D0922
ENCODING -1
SWIDTH 924 0
DWIDTH 7 0
BBX 8 5 0 0
BITMAP
FF
56
A8
AE
CE
ENDCHAR
STARTCHAR uni0932094D0924
ENCODING -1
SWIDTH 929 0
DWIDTH 7 0
BBX 8 5 0 0
BITMAP
FF
56
AA
8A
CA
ENDCHAR
STARTCHAR uni0932094D0925
ENCODING -1
SWIDTH 1061 0
DWIDTH 8 0
BBX 9 5 0 0
BITMAP
FF80
5300
AD00
A900
C700
ENDCHAR
STARTCHAR uni0932094D0926
ENCODING -1
SWIDTH 939 0
DWIDTH 8 0
BBX 8 5 0 0
BITMAP
FF
56
A8
AA
C6
ENDCHAR
STARTCHAR uni0932094D092A
ENCODING -1
SWIDTH 939 0
DWIDTH 8 0
BBX 8 5 0 0
BITMAP
FF
5A
AA
86
C2
ENDCHAR
STARTCHAR uni0932094D092B
ENCODING -1
SWIDTH 1176 0
DWIDTH 9 0
BBX 10 5 0 0
BITMAP
FFC0
5B00
AA80
A680
C300
ENDCHAR
STARTCHAR uni0932094D092C
ENCODING -1
SWIDTH 949 0
DWIDTH 8 0
BBX 8 5 0 0
BITMAP
FF
5E
AE
AA
C6
ENDCHAR
STARTCHAR uni0932094D092D
ENCODING -1
SWIDTH 931 0
DWIDTH 7 0
BBX 8 5 0 0
BITMAP
FB
5A
AE
AA
C2
ENDCHAR
STARTCHAR uni0932094D092E
ENCODING -1
SWIDTH 931 0
DWIDTH 7 0
BBX 8 5 0 0
BITMAP
FF
5A
AE
AA
C2
ENDCHAR
STARTCHAR uni0932094D092F
ENCODING -1
SWIDTH 1033 0
DWIDTH 8 0
BBX 8 5 0 0
BITMAP
FF
55
A9
87
C1
ENDCHAR
STARTCHAR uni0932094D0932
ENCODING -1
SWIDTH 1112 0
DWIDTH 9 0
BBX 9 5 0 0
BITMAP
FF80
5F00
AB00
AB00
CD00
ENDCHAR
STARTCHAR uni0932094D0935
ENCODING -1
SWIDTH 940 0
DWIDTH 8 0
BBX 8 5 0 0
BITMAP
FF
5E
AA
AA
C6
ENDCHAR
STARTCHAR uni0932094D0938
ENCODING -1
SWIDTH 1068 0
DWIDTH 9 0
BBX 9 5 0 0
BITMAP
FF80
5500
AF00
8900
C500
ENDCHAR
STARTCHAR uni0932094D0939
ENCODING -1
SWIDTH 922 0
DWIDTH 7 0
BBX 7 6 0 -1
BITMAP
FE
5E
A8
AE
C8
06
ENDCHAR
STARTCHAR uni0933094D092F
ENCODING -1
SWIDTH 1050 0
DWIDTH 8 0
BBX 9 5 0 0
BITMAP
FF80
5500
AD00
AF00
5100
ENDCHAR
STARTCHAR uni0935094D092F
ENCODING -1
SWIDTH 852 0
DWIDTH 7 0
BBX 7 5 0 0
BITMAP
FE
4C
94
9C
64
ENDCHAR
STARTCHAR uni0935094D0932
ENCODING -1
SWIDTH 961 0
DWIDTH 8 0
BBX 8 5 0 0
BITMAP
FF
5E
9A
9A
7A
ENDCHAR
STARTCHAR uni0935094D0935
ENCODING -1
SWIDTH 776 0
DWIDTH 6 0
BBX 6 5 0 0
BITMAP
FC
58
94
94
78
ENDCHAR
STARTCHAR uni0935094D0939
ENCODING -1
SWIDTH 754 0
DWIDTH 6 0
BBX 6 6 0 -1
BITMAP
FC
58
98
A4
60
18
ENDCHAR
STARTCHAR uni0936094D0915
ENCODING -1
SWIDTH 1093 0
DWIDTH 9 0
BBX 9 5 0 0
BITMAP
FF80
AB00
D480
5480
4D00
ENDCHAR
STARTCHAR uni0936094D091A
ENCODING -1
SWIDTH 950 0
DWIDTH 8 0
BBX 8 5 0 0
BITMAP
FF
3E
CA
4E
42
ENDCHAR
STARTCHAR uni0936094D091B
ENCODING -1
SWIDTH 968 0
DWIDTH 8 0
BBX 8 5 0 0
BITMAP
FF
32
CA
52
4E
ENDCHAR
STARTCHAR uni0936094D091F
ENCODING -1
SWIDTH 854 0
DWIDTH 7 0
BBX 7 5 0 0
BITMAP
FE
AC
D0
52
5C
ENDCHAR
STARTCHAR uni0936094D0924
ENCODING -1
SWIDTH 864 0
DWIDTH 7 0
BBX 7 5 0 0
BITMAP
FE
2C
D4
54
5C
ENDCHAR
STARTCHAR uni0936094D092E
ENCODING -1
SWIDTH 885 0
DWIDTH 7 0
BBX 7 5 0 0
BITMAP
FE
B2
CC
52
42
ENDCHAR
STARTCHAR uni0936094D092F
ENCODING -1
SWIDTH 940 0
DWIDTH 8 0
BBX 8 5 0 0
BITMAP
FF
AA
D2
4E
42
ENDCHAR
STARTCHAR uni0936094D0932
ENCODING -1
SWIDTH 1039 0
DWIDTH 8 0
BBX 8 5 0 0
BITMAP
FF
AB
D5
51
59
ENDCHAR
STARTCHAR uni0936094D0935
ENCODING -1
SWIDTH 850 0
DWIDTH 7 0
BBX 7 5 0 0
BITMAP
FE
AC
D4
54
4C
ENDCHAR
STARTCHAR uni0936094D0936
ENCODING -1
SWIDTH 1009 0
DWIDTH 8 0
BBX 8 5 0 0
BITMAP
ED
B5
C9
49
49
ENDCHAR
STARTCHAR uni0937094D0915
ENCODING -1
SWIDTH 1039 0
DWIDTH 8 0
BBX 8 5 0 0
BITMAP
FF
DE
A5
65
1E
ENDCHAR
STARTCHAR uni0937094D091F
ENCODING -1
SWIDTH 493 0
DWIDTH 4 0
BBX 4 5 0 0
BITMAP
F0
A0
60
80
F0
ENDCHAR
STARTCHAR uni0937094D0920
ENCODING -1
SWIDTH 511 0
DWIDTH 4 0
BBX 4 5 0 0
BITMAP
F0
60
60
90
F0
ENDCHAR
STARTCHAR uni0937094D0923
ENCODING -1
SWIDTH 980 0
DWIDTH 8 0
BBX 8 5 0 0
BITMAP
FF
D6
A6
7A
02
ENDCHAR
STARTCHAR uni0937094D092A
ENCODING -1
SWIDTH 980 0
DWIDTH 8 0
BBX 8 5 0 0
BITMAP
FF
D6
A6
7A
02
ENDCHAR
STARTCHAR uni0937094D092B
ENCODING -1
SWIDTH 1036 0
DWIDTH 8 0
BBX 8 5 0 0
BITMAP
FF
D6
A5
7D
06
ENDCHAR
STARTCHAR uni0937094D092E
ENCODING -1
SWIDTH 791 0
DWIDTH 6 0
BBX 6 5 0 0
BITMAP
FC
D4
BC
64
04
ENDCHAR
STARTCHAR uni0937094D092F
ENCODING -1
SWIDTH 877 0
DWIDTH 7 0
BBX 7 5 0 0
BITMAP
FE
CA
B2
5C
02
ENDCHAR
STARTCHAR uni0937094D0935
ENCODING -1
SWIDTH 802 0
DWIDTH 6 0
BBX 7 5 0 0
BITMAP
FE
DC
A4
64
1C
ENDCHAR
STARTCHAR uni0937094D0937
ENCODING -1
SWIDTH 804 0
DWIDTH 6 0
BBX 7 5 0 0
BITMAP
FE
DC
A4
7C
04
ENDCHAR
STARTCHAR uni0938094D0915
ENCODING -1
SWIDTH 1089 0
DWIDTH 9 0
BBX 9 5 0 0
BITMAP
FF80
4B00
F480
9480
4D00
ENDCHAR
STARTCHAR uni0938094D0916
ENCODING -1
SWIDTH 990 0
DWIDTH 8 0
BBX 8 5 0 0
BITMAP
FF
4E
F6
96
4A
ENDCHAR
STARTCHAR uni0938094D091C
ENCODING -1
SWIDTH 970 0
DWIDTH 8 0
BBX 8 5 0 0
BITMAP
FF
4E
F6
86
4A
ENDCHAR
STARTCHAR uni0938094D091F
ENCODING -1
SWIDTH 844 0
DWIDTH 7 0
BBX 7 5 0 0
BITMAP
FE
4C
F0
92
5C
ENDCHAR
STARTCHAR uni0938094D0924
ENCODING -1
SWIDTH 852 0
DWIDTH 7 0
BBX 7 5 0 0
BITMAP
FE
4C
F4
94
5C
ENDCHAR
STARTCHAR uni0938094D0925
ENCODING -1
SWIDTH 960 0
DWIDTH 8 0
BBX 8 5 0 0
BITMAP
FF
56
FA
92
4E
ENDCHAR
STARTCHAR uni0938094D0926
ENCODING -1
SWIDTH 851 0
DWIDTH 7 0
BBX 7 5 0 0
BITMAP
FE
4C
F0
92
4C
ENDCHAR
STARTCHAR uni0938094D092A
ENCODING -1
SWIDTH 857 0
DWIDTH 7 0
BBX 7 5 0 0
BITMAP
FE
54
F4
8C
44
ENDCHAR
STARTCHAR uni0938094D092B
ENCODING -1
SWIDTH 1092 0
DWIDTH 9 0
BBX 9 5 0 0
BITMAP
FF80
5300
F480
8C80
4500
ENDCHAR
STARTCHAR uni0938094D092C
ENCODING -1
SWIDTH 857 0
DWIDTH 7 0
BBX 7 5 0 0
BITMAP
FE
4C
FC
94
4C
ENDCHAR
STARTCHAR uni0938094D092E
ENCODING -1
SWIDTH 850 0
DWIDTH 7 0
BBX 7 5 0 0
BITMAP
FE
54
FC
94
44
ENDCHAR
STARTCHAR uni0938094D092F
ENCODING -1
SWIDTH 920 0
DWIDTH 7 0
BBX 7 5 0 0
BITMAP
FE
4A
F2
8E
42
ENDCHAR
STARTCHAR uni0938094D0932
ENCODING -1
SWIDTH 1027 0
DWIDTH 8 0
BBX 8 5 0 0
BITMAP
FF
4A
F5
91
59
ENDCHAR
STARTCHAR uni0938094D0935
ENCODING -1
SWIDTH 842 0
DWIDTH 7 0
BBX 7 5 0 0
BITMAP
FE
4C
F4
94
4C
ENDCHAR
STARTCHAR uni0938094D0938
ENCODING -1
SWIDTH 871 0
DWIDTH 7 0
BBX 7 5 0 0
BITMAP
FE
4A
FC
92
52
ENDCHAR
STARTCHAR uni0939094D0923
ENCODING -1
SWIDTH 1136 0
DWIDTH 9 0
BBX 9 7 0 -2
BITMAP
FF80
6A80
8A80
6480
8080
6000
2000
ENDCHAR
STARTCHAR uni0939094D092E
ENCODING -1
SWIDTH 746 0
DWIDTH 6 0
BBX 6 6 0 -1
BITMAP
FC
64
84
F8
A4
60
ENDCHAR
STARTCHAR uni0939094D092F
ENCODING -1
SWIDTH 785 0
DWIDTH 6 0
BBX 6 6 0 -1
BITMAP
FC
64
74
94
94
7C
ENDCHAR
STARTCHAR uni0939094D0932
ENCODING -1
SWIDTH 1110 0
DWIDTH 9 0
BBX 9 7 0 -2
BITMAP
FF80
6F00
6B00
9100
8D00
6000
2000
ENDCHAR
STARTCHAR uni0939094D0935
ENCODING -1
SWIDTH 920 0
DWIDTH 7 0
BBX 7 7 0 -2
BITMAP
FE
6E
6A
92
8E
60
20
ENDCHAR
STARTCHAR uni0915093C094D0915093C
ENCODING -1
SWIDTH 1275 0
DWIDTH 10 0
BBX 10 6 0 -1
BITMAP
FFC0
5E80
A540
A540
6680
4400
ENDCHAR
STARTCHAR uni0915093C094D0924
ENCODING -1
SWIDTH 1016 0
DWIDTH 8 0
BBX 8 6 0 -1
BITMAP
FF
5E
A9
A9
65
40
ENDCHAR
STARTCHAR uni0915093C094D092B
ENCODING -1
SWIDTH 1246 0
DWIDTH 10 0
BBX 10 6 0 -1
BITMAP
FFC0
5980
A940
A640
6180
4000
ENDCHAR
STARTCHAR uni0915093C094D092B093C
ENCODING -1
SWIDTH 1247 0
DWIDTH 10 0
BBX 10 6 0 -1
BITMAP
FFC0
5980
A940
A640
6180
4400
ENDCHAR
STARTCHAR uni0915093C094D092C
ENCODING -1
SWIDTH 1043 0
DWIDTH 8 0
BBX 8 6 0 -1
BITMAP
FF
5F
A5
A7
67
40
ENDCHAR
STARTCHAR uni0915093C094D092E
ENCODING -1
SWIDTH 998 0
DWIDTH 8 0
BBX 8 6 0 -1
BITMAP
FF
59
A6
A9
61
40
ENDCHAR
STARTCHAR uni0916093C094D0924
ENCODING -1
SWIDTH 984 0
DWIDTH 8 0
BBX 8 6 0 -1
BITMAP
FF
56
EA
5A
4E
10
ENDCHAR
STARTCHAR uni0916093C094D092E
ENCODING -1
SWIDTH 965 0
DWIDTH 8 0
BBX 8 6 0 -1
BITMAP
FF
5A
EE
5A
42
10
ENDCHAR
STARTCHAR uni0916093C094D092F
ENCODING -1
SWIDTH 1045 0
DWIDTH 8 0
BBX 8 6 0 -1
BITMAP
FF
55
E9
57
41
10
ENDCHAR
STARTCHAR uni0916093C094D0935
ENCODING -1
SWIDTH 972 0
DWIDTH 8 0
BBX 8 6 0 -1
BITMAP
FF
56
EA
5A
46
10
ENDCHAR
STARTCHAR uni0916093C094D0936
ENCODING -1
SWIDTH 1123 0
DWIDTH 9 0
BBX 9 6 0 -1
BITMAP
FE80
5A80
EC80
5880
4480
1000
ENDCHAR
STARTCHAR uni0916093C094D0938
ENCODING -1
SWIDTH 1066 0
DWIDTH 9 0
BBX 9 6 0 -1
BITMAP
FF80
5500
EF00
5900
4500
1000
ENDCHAR
STARTCHAR uni091C093C094D091C093C
ENCODING -1
SWIDTH 934 0
DWIDTH 7 0
BBX 7 6 0 -1
BITMAP
FE
6C
2A
2A
DA
90
ENDCHAR
STARTCHAR uni091C093C094D092F
ENCODING -1
SWIDTH 893 0
DWIDTH 7 0
BBX 7 6 0 -1
BITMAP
FE
6A
52
4C
C2
80
ENDCHAR
STARTCHAR uni092B093C094D091C093C
ENCODING -1
SWIDTH 1100 0
DWIDTH 9 0
BBX 9 6 0 -1
BITMAP
FF80
9F00
9300
6300
1500
4400
ENDCHAR
STARTCHAR uni092B093C094D0924
ENCODING -1
SWIDTH 1036 0
DWIDTH 8 0
BBX 8 6 0 -1
BITMAP
FF
9F
95
65
15
40
ENDCHAR
STARTCHAR uni092B093C094D092B093C
ENCODING -1
SWIDTH 1256 0
DWIDTH 10 0
BBX 10 6 0 -1
BITMAP
FFC0
9980
9940
6640
1180
4400
ENDCHAR
STARTCHAR uni092B093C094D0938
ENCODING -1
SWIDTH 1141 0
DWIDTH 9 0
BBX 9 6 0 -1
BITMAP
FF80
9A80
9700
6480
1280
4000
ENDCHAR
STARTCHAR uni092C094D091C093C
ENCODING -1
SWIDTH 883 0
DWIDTH 7 0
BBX 7 6 0 -1
BITMAP
FE
5C
CA
AA
72
10
ENDCHAR
STARTCHAR uni0932094D091C093C
ENCODING -1
SWIDTH 1062 0
DWIDTH 9 0
BBX 8 6 0 -1
BITMAP
FF
5F
A5
A5
CD
08
ENDCHAR
STARTCHAR uni0936094D0915093C
ENCODING -1
SWIDTH 1093 0
DWIDTH 9 0
BBX 9 6 0 -1
BITMAP
FF80
AB00
D480
5480
4D00
0800
ENDCHAR
STARTCHAR uni0924094D0924094D
ENCODING -1
SWIDTH 309 0
DWIDTH 2 0
BBX 3 5 0 0
BITMAP
E0
E0
40
40
40
ENDCHAR
STARTCHAR uni0928094D092D094D
ENCODING -1
SWIDTH 505 0
DWIDTH 4 0
BBX 5 3 0 2
BITMAP
E8
20
F8
ENDCHAR
STARTCHAR uni0928094D0938094D
ENCODING -1
SWIDTH 635 0
DWIDTH 5 0
BBX 6 5 0 0
BITMAP
FC
08
FC
10
10
ENDCHAR
STARTCHAR uni092E094D092D094D
ENCODING -1
SWIDTH 533 0
DWIDTH 4 0
BBX 5 3 0 2
BITMAP
E8
90
78
ENDCHAR
STARTCHAR uni0932094D092D094D
ENCODING -1
SWIDTH 694 0
DWIDTH 6 0
BBX 6 5 0 0
BITMAP
F8
58
AC
A8
C0
ENDCHAR
STARTCHAR uni0938094D0924094D0930094D
ENCODING -1
SWIDTH 575 0
DWIDTH 5 0
BBX 6 5 0 0
BITMAP
F8
58
E4
8C
50
ENDCHAR
STARTCHAR uni0915094D0924094D092F
ENCODING -1
SWIDTH 1356 0
DWIDTH 11 0
BBX 11 5 0 0
BITMAP
FFE0
5F40
A940
A9C0
6440
ENDCHAR
STARTCHAR uni0915094D0924094D0930
ENCODING -1
SWIDTH 997 0
DWIDTH 8 0
BBX 8 5 0 0
BITMAP
FF
5E
A9
A2
65
ENDCHAR
STARTCHAR uni0915094D0924094D0935
ENCODING -1
SWIDTH 1242 0
DWIDTH 10 0
BBX 10 5 0 0
BITMAP
FFC0
5F40
AA40
AA40
6D80
ENDCHAR
STARTCHAR uni0915094D092A094D0930
ENCODING -1
SWIDTH 1007 0
DWIDTH 8 0
BBX 8 5 0 0
BITMAP
FF
59
A9
66
25
ENDCHAR
STARTCHAR uni0915094D0935094D092F
ENCODING -1
SWIDTH 1384 0
DWIDTH 11 0
BBX 11 5 0 0
BITMAP
FFE0
5CA0
A920
A9C0
6620
ENDCHAR
STARTCHAR uni0915094D0938094D091F
ENCODING -1
SWIDTH 1376 0
DWIDTH 11 0
BBX 11 5 0 0
BITMAP
FFE0
5AC0
A700
A520
62E0
ENDCHAR
STARTCHAR uni0915094D0938094D0921
ENCODING -1
SWIDTH 1388 0
DWIDTH 11 0
BBX 11 5 0 0
BITMAP
FFE0
5AC0
A700
A4C0
62E0
ENDCHAR
STARTCHAR uni0915094D0938094D0924
ENCODING -1
SWIDTH 1423 0
DWIDTH 11 0
BBX 12 5 0 0
BITMAP
FFF0
5AE0
A720
A4A0
62A0
ENDCHAR
STARTCHAR uni0915094D0938094D092A094D0930
ENCODING -1
SWIDTH 1437 0
DWIDTH 12 0
BBX 12 5 0 0
BITMAP
FFF0
5AA0
A7A0
6460
22A0
ENDCHAR
STARTCHAR uni0915094D0938094D092A094D0932
ENCODING -1
SWIDTH 1866 0
DWIDTH 15 0
BBX 15 5 0 0
BITMAP
FFFE
5A9C
A7AA
A442
6232
ENDCHAR
STARTCHAR uni0917094D0927094D092F
ENCODING -1
SWIDTH 1156 0
DWIDTH 9 0
BBX 9 5 0 0
BITMAP
F780
6280
5480
A780
1880
ENDCHAR
STARTCHAR uni0917094D0927094D0935
ENCODING -1
SWIDTH 1084 0
DWIDTH 9 0
BBX 9 5 0 0
BITMAP
F780
6300
5500
A500
1B00
ENDCHAR
STARTCHAR uni0917094D0928094D092F
ENCODING -1
SWIDTH 1069 0
DWIDTH 9 0
BBX 9 5 0 0
BITMAP
FF80
4500
7D00
8700
0100
ENDCHAR
STARTCHAR uni0917094D092D094D092F
ENCODING -1
SWIDTH 1102 0
DWIDTH 9 0
BBX 9 5 0 0
BITMAP
EF80
5300
5D00
9700
0100
ENDCHAR
STARTCHAR uni0917094D0930094D092F
ENCODING -1
SWIDTH 817 0
DWIDTH 7 0
BBX 7 5 0 0
BITMAP
FE
54
54
9C
14
ENDCHAR
STARTCHAR uni091A094D091B094D0935
ENCODING -1
SWIDTH 913 0
DWIDTH 7 0
BBX 7 6 0 -1
BITMAP
FE
F6
5A
6E
12
0C
ENDCHAR
STARTCHAR uni091C094D091C094D091E
ENCODING -1
SWIDTH 945 0
DWIDTH 8 0
BBX 8 5 0 0
BITMAP
FF
7E
3A
36
DE
ENDCHAR
STARTCHAR uni091C094D091C094D092F
ENCODING -1
SWIDTH 1252 0
DWIDTH 10 0
BBX 10 5 0 0
BITMAP
FFC0
6D40
2A40
2980
D840
ENDCHAR
STARTCHAR uni091C094D091C094D0935
ENCODING -1
SWIDTH 1243 0
DWIDTH 10 0
BBX 10 5 0 0
BITMAP
FFC0
6F80
2A80
2A80
D980
ENDCHAR
STARTCHAR uni0924094D0915094D092F
ENCODING -1
SWIDTH 1346 0
DWIDTH 11 0
BBX 11 5 0 0
BITMAP
FFE0
7740
A640
A5C0
D840
ENDCHAR
STARTCHAR uni0924094D0915094D0930
ENCODING -1
SWIDTH 995 0
DWIDTH 8 0
BBX 8 5 0 0
BITMAP
FF
76
A5
A5
DA
ENDCHAR
STARTCHAR uni0924094D0915094D0935
ENCODING -1
SWIDTH 1282 0
DWIDTH 10 0
BBX 10 5 0 0
BITMAP
FFC0
77C0
A540
A540
D9C0
ENDCHAR
STARTCHAR uni0924094D0915094D0937
ENCODING -1
SWIDTH 943 0
DWIDTH 8 0
BBX 8 5 0 0
BITMAP
FF
7E
92
96
DA
ENDCHAR
STARTCHAR uni0924094D0916094D0930
ENCODING -1
SWIDTH 1008 0
DWIDTH 8 0
BBX 8 5 0 0
BITMAP
FF
6D
95
96
CD
ENDCHAR
STARTCHAR uni0924094D0924094D092F
ENCODING -1
SWIDTH 888 0
DWIDTH 7 0
BBX 7 5 0 0
BITMAP
FE
EA
52
4C
42
ENDCHAR
STARTCHAR uni0924094D0924094D0935
ENCODING -1
SWIDTH 788 0
DWIDTH 6 0
BBX 6 5 0 0
BITMAP
FC
FC
54
54
4C
ENDCHAR
STARTCHAR uni0924094D0928094D092F
ENCODING -1
SWIDTH 1098 0
DWIDTH 9 0
BBX 9 5 0 0
BITMAP
FF80
6300
9D00
8700
C100
ENDCHAR
STARTCHAR uni0924094D092A094D0930
ENCODING -1
SWIDTH 763 0
DWIDTH 6 0
BBX 6 5 0 0
BITMAP
FC
64
A4
98
D4
ENDCHAR
STARTCHAR uni0924094D092A094D0932
ENCODING -1
SWIDTH 1219 0
DWIDTH 10 0
BBX 10 5 0 0
BITMAP
FFC0
6780
A680
9880
C680
ENDCHAR
STARTCHAR uni0924094D092E094D092F
ENCODING -1
SWIDTH 1096 0
DWIDTH 9 0
BBX 9 5 0 0
BITMAP
FF80
6300
9D00
8700
C100
ENDCHAR
STARTCHAR uni0924094D0930094D092F
ENCODING -1
SWIDTH 848 0
DWIDTH 7 0
BBX 7 5 0 0
BITMAP
FE
6C
94
3C
44
ENDCHAR
STARTCHAR uni0924094D0938094D092F
ENCODING -1
SWIDTH 1234 0
DWIDTH 10 0
BBX 10 5 0 0
BITMAP
FFC0
6980
9E80
9380
C880
ENDCHAR
STARTCHAR uni0924094D0938094D0935
ENCODING -1
SWIDTH 1155 0
DWIDTH 9 0
BBX 9 5 0 0
BITMAP
FF80
6B80
9C80
9280
CB80
ENDCHAR
STARTCHAR uni0926094D0917094D0930
ENCODING -1
SWIDTH 493 0
DWIDTH 4 0
BBX 4 7 0 -2
BITMAP
F0
60
80
60
50
A0
40
ENDCHAR
STARTCHAR uni0926094D092C094D0930
ENCODING -1
SWIDTH 483 0
DWIDTH 4 0
BBX 4 7 0 -2
BITMAP
F0
60
80
90
60
60
60
ENDCHAR
STARTCHAR uni0926094D092F094D092D
ENCODING -1
SWIDTH 607 0
DWIDTH 5 0
BBX 5 6 0 -1
BITMAP
F8
70
50
90
70
F0
ENDCHAR
STARTCHAR uni0926094D092F094D0930
ENCODING -1
SWIDTH 595 0
DWIDTH 5 0
BBX 5 6 0 -1
BITMAP
F8
50
50
90
D0
20
ENDCHAR
STARTCHAR uni0927094D0928094D092F
ENCODING -1
SWIDTH 1138 0
DWIDTH 9 0
BBX 9 5 0 0
BITMAP
DF80
4280
9C80
7300
0080
ENDCHAR
STARTCHAR uni0928094D0915094D0938
ENCODING -1
SWIDTH 1384 0
DWIDTH 11 0
BBX 11 5 0 0
BITMAP
FFE0
16A0
E9C0
2920
18A0
ENDCHAR
STARTCHAR uni0928094D0924094D092F
ENCODING -1
SWIDTH 1073 0
DWIDTH 9 0
BBX 9 5 0 0
BITMAP
FF80
1D00
E900
2700
3100
ENDCHAR
STARTCHAR uni0928094D0924094D0930
ENCODING -1
SWIDTH 732 0
DWIDTH 6 0
BBX 6 5 0 0
BITMAP
FC
18
68
A8
38
ENDCHAR
STARTCHAR uni0928094D0924094D0938
ENCODING -1
SWIDTH 1134 0
DWIDTH 9 0
BBX 9 5 0 0
BITMAP
FF80
1A80
E700
2480
3280
ENDCHAR
STARTCHAR uni0928094D0925094D092F
ENCODING -1
SWIDTH 1168 0
DWIDTH 9 0
BBX 9 5 0 0
BITMAP
FF80
2A80
F680
1B80
0080
ENDCHAR
STARTCHAR uni0928094D0925094D0935
ENCODING -1
SWIDTH 1089 0
DWIDTH 9 0
BBX 9 5 0 0
BITMAP
FF80
2B00
F500
1D00
0300
ENDCHAR
STARTCHAR uni0928094D0926094D0930
ENCODING -1
SWIDTH 734 0
DWIDTH 6 0
BBX 6 6 0 -1
BITMAP
FC
18
60
A4
18
10
ENDCHAR
STARTCHAR uni0928094D0926094D0935
ENCODING -1
SWIDTH 732 0
DWIDTH 6 0
BBX 6 6 0 -1
BITMAP
FC
18
60
A4
18
18
ENDCHAR
STARTCHAR uni0928094D0927094D092F
ENCODING -1
SWIDTH 1097 0
DWIDTH 9 0
BBX 9 5 0 0
BITMAP
FF80
2300
F500
2700
1900
ENDCHAR
STARTCHAR uni0928094D0927094D0930
ENCODING -1
SWIDTH 783 0
DWIDTH 6 0
BBX 6 6 0 -1
BITMAP
FC
24
74
A4
1C
10
ENDCHAR
STARTCHAR uni0928094D0927094D0935
ENCODING -1
SWIDTH 1036 0
DWIDTH 8 0
BBX 8 5 0 0
BITMAP
FF
27
75
A5
1F
ENDCHAR
STARTCHAR uni0928094D0928094D092F
ENCODING -1
SWIDTH 1071 0
DWIDTH 9 0
BBX 9 5 0 0
BITMAP
FF80
0500
FD00
0700
0100
ENDCHAR
STARTCHAR uni0928094D092A094D0930
ENCODING -1
SWIDTH 737 0
DWIDTH 6 0
BBX 6 5 0 0
BITMAP
FC
28
68
98
18
ENDCHAR
STARTCHAR uni0928094D092B094D0930
ENCODING -1
SWIDTH 975 0
DWIDTH 8 0
BBX 8 5 0 0
BITMAP
FF
26
E9
1A
18
ENDCHAR
STARTCHAR uni0928094D092D094D092F
ENCODING -1
SWIDTH 1071 0
DWIDTH 9 0
BBX 9 5 0 0
BITMAP
EF80
2500
F900
0700
0100
ENDCHAR
STARTCHAR uni0928094D092D094D0935
ENCODING -1
SWIDTH 995 0
DWIDTH 8 0
BBX 8 5 0 0
BITMAP
EF
25
79
A9
06
ENDCHAR
STARTCHAR uni0928094D092E094D092F
ENCODING -1
SWIDTH 1071 0
DWIDTH 9 0
BBX 9 5 0 0
BITMAP
FF80
2500
F900
0700
0100
ENDCHAR
STARTCHAR uni0928094D0938094D091F
ENCODING -1
SWIDTH 1113 0
DWIDTH 9 0
BBX 9 5 0 0
BITMAP
FF80
1300
FC00
1480
1780
ENDCHAR
STARTCHAR uni0928094D0938094D092E094D092F
ENCODING -1
SWIDTH 1453 0
DWIDTH 12 0
BBX 12 5 0 0
BITMAP
FFF0
1460
FFA0
10E0
1020
ENDCHAR
STARTCHAR uni0928094D0938094D092F
ENCODING -1
SWIDTH 1194 0
DWIDTH 10 0
BBX 10 5 0 0
BITMAP
FFC0
1280
FC80
1380
1080
ENDCHAR
STARTCHAR uni092A094D0924094D092F
ENCODING -1
SWIDTH 1119 0
DWIDTH 9 0
BBX 9 5 0 0
BITMAP
FF80
8280
9C80
7700
1080
ENDCHAR
STARTCHAR uni092C094D091C094D092F
ENCODING -1
SWIDTH 1235 0
DWIDTH 10 0
BBX 10 5 0 0
BITMAP
FFC0
5D80
CA80
AB80
7080
ENDCHAR
STARTCHAR uni092C094D0927094D0935
ENCODING -1
SWIDTH 1097 0
DWIDTH 9 0
BBX 9 5 0 0
BITMAP
F780
5300
5D00
A500
7B00
ENDCHAR
STARTCHAR uni092C094D092D094D0930
ENCODING -1
SWIDTH 764 0
DWIDTH 6 0
BBX 6 5 0 0
BITMAP
EC
54
58
A8
74
ENDCHAR
STARTCHAR uni092C094D0932094D092F
ENCODING -1
SWIDTH 480 0
DWIDTH 4 0
BBX 11 5 0 0
BITMAP
FFE0
5F40
D940
A1C0
7040
ENDCHAR
STARTCHAR uni092D094D0930094D092F
ENCODING -1
SWIDTH 830 0
DWIDTH 7 0
BBX 7 5 0 0
BITMAP
BE
8C
74
3C
44
ENDCHAR
STARTCHAR uni092E094D092A094D0930
ENCODING -1
SWIDTH 765 0
DWIDTH 6 0
BBX 6 5 0 0
BITMAP
FC
A4
64
98
14
ENDCHAR
STARTCHAR uni092E094D092C094D092F
ENCODING -1
SWIDTH 1124 0
DWIDTH 9 0
BBX 9 5 0 0
BITMAP
FF80
9280
7480
2B00
1880
ENDCHAR
STARTCHAR uni092E094D092C094D0930
ENCODING -1
SWIDTH 768 0
DWIDTH 6 0
BBX 6 6 0 -1
BITMAP
FC
94
74
A8
18
10
ENDCHAR
STARTCHAR uni092E094D092D094D092F
ENCODING -1
SWIDTH 1101 0
DWIDTH 9 0
BBX 9 5 0 0
BITMAP
EF80
9300
7D00
0700
0100
ENDCHAR
STARTCHAR uni092E094D092D094D0930
ENCODING -1
SWIDTH 759 0
DWIDTH 6 0
BBX 6 5 0 0
BITMAP
EC
A4
78
A8
14
ENDCHAR
STARTCHAR uni092E094D092D094D0935
ENCODING -1
SWIDTH 1028 0
DWIDTH 8 0
BBX 8 5 0 0
BITMAP
EF
96
79
95
06
ENDCHAR
STARTCHAR uni0932094D0915094D092F
ENCODING -1
SWIDTH 1534 0
DWIDTH 12 0
BBX 12 5 0 0
BITMAP
FFF0
5FD0
AA90
8A70
C610
ENDCHAR
STARTCHAR uni0932094D0925094D092F
ENCODING -1
SWIDTH 1397 0
DWIDTH 11 0
BBX 11 5 0 0
BITMAP
FFE0
52A0
AD20
A920
C6C0
ENDCHAR
STARTCHAR uni0932094D0926094D0930
ENCODING -1
SWIDTH 933 0
DWIDTH 7 0
BBX 8 6 0 -1
BITMAP
FF
5E
A8
AA
C6
04
ENDCHAR
STARTCHAR uni0932094D0932094D092F
ENCODING -1
SWIDTH 1476 0
DWIDTH 12 0
BBX 12 5 0 0
BITMAP
FFF0
5760
AAA0
88E0
CC20
ENDCHAR
STARTCHAR uni0932094D0935094D0921
ENCODING -1
SWIDTH 1247 0
DWIDTH 10 0
BBX 10 5 0 0
BITMAP
FFC0
5D80
AA00
ABC0
C7C0
ENDCHAR
STARTCHAR uni0937094D0915094D0930
ENCODING -1
SWIDTH 1042 0
DWIDTH 8 0
BBX 8 5 0 0
BITMAP
FF
DE
A5
65
1E
ENDCHAR
STARTCHAR uni0937094D091F094D092F
ENCODING -1
SWIDTH 997 0
DWIDTH 8 0
BBX 8 5 0 0
BITMAP
FF
BD
CD
89
F6
ENDCHAR
STARTCHAR uni0937094D091F094D0930
ENCODING -1
SWIDTH 493 0
DWIDTH 4 0
BBX 4 6 0 -1
BITMAP
F0
A0
60
90
90
60
ENDCHAR
STARTCHAR uni0937094D091F094D0935
ENCODING -1
SWIDTH 493 0
DWIDTH 4 0
BBX 4 7 0 -2
BITMAP
F0
A0
60
90
F0
90
60
ENDCHAR
STARTCHAR uni0937094D0920094D092F
ENCODING -1
SWIDTH 1006 0
DWIDTH 8 0
BBX 8 5 0 0
BITMAP
FF
7D
9D
99
F6
ENDCHAR
STARTCHAR uni0937094D0920094D0930
ENCODING -1
SWIDTH 512 0
DWIDTH 4 0
BBX 4 6 0 -1
BITMAP
F0
60
60
90
90
60
ENDCHAR
STARTCHAR uni0937094D0923094D092F
ENCODING -1
SWIDTH 1273 0
DWIDTH 10 0
BBX 10 5 0 0
BITMAP
FFC0
D540
A640
5980
0040
ENDCHAR
STARTCHAR uni0937094D092A094D0930
ENCODING -1
SWIDTH 798 0
DWIDTH 6 0
BBX 7 5 0 0
BITMAP
FE
D4
A4
7C
14
ENDCHAR
STARTCHAR uni0937094D092E094D092F
ENCODING -1
SWIDTH 1121 0
DWIDTH 9 0
BBX 9 5 0 0
BITMAP
FF80
D280
BC80
4700
0080
ENDCHAR
STARTCHAR uni0938094D0915094D0930
ENCODING -1
SWIDTH 1084 0
DWIDTH 9 0
BBX 9 5 0 0
BITMAP
FF80
4B00
F500
9500
4D00
ENDCHAR
STARTCHAR uni0938094D0915094D0935
ENCODING -1
SWIDTH 1369 0
DWIDTH 11 0
BBX 11 5 0 0
BITMAP
FFE0
4BA0
F520
9520
4CC0
ENDCHAR
STARTCHAR uni0938094D0924094D092F
ENCODING -1
SWIDTH 1185 0
DWIDTH 9 0
BBX 10 5 0 0
BITMAP
FFC0
4280
FC80
9380
5880
ENDCHAR
STARTCHAR uni0938094D0924094D0930
ENCODING -1
SWIDTH 818 0
DWIDTH 7 0
BBX 7 5 0 0
BITMAP
FE
4C
F4
84
5C
ENDCHAR
STARTCHAR uni0938094D0924094D0935
ENCODING -1
SWIDTH 1126 0
DWIDTH 9 0
BBX 9 5 0 0
BITMAP
FF80
4E80
F480
9480
5B00
ENDCHAR
STARTCHAR uni0938094D0925094D092F
ENCODING -1
SWIDTH 1303 0
DWIDTH 10 0
BBX 11 5 0 0
BITMAP
FFE0
5540
FA40
8DC0
4040
ENDCHAR
STARTCHAR uni0938094D092A094D0930
ENCODING -1
SWIDTH 850 0
DWIDTH 7 0
BBX 7 5 0 0
BITMAP
FE
54
F4
8C
4C
ENDCHAR
STARTCHAR uni0938094D092E094D092F
ENCODING -1
SWIDTH 1189 0
DWIDTH 10 0
BBX 10 5 0 0
BITMAP
FFC0
5280
FC80
8380
4080
ENDCHAR
STARTCHAR uni093F.a01
ENCODING -1
SWIDTH 231 0
DWIDTH 2 0
BBX 4 7 0 0
BITMAP
70
90
C0
80
80
80
80
ENDCHAR
STARTCHAR uni093F.a04
ENCODING -1
SWIDTH 231 0
DWIDTH 2 0
BBX 5 7 0 0
BITMAP
78
88
C0
80
80
80
80
ENDCHAR
STARTCHAR uni093F.a05
ENCODING -1
SWIDTH 231 0
DWIDTH 2 0
BBX 5 7 0 0
BITMAP
78
88
C0
80
80
80
80
ENDCHAR
STARTCHAR uni093F.a06
ENCODING -1
SWIDTH 231 0
DWIDTH 2 0
BBX 6 7 0 0
BITMAP
7C
84
C0
80
80
80
80
ENDCHAR
STARTCHAR uni093F.a07
ENCODING -1
SWIDTH 231 0
DWIDTH 2 0
BBX 6 7 0 0
BITMAP
7C
84
C0
80
80
80
80
ENDCHAR
STARTCHAR uni093F.a08
ENCODING -1
SWIDTH 231 0
DWIDTH 2 0
BBX 7 7 0 0
BITMAP
7E
82
C0
80
80
80
80
ENDCHAR
STARTCHAR uni093F.a09
ENCODING -1
SWIDTH 231 0
DWIDTH 2 0
BBX 7 7 0 0
BITMAP
7E
82
C0
80
80
80
80
ENDCHAR
STARTCHAR uni093F.a10
ENCODING -1
SWIDTH 231 0
DWIDTH 2 0
BBX 7 7 0 0
BITMAP
7E
82
C0
80
80
80
80
ENDCHAR
STARTCHAR uni093F.a11
ENCODING -1
SWIDTH 231 0
DWIDTH 2 0
BBX 8 7 0 0
BITMAP
7F
81
C0
80
80
80
80
ENDCHAR
STARTCHAR uni093F.a12
ENCODING -1
SWIDTH 231 0
DWIDTH 2 0
BBX 8 7 0 0
BITMAP
7F
81
C0
80
80
80
80
ENDCHAR
STARTCHAR uni093F.a13
ENCODING -1
SWIDTH 231 0
DWIDTH 2 0
BBX 8 7 0 0
BITMAP
7F
81
C0
80
80
80
80
ENDCHAR
STARTCHAR uni093F.a14
ENCODING -1
SWIDTH 231 0
DWIDTH 2 0
BBX 9 7 0 0
BITMAP
7F80
8080
C000
8000
8000
8000
8000
ENDCHAR
STARTCHAR uni093F.a15
ENCODING -1
SWIDTH 231 0
DWIDTH 2 0
BBX 9 7 0 0
BITMAP
7F80
8080
C000
8000
8000
8000
8000
ENDCHAR
STARTCHAR uni093F.a16
ENCODING -1
SWIDTH 231 0
DWIDTH 2 0
BBX 10 7 0 0
BITMAP
7FC0
8040
C000
8000
8000
8000
8000
ENDCHAR
STARTCHAR uni093F.a17
ENCODING -1
SWIDTH 231 0
DWIDTH 2 0
BBX 10 7 0 0
BITMAP
7FC0
8040
C000
8000
8000
8000
8000
ENDCHAR
STARTCHAR uni093F.a18
ENCODING -1
SWIDTH 231 0
DWIDTH 2 0
BBX 10 7 0 0
BITMAP
7FC0
8040
C000
8000
8000
8000
8000
ENDCHAR
STARTCHAR uni093F.a19
ENCODING -1
SWIDTH 231 0
DWIDTH 2 0
BBX 11 7 0 0
BITMAP
7FE0
8020
C000
8000
8000
8000
8000
ENDCHAR
STARTCHAR uni093F.a20
ENCODING -1
SWIDTH 231 0
DWIDTH 2 0
BBX 11 7 0 0
BITMAP
7FE0
8020
C000
8000
8000
8000
8000
ENDCHAR
STARTCHAR uni093F.a21
ENCODING -1
SWIDTH 231 0
DWIDTH 2 0
BBX 11 7 0 0
BITMAP
7FE0
8020
C000
8000
8000
8000
8000
ENDCHAR
STARTCHAR uni093F.a22
ENCODING -1
SWIDTH 231 0
DWIDTH 2 0
BBX 12 7 0 0
BITMAP
7FF0
8010
C000
8000
8000
8000
8000
ENDCHAR
STARTCHAR uni093F.a23
ENCODING -1
SWIDTH 231 0
DWIDTH 2 0
BBX 12 7 0 0
BITMAP
7FF0
8010
C000
8000
8000
8000
8000
ENDCHAR
STARTCHAR uni093F.a24
ENCODING -1
SWIDTH 231 0
DWIDTH 2 0
BBX 13 7 0 0
BITMAP
7FF8
8008
C000
8000
8000
8000
8000
ENDCHAR
STARTCHAR uni093F.a25
ENCODING -1
SWIDTH 231 0
DWIDTH 2 0
BBX 13 7 0 0
BITMAP
7FF8
8008
C000
8000
8000
8000
8000
ENDCHAR
STARTCHAR uni093F.a26
ENCODING -1
SWIDTH 231 0
DWIDTH 2 0
BBX 13 7 0 0
BITMAP
7FF8
8008
C000
8000
8000
8000
8000
ENDCHAR
STARTCHAR uni093F.a32
ENCODING -1
SWIDTH 231 0
DWIDTH 2 0
BBX 16 7 0 0
BITMAP
7FFF
8001
C000
8000
8000
8000
8000
ENDCHAR
STARTCHAR uni093E0901
ENCODING -1
SWIDTH 231 0
DWIDTH 2 0
BBX 2 6 0 0
BITMAP
C0
80
80
80
80
80
ENDCHAR
STARTCHAR dvNG_GA
ENCODING -1
SWIDTH 562 0
DWIDTH 5 0
BBX 5 7 0 -2
BITMAP
F8
60
88
60
90
60
A0
ENDCHAR
STARTCHAR dvNG_MA
ENCODING -1
SWIDTH 728 0
DWIDTH 6 0
BBX 6 7 0 -2
BITMAP
FC
68
68
98
D8
38
08
ENDCHAR
STARTCHAR dvNY_CA
ENCODING -1
SWIDTH 963 0
DWIDTH 8 0
BBX 8 5 0 0
BITMAP
FF
DE
2A
2E
C2
ENDCHAR
STARTCHAR dvTT_GA
ENCODING -1
SWIDTH 510 0
DWIDTH 4 0
BBX 4 7 0 -2
BITMAP
F0
60
80
90
60
60
A0
ENDCHAR
STARTCHAR dvTTH_TTHA
ENCODING -1
SWIDTH 511 0
DWIDTH 4 0
BBX 4 8 0 -3
BITMAP
F0
60
90
60
60
90
90
60
ENDCHAR
STARTCHAR dvDD_GA
ENCODING -1
SWIDTH 541 0
DWIDTH 4 0
BBX 4 7 0 -2
BITMAP
F0
60
80
60
90
60
A0
ENDCHAR
STARTCHAR dvDDH_DDHA
ENCODING -1
SWIDTH 487 0
DWIDTH 4 0
BBX 4 7 0 -2
BITMAP
F0
60
B0
60
80
B0
60
ENDCHAR
STARTCHAR dvSHA_MatraVocalicR
ENCODING -1
SWIDTH 558 0
DWIDTH 4 0
BBX 5 7 0 -2
BITMAP
F8
B0
70
90
10
20
38
ENDCHAR
STARTCHAR dvT_KH_NA
ENCODING -1
SWIDTH 1341 0
DWIDTH 11 0
BBX 11 5 0 0
BITMAP
FFE0
6E40
95C0
9640
C840
ENDCHAR
STARTCHAR dvT_S_NA
ENCODING -1
SWIDTH 1169 0
DWIDTH 9 0
BBX 9 5 0 0
BITMAP
FF80
6880
9F80
9080
C880
ENDCHAR
ENDFONT
